<svg xmlns="http://www.w3.org/2000/svg" width="150" height="50" viewBox="0,0,150,50"><path fill="#333" d="M112.44 41.48L112.45 41.48L112.46 41.49Q108.02 41.66 106.96 39.17L107.03 39.25L107.06 39.27Q107.86 38.24 109.53 36.32L109.59 36.38L109.58 36.37Q110.11 38.53 113.33 38.65L113.21 38.53L113.26 38.58Q116.94 38.71 118.69 37.28L118.66 37.25L118.67 37.26Q120.12 35.49 120.04 32.60L120.01 32.56L120.14 32.69Q119.93 27.22 114.79 27.47L114.79 27.47L114.70 27.38Q111.78 27.63 109.90 28.98L109.86 28.94L109.53 28.78L109.29 28.62L109.28 28.61Q109.61 25.18 109.49 22.24L109.54 22.30L109.51 22.27Q109.36 19.43 109.00 15.88L109.14 16.03L109.14 16.02Q112.96 16.95 117.04 16.83L117.13 16.91L117.13 16.91Q121.17 16.80 125.00 15.45L125.05 15.50L124.33 17.02L124.35 17.05Q124.07 17.90 123.87 18.80L123.80 18.73L123.78 18.72Q120.55 19.94 116.39 19.94L116.33 19.87L116.26 19.80Q114.85 19.94 113.26 19.78L113.11 19.63L113.17 19.68Q113.12 20.45 112.75 25.23L112.69 25.17L112.78 25.26Q113.70 24.79 115.91 24.63L115.80 24.52L115.79 24.51Q119.81 24.78 121.36 26.57L121.29 26.50L121.29 26.51Q122.83 28.20 123.11 32.32L123.09 32.30L123.13 32.34Q123.36 36.77 122.05 38.93L122.21 39.09L122.11 38.99Q119.87 40.95 116.32 41.19L116.45 41.32L116.34 41.22Q115.28 41.29 112.42 41.45ZM118.99 43.98L118.93 43.93L118.84 43.83Q122.68 44.09 124.72 42.90L124.68 42.87L124.63 42.81Q125.77 41.26 125.77 39.02L125.66 38.91L125.62 38.87Q125.70 35.65 124.68 31.24L124.66 31.22L124.62 31.18Q124.24 29.33 122.94 27.82L122.93 27.82L123.06 27.99L122.68 27.53L122.33 27.34L122.32 27.33Q122.09 26.65 121.39 25.91L121.43 25.95L121.31 25.87L121.32 25.88Q119.84 24.24 115.88 24.24L115.74 24.10L115.55 24.19L115.53 24.17Q115.63 23.57 115.83 22.39L115.75 22.31L115.70 22.26Q121.14 22.48 125.46 20.72L125.45 20.71L125.50 20.77Q125.89 19.20 126.91 16.18L126.96 16.22L124.66 17.19L124.77 17.30Q125.15 16.05 125.68 14.83L125.53 14.68L125.62 14.77Q121.47 16.28 117.06 16.36L117.17 16.47L117.07 16.37Q112.74 16.56 108.50 15.38L108.48 15.36L108.47 15.36Q109.26 20.15 109.26 24.88L109.13 24.74L109.19 24.80Q109.21 26.87 109.09 28.91L109.06 28.88L109.09 28.91Q109.37 29.10 109.98 29.43L109.93 29.38L109.98 29.43Q110.30 29.13 110.99 28.77L111.10 28.88L111.06 28.83Q110.96 29.59 110.72 31.23L110.83 31.34L110.69 31.20Q111.23 31.49 111.68 31.74L111.63 31.69L111.57 31.63Q114.53 29.74 116.53 29.74L116.56 29.77L116.52 29.73Q117.99 29.77 119.25 30.46L119.22 30.43L119.30 30.51Q119.75 31.70 119.79 32.72L119.73 32.66L119.63 32.56Q119.73 35.35 118.63 36.53L118.75 36.65L118.75 36.65Q117.12 37.80 114.72 38.04L114.81 38.13L114.82 38.14Q113.72 38.15 112.99 38.07L112.99 38.06L113.14 38.22Q112.11 37.96 111.29 37.59L111.31 37.61L111.34 37.44L111.09 37.43L111.21 37.55Q110.37 37.03 109.79 35.61L109.70 35.51L109.73 35.54Q108.28 37.03 106.49 39.32L106.62 39.45L106.44 39.27Q106.96 40.15 107.85 41.17L107.73 41.05L107.81 41.12Q108.93 43.06 111.95 43.59L111.93 43.58L111.83 43.48Q113.19 43.82 118.95 43.94Z"/><path fill="#333" d="M56.09 29.50L56.09 29.50L56.07 29.48Q54.11 29.36 52.79 30.89L52.80 30.90L52.73 30.83Q51.32 32.27 51.11 34.31L51.28 34.48L51.28 34.47Q50.87 36.52 52.04 37.56L52.11 37.63L52.14 37.66Q53.35 38.75 55.60 38.63L55.54 38.57L55.45 38.49Q57.83 38.45 59.01 37.72L58.97 37.68L58.99 37.70Q60.08 36.39 60.08 34.71L60.10 34.73L60.18 34.81Q60.09 34.31 60.01 33.90L60.12 34.02L59.99 33.89Q60.16 32.18 58.98 30.73L58.99 30.74L58.96 30.72Q57.71 29.20 55.92 29.33ZM55.46 41.23L55.62 41.39L55.65 41.41Q50.82 41.27 49.31 40.46L49.39 40.54L49.29 40.44Q48.16 39.60 47.96 37.76L48.08 37.88L47.98 37.78Q48.07 37.18 48.11 36.41L48.14 36.44L48.00 36.30Q48.11 35.22 48.11 34.73L48.19 34.81L48.22 34.85Q48.63 31.71 48.80 30.97L48.85 31.02L48.83 31.01Q49.32 28.93 50.22 27.42L50.13 27.33L50.23 27.43Q53.08 22.73 59.44 15.92L59.44 15.92L59.45 15.93Q62.26 15.56 64.63 14.71L64.67 14.75L64.58 14.65Q57.27 22.68 53.84 27.21L53.81 27.17L53.93 27.29Q55.02 26.79 56.40 26.79L56.33 26.72L56.37 26.76Q59.80 26.64 61.43 28.72L61.45 28.74L61.55 28.84Q62.94 30.55 63.31 34.35L63.34 34.38L63.35 34.39Q63.35 35.08 63.35 35.73L63.30 35.69L63.33 35.72Q63.38 39.11 61.01 40.25L61.05 40.29L60.96 40.20Q59.74 40.94 55.58 41.34ZM58.09 43.98L58.06 43.95L58.00 43.88Q59.43 43.90 61.56 43.98L61.47 43.89L61.57 43.99Q63.30 44.04 64.97 43.27L64.84 43.14L64.94 43.24Q66.08 42.34 66.08 40.43L66.21 40.55L66.09 40.43Q66.17 39.98 65.98 38.92L65.89 38.83L65.97 38.90Q65.69 37.75 65.69 37.26L65.75 37.32L65.68 37.25Q64.80 32.25 63.09 30.21L63.01 30.13L63.13 30.26Q63.05 30.14 62.89 29.89L62.88 29.88L62.56 29.65L62.42 29.54L62.38 29.50Q62.02 28.98 61.36 27.96L61.34 27.93L61.39 27.99Q60.45 27.01 58.33 26.52L58.30 26.49L58.31 26.49Q59.67 24.84 62.85 20.88L62.72 20.75L67.38 15.21L67.43 15.27Q65.64 16.08 63.07 16.90L63.11 16.94L63.08 16.91Q64.16 15.95 66.08 13.83L65.91 13.66L65.95 13.70Q63.44 14.90 59.28 15.52L59.35 15.59L59.31 15.55Q53.21 21.88 50.03 27.19L49.94 27.10L49.96 27.12Q48.36 29.84 47.75 36.53L47.63 36.42L47.74 36.52Q47.71 37.19 47.79 38.21L47.65 38.06L47.67 38.09Q47.73 39.94 48.91 40.92L49.00 41.01L49.05 41.06Q49.47 41.23 49.43 41.27L49.43 41.27L49.33 41.18Q49.73 42.14 50.58 42.59L50.59 42.59L50.71 42.72Q52.12 43.31 54.20 43.52L54.21 43.52L54.32 43.64Q54.21 43.52 57.96 43.85ZM57.85 31.95L57.77 31.87L57.84 31.95Q58.37 31.74 59.39 32.27L59.46 32.34L59.42 32.30Q59.67 33.20 59.67 33.89L59.76 33.99L59.77 33.99Q60.05 36.06 59.03 37.13L59.01 37.11L59.02 37.12Q57.85 37.87 55.61 38.19L55.52 38.11L55.46 38.04Q54.04 38.17 53.47 37.89L53.40 37.82L53.43 37.85Q53.26 37.39 53.26 37.06L53.32 37.13L53.16 36.97Q53.00 33.55 56.14 32.16L56.14 32.16L56.10 32.12Q56.96 31.80 57.78 31.88Z"/><path fill="#333" d="M86.37 23.32L86.26 23.21L86.39 23.34Q82.89 23.27 80.93 22.13L80.89 22.09L80.91 22.10Q83.66 20.70 88.88 16.17L88.85 16.14L88.77 16.06Q89.73 16.04 91.12 15.39L90.96 15.23L91.05 15.32Q89.59 21.65 89.47 28.47L89.55 28.54L89.40 28.39Q89.26 35.19 90.41 41.72L90.42 41.73L90.57 41.89Q88.67 41.00 86.38 40.88L86.44 40.93L86.50 41.00Q86.31 36.48 86.31 32.12L86.37 32.17L86.33 32.14Q86.36 27.76 86.40 23.36ZM85.85 25.62L85.85 41.24L85.85 41.24Q87.33 41.41 88.35 41.62L88.15 41.42L88.33 41.60Q88.33 42.26 88.54 43.73L88.60 43.79L88.63 43.82Q91.51 44.20 94.12 46.61L94.16 46.65L94.25 46.75Q91.48 39.00 91.44 31.00L91.51 31.07L91.57 31.13Q91.48 23.14 93.44 15.39L93.36 15.30L93.38 15.32Q92.87 15.83 91.16 17.02L91.16 17.02L91.06 16.92Q91.21 16.05 91.54 14.42L91.71 14.59L91.73 14.61Q90.12 15.24 88.57 15.65L88.66 15.74L88.61 15.69Q84.63 19.58 80.02 22.03L79.99 22.00L80.07 22.09Q81.44 23.12 83.96 23.49L84.06 23.58L84.02 23.54Q83.43 24.22 82.05 25.36L81.88 25.20L82.04 25.35Q83.47 25.60 85.83 25.60L85.91 25.68Z"/><path fill="#222" d="M26.48 19.19L26.62 19.32L24.94 19.44L24.87 19.37Q22.54 19.57 22.30 21.74L22.25 21.69L22.31 21.75Q22.15 22.44 22.19 23.50L22.18 23.49L22.09 23.40Q22.31 25.67 23.66 27.10L23.50 26.94L23.66 27.10Q25.00 28.52 27.04 28.36L26.98 28.29L26.97 28.29Q29.07 28.02 29.89 27.04L30.01 27.17L29.92 27.07Q31.12 26.15 31.41 23.75L31.44 23.78L31.47 23.81Q31.71 21.35 30.36 20.46L30.27 20.37L30.42 20.51Q29.47 19.65 26.62 19.32ZM33.10 29.24L32.97 29.10L31.70 31.67L31.73 31.69Q28.84 36.84 24.80 41.21L24.71 41.11L24.80 41.21Q22.97 41.29 20.07 42.14L20.05 42.12L19.97 42.04Q25.79 35.42 29.17 30.28L29.24 30.35L29.23 30.34Q28.14 31.04 26.39 31.13L26.34 31.08L26.25 30.99Q23.00 31.13 21.37 29.01L21.45 29.09L21.36 29.00Q20.05 27.28 18.86 22.38L18.89 22.41L18.86 22.38Q19.03 22.06 18.87 21.06L18.72 20.92L18.83 21.02Q18.70 20.06 18.70 19.57L18.63 19.50L18.71 19.58Q18.66 17.61 19.81 16.96L19.70 16.85L19.83 16.98Q21.05 16.08 23.05 16.08L23.01 16.05L23.06 16.09Q26.56 16.16 26.56 16.16L26.43 16.04L26.44 16.05Q28.73 16.05 30.07 16.25L30.27 16.45L30.23 16.41Q32.52 16.70 33.50 17.23L33.46 17.20L33.40 17.14Q34.93 18.01 35.13 19.89L35.04 19.79L35.17 19.93Q35.14 20.14 34.93 22.99L34.99 23.05L34.90 22.95Q34.48 25.23 34.23 26.12L34.17 26.07L34.22 26.11Q33.74 27.55 32.93 29.06ZM35.01 31.67L35.05 31.71L35.12 31.78Q36.05 29.28 36.62 24.67L36.69 24.75L36.63 24.69Q37.00 22.41 36.96 21.47L37.01 21.52L36.88 21.39Q36.88 19.43 35.62 18.45L35.65 18.49L35.23 18.27L35.22 18.27Q35.04 17.55 34.07 16.86L34.03 16.83L34.11 16.90Q31.63 15.81 26.49 15.65L26.42 15.58L26.43 15.58Q25.49 15.67 22.88 15.67L22.76 15.55L22.90 15.69Q20.91 15.57 19.32 16.31L19.40 16.39L19.44 16.43Q18.22 17.29 18.30 19.25L18.28 19.22L18.30 19.25Q18.39 20.11 18.59 22.27L18.59 22.27L18.59 22.27Q19.19 25.03 19.47 25.93L19.63 26.08L19.59 26.04Q20.20 28.04 21.22 29.43L21.10 29.31L21.18 29.39Q21.48 29.77 21.89 30.18L21.84 30.13L21.90 30.19Q22.21 30.70 22.90 31.68L22.80 31.58L22.92 31.70Q24.36 33.02 26.44 33.22L26.57 33.35L26.54 33.32Q24.55 36.23 22.88 38.26L22.85 38.23L19.01 42.96L18.96 42.91Q21.31 42.04 23.07 41.68L23.11 41.71L23.13 41.74Q22.32 42.68 20.65 44.52L20.68 44.55L20.53 44.40Q23.91 43.49 27.25 43.45L27.18 43.38L27.30 43.50Q29.80 40.74 34.45 32.99L34.43 32.97L34.41 33.03L34.36 32.99Q34.68 32.24 35.05 31.71ZM28.62 21.81L28.71 21.91L28.67 21.87Q29.23 21.65 29.72 21.77L29.86 21.91L29.71 21.77Q30.44 21.93 30.85 22.05L30.89 22.09L30.82 22.02Q30.96 22.44 31.04 22.89L31.14 22.99L31.12 22.97Q31.20 23.42 31.08 23.83L31.09 23.84L31.11 23.86Q31.06 25.69 29.80 26.87L29.78 26.85L29.76 26.83Q28.74 27.94 26.99 27.90L26.99 27.90L26.87 27.78Q26.46 27.82 24.83 27.49L24.79 27.45L24.79 27.45Q24.60 26.57 24.60 25.79L24.70 25.89L24.71 25.90Q24.64 25.63 24.64 25.39L24.55 25.30L24.58 25.32Q24.45 22.82 26.89 21.97L26.98 22.05L27.01 22.09Q27.63 21.72 28.52 21.72Z"/><path d="M12 18 C66 10,58 15,144 30" stroke="#555" fill="none"/></svg>