<svg xmlns="http://www.w3.org/2000/svg" width="150" height="50" viewBox="0,0,150,50"><path fill="#333" d="M112.37 37.67L112.50 37.80L112.39 37.69Q113.60 38.65 115.11 38.49L115.24 38.62L115.20 38.59Q118.34 38.78 119.03 35.19L119.05 35.21L119.04 35.20Q119.71 31.83 119.71 28.20L119.78 28.28L119.59 25.31L119.72 25.44Q119.66 24.04 119.30 22.69L119.31 22.71L119.29 22.69Q118.10 25.30 115.98 30.39L115.95 30.36L115.85 30.27Q113.80 35.43 112.50 37.80ZM117.94 20.20L117.81 20.06L117.87 20.13Q116.61 19.23 115.18 19.23L115.20 19.25L115.23 19.28Q113.56 19.04 112.38 20.02L112.33 19.97L112.41 20.05Q111.22 21.02 111.02 22.62L111.08 22.68L111.01 22.61Q110.68 24.11 110.64 25.70L110.67 25.74L110.64 25.71Q110.69 25.75 110.69 28.81L110.69 28.82L110.60 28.73Q110.59 31.25 111.08 35.12L111.08 35.11L111.14 35.17Q113.07 29.97 117.76 20.01ZM119.54 40.27L119.43 40.16L119.60 40.33Q117.74 41.33 115.25 41.33L115.11 41.19L113.44 41.27L113.40 41.23Q109.99 41.29 108.77 39.45L108.71 39.40L108.74 39.42Q107.78 36.99 107.69 33.85L107.87 34.02L107.74 33.90Q107.65 31.98 107.57 28.26L107.65 28.34L107.61 28.30Q107.67 27.10 107.50 23.83L107.42 23.75L107.46 23.79Q107.32 21.28 107.64 19.16L107.73 19.24L107.74 19.25Q108.21 16.06 112.86 15.81L112.96 15.91L112.80 15.75Q113.74 15.83 115.17 15.87L115.14 15.85L115.19 15.89Q121.12 15.91 122.26 19.62L122.29 19.65L122.28 19.64Q122.92 21.67 122.88 23.67L122.87 23.66L122.99 23.78Q122.90 29.11 122.82 30.42L122.74 30.34L122.81 30.41Q122.57 34.45 122.24 35.83L122.34 35.93L122.19 35.79Q121.50 39.13 119.46 40.19ZM124.74 39.93L124.85 40.03L124.80 39.99Q125.07 37.03 125.03 35.11L125.08 35.17L124.96 30.20L124.98 30.21Q124.78 26.88 124.21 20.96L124.31 21.06L124.35 21.10Q123.63 18.99 122.24 18.17L122.38 18.32L122.38 18.32Q120.70 15.57 115.15 15.41L115.22 15.47L115.03 15.29Q114.20 15.36 112.77 15.40L112.75 15.38L112.80 15.42Q107.83 15.39 107.30 18.73L107.39 18.82L107.37 18.80Q106.95 21.28 107.07 23.52L107.04 23.49L107.15 23.60Q107.53 28.30 107.49 31.89L107.49 31.89L107.43 31.83Q107.38 35.78 107.50 36.88L107.58 36.96L107.43 36.81Q107.83 40.11 109.47 40.97L109.50 41.00L109.56 41.06Q111.20 43.48 115.49 43.77L115.45 43.72L115.45 43.73Q119.21 43.90 119.90 43.85L119.84 43.79L119.94 43.89Q123.07 43.80 124.29 42.09L124.13 41.93L124.26 42.05Q124.79 41.32 124.87 40.05ZM115.60 38.17L115.67 38.24L115.59 38.16Q116.27 36.55 117.41 33.66L117.43 33.68L119.37 29.26L119.23 29.11Q119.19 30.86 118.78 34.45L118.82 34.50L118.78 34.45Q118.13 37.59 115.56 38.12ZM113.57 25.09L113.42 24.94L113.49 25.01Q113.98 23.09 114.72 22.48L114.77 22.53L114.79 22.55Q115.29 22.12 116.68 21.91L116.54 21.77L116.55 21.78Q114.79 25.77 112.79 30.75L112.80 30.76L112.80 30.76Q112.77 27.83 113.50 25.01Z"/><path fill="#222" d="M26.30 29.31L26.50 29.50L26.40 29.40Q24.44 29.28 23.11 30.81L23.14 30.84L23.14 30.84Q21.88 32.43 21.68 34.47L21.53 34.33L21.63 34.42Q21.34 36.58 22.50 37.62L22.46 37.58L22.56 37.68Q23.76 38.76 26.00 38.63L25.98 38.61L25.95 38.58Q28.14 38.36 29.32 37.63L29.41 37.72L29.27 37.58Q30.57 36.47 30.57 34.80L30.48 34.71L30.55 34.78Q30.57 34.39 30.49 33.98L30.38 33.88L30.51 34.00Q30.64 32.26 29.46 30.81L29.39 30.74L29.30 30.66Q28.18 29.27 26.39 29.40ZM26.04 41.40L25.93 41.30L25.92 41.28Q21.21 41.26 19.70 40.45L19.78 40.53L19.81 40.56Q18.58 39.62 18.38 37.78L18.36 37.77L18.52 37.92Q18.42 37.13 18.46 36.36L18.45 36.35L18.45 36.35Q18.52 35.23 18.52 34.74L18.65 34.87L18.58 34.80Q19.08 31.75 19.24 31.02L19.27 31.05L19.16 30.93Q19.76 28.97 20.66 27.46L20.62 27.42L20.58 27.38Q23.41 22.67 29.78 15.86L29.83 15.91L29.77 15.85Q32.67 15.57 35.04 14.72L35.01 14.69L34.96 14.64Q27.78 22.80 24.36 27.33L24.22 27.18L24.24 27.20Q25.26 26.63 26.65 26.63L26.63 26.62L26.63 26.62Q30.26 26.70 31.89 28.78L31.98 28.87L31.84 28.73Q33.39 30.60 33.75 34.40L33.70 34.34L33.79 34.43Q33.70 35.04 33.70 35.69L33.79 35.78L33.80 35.78Q33.70 39.03 31.34 40.18L31.35 40.19L31.46 40.30Q30.16 40.96 26.00 41.37ZM28.43 43.92L28.41 43.90L28.39 43.88Q29.79 43.85 31.91 43.93L31.96 43.99L31.84 43.86Q33.59 43.93 35.26 43.16L35.34 43.24L35.37 43.27Q36.45 42.32 36.45 40.40L36.45 40.39L36.50 40.45Q36.49 39.90 36.31 38.84L36.34 38.88L36.24 38.78Q36.10 37.76 36.10 37.27L36.06 37.23L36.11 37.28Q35.21 32.26 33.50 30.22L33.46 30.19L33.41 30.14Q33.37 30.05 33.20 29.81L33.21 29.81L32.96 29.65L32.86 29.58L32.91 29.63Q32.40 28.96 31.75 27.94L31.85 28.04L31.83 28.03Q30.83 26.98 28.71 26.50L28.77 26.55L28.81 26.60Q30.10 24.87 33.28 20.91L33.26 20.89L37.74 15.17L37.84 15.27Q36.16 16.20 33.59 17.02L33.49 16.92L33.51 16.94Q34.53 15.92 36.45 13.80L36.36 13.71L36.48 13.83Q33.77 14.83 29.60 15.44L29.61 15.45L29.62 15.45Q23.49 21.76 20.31 27.07L20.26 27.02L20.30 27.06Q18.76 29.85 18.15 36.54L18.17 36.55L18.21 36.59Q17.95 37.03 18.03 38.05L18.05 38.06L18.19 38.20Q18.24 40.05 19.42 41.02L19.42 41.03L19.46 41.06Q19.89 41.25 19.85 41.29L19.74 41.18L19.83 41.27Q20.25 42.26 21.11 42.71L21.09 42.70L21.11 42.72Q22.50 43.29 24.58 43.49L24.61 43.53L24.73 43.64Q24.63 43.55 28.39 43.87ZM28.21 31.91L28.09 31.79L28.13 31.83Q28.75 31.71 29.77 32.24L29.85 32.33L29.87 32.35Q30.18 33.31 30.18 34.00L30.22 34.05L30.13 33.95Q30.26 35.88 29.24 36.94L29.38 37.07L29.43 37.13Q28.12 37.74 25.88 38.06L25.97 38.16L25.92 38.10Q24.43 38.17 23.86 37.88L23.82 37.84L23.78 37.80Q23.68 37.41 23.68 37.09L23.59 37.00L23.65 37.06Q23.31 33.46 26.45 32.07L26.61 32.23L26.55 32.17Q27.42 31.86 28.24 31.94Z"/><path d="M18 41 C76 24,61 19,142 41" stroke="#666" fill="none"/><path fill="#333" d="M52.63 41.52L52.46 41.35L52.53 41.42Q51.08 41.56 49.41 41.11L49.35 41.05L49.34 41.04Q47.97 40.00 47.81 38.24L47.93 38.37L47.87 38.30Q47.79 38.07 48.00 35.25L48.15 35.41L48.06 35.31Q49.22 35.16 51.38 34.76L51.24 34.62L51.19 35.59L51.06 35.46Q50.84 37.40 52.35 38.01L52.28 37.94L52.38 38.04Q53.26 38.43 55.50 38.43L55.46 38.40L55.51 38.44Q57.10 38.16 57.31 38.08L57.39 38.16L57.31 38.08Q58.42 38.04 59.19 37.51L59.08 37.41L59.11 37.43Q60.57 36.36 60.36 34.12L60.37 34.13L60.35 34.10Q60.24 31.59 58.38 29.92L58.33 29.87L58.43 29.96Q56.57 28.29 53.92 28.29L53.94 28.31L53.90 28.02L53.93 28.05Q54.19 27.86 55.13 27.78L55.13 27.78L55.25 27.90Q57.32 27.81 58.79 26.49L58.66 26.36L58.61 26.31Q60.26 25.16 60.42 23.16L60.32 23.06L60.30 23.04Q60.50 22.79 60.50 22.42L60.47 22.40L60.39 22.32Q60.44 20.73 58.97 19.75L59.04 19.83L58.91 19.69Q57.75 18.98 56.04 19.10L55.88 18.94L55.89 18.96Q54.52 18.81 53.21 19.26L53.22 19.26L53.21 19.25Q51.79 19.96 51.47 21.18L51.32 21.04L51.37 21.08Q51.08 21.82 51.16 22.63L51.28 22.75L51.28 22.75Q50.12 22.44 47.91 21.67L47.96 21.71L48.03 21.78Q47.76 19.97 47.80 19.07L47.82 19.09L47.64 18.91Q47.84 17.36 48.99 16.62L48.97 16.60L48.95 16.58Q50.55 16.02 52.26 16.02L52.31 16.08L52.28 16.04Q55.61 15.94 58.99 16.23L58.94 16.17L58.91 16.14Q64.43 16.69 64.11 20.73L64.11 20.73L64.03 20.65Q64.00 22.30 63.47 23.97L63.52 24.02L63.55 24.04Q62.48 27.26 59.95 28.24L60.07 28.36L60.05 28.34Q62.77 28.81 63.42 32.40L63.49 32.47L63.50 32.48Q63.68 33.64 63.76 35.80L63.85 35.89L63.71 35.76Q64.03 40.68 59.09 41.17L58.90 40.97L59.03 41.11Q58.13 41.07 52.47 41.35ZM58.11 43.82L58.06 43.76L58.24 43.94Q58.77 43.86 61.83 43.95L61.87 43.99L61.78 43.90Q63.70 44.02 65.45 43.33L65.54 43.42L65.41 43.28Q66.81 42.40 66.61 40.53L66.49 40.40L66.57 40.48Q66.39 39.00 66.07 37.13L66.12 37.18L66.10 37.16Q65.37 32.39 63.29 30.64L63.15 30.49L62.97 30.11L63.05 30.16L62.91 30.02Q64.97 28.64 65.78 23.95L65.75 23.92L65.67 23.85Q65.73 23.37 65.85 22.35L65.80 22.30L65.86 22.36Q65.94 21.55 65.86 20.81L65.83 20.78L65.84 20.79Q65.71 19.03 64.33 18.30L64.26 18.23L64.21 18.27L64.18 18.23Q63.79 17.11 62.57 16.54L62.65 16.63L62.68 16.66Q61.04 15.90 55.53 15.58L55.55 15.60L55.53 15.58Q53.75 15.52 52.04 15.52L51.92 15.40L52.01 15.49Q50.30 15.48 48.66 16.18L48.66 16.17L48.60 16.12Q47.37 17.01 47.37 18.88L47.40 18.91L47.37 18.88Q47.40 18.46 47.69 22.05L47.70 22.06L47.58 21.95Q48.02 22.14 49.78 22.80L49.64 22.66L49.80 22.82Q49.70 23.29 49.66 23.82L49.69 23.86L49.60 23.76Q49.77 24.47 49.82 25.04L49.65 24.87L49.65 24.88Q51.56 25.28 53.73 25.40L53.74 25.41L53.77 25.45Q53.78 23.37 54.96 22.47L54.88 22.39L54.98 22.49Q55.84 21.76 58.00 21.52L57.99 21.50L57.93 21.44Q59.19 21.48 59.80 21.69L59.87 21.76L59.74 21.63Q59.91 21.87 59.95 22.00L59.95 22.00L59.97 22.22L60.02 22.76L60.06 22.80Q60.04 22.99 60.00 23.15L60.05 23.20L59.90 23.05Q59.86 24.92 58.22 26.19L58.27 26.24L58.21 26.18Q57.21 27.13 55.05 27.33L55.12 27.41L55.16 27.44Q54.33 27.55 53.39 27.55L53.39 27.55L53.49 27.65Q53.51 28.00 53.67 28.73L53.64 28.70L53.54 28.60Q55.44 28.62 56.99 29.39L57.07 29.47L56.82 29.35L55.29 29.70L55.25 29.66Q55.32 30.05 55.44 30.71L55.32 30.59L55.35 30.61Q57.68 30.58 59.52 32.01L59.56 32.05L59.54 32.03Q59.83 32.48 60.16 34.24L60.13 34.21L60.18 34.26Q60.34 37.36 57.20 37.81L57.12 37.73L57.07 37.68Q54.96 38.10 54.35 38.06L54.22 37.92L54.40 38.10Q53.73 37.80 53.15 37.72L53.21 37.77L53.32 37.40L53.42 36.88L53.48 36.49L53.42 36.07L53.35 36.00Q52.34 36.09 51.49 36.30L51.48 36.29L51.63 36.43Q51.54 36.14 51.54 35.94L51.44 35.84L51.58 35.98Q51.60 35.76 51.60 35.51L51.59 35.50L51.49 35.40Q51.53 34.95 51.69 34.18L51.79 34.27L51.81 34.29Q49.82 34.55 47.82 34.92L47.72 34.81L47.81 34.90Q47.84 35.47 47.72 36.67L47.73 36.68L47.74 36.69Q47.44 37.71 47.44 38.37L47.58 38.50L47.63 38.55Q47.63 40.68 49.10 41.50L49.02 41.42L49.07 41.46Q50.77 44.02 55.83 43.82L55.67 43.65L55.74 43.73Q56.58 43.75 58.21 43.92Z"/><path fill="#222" d="M85.77 29.57L85.73 29.54L85.59 29.40Q83.78 29.58 82.47 31.01L82.34 30.88L82.36 30.90Q81.00 32.27 80.84 34.31L80.91 34.39L80.93 34.40Q80.65 36.61 81.96 37.69L81.99 37.73L81.97 37.71Q83.37 38.88 85.65 38.80L85.56 38.71L85.52 38.67Q88.18 38.67 89.20 37.65L89.05 37.51L89.18 37.63Q90.22 36.02 90.09 34.06L90.08 34.05L90.01 33.98Q90.01 32.11 88.85 30.82L88.74 30.71L88.83 30.80Q87.58 29.42 85.62 29.42ZM85.57 19.30L85.56 19.29L85.65 19.38Q84.08 19.20 82.66 19.73L82.71 19.79L82.76 19.84Q81.39 20.71 81.63 22.71L81.59 22.67L81.53 22.61Q82.13 26.67 85.72 26.67L85.60 26.55L85.76 26.72Q87.34 26.83 88.41 25.60L88.40 25.60L88.40 25.60Q89.57 24.49 89.61 22.82L89.53 22.73L89.43 22.63Q89.62 20.87 88.85 20.21L88.75 20.11L88.72 20.09Q87.05 19.31 85.66 19.39ZM85.38 41.42L85.34 41.39L82.01 41.31L82.11 41.42Q80.50 41.44 79.08 40.50L79.12 40.54L79.13 40.55Q77.62 39.30 77.79 36.24L77.82 36.27L77.67 36.12Q78.23 28.85 82.10 27.79L82.12 27.81L82.10 27.79Q79.71 26.87 78.29 21.11L78.29 21.12L78.31 21.14Q77.92 19.60 78.00 18.75L78.02 18.76L77.96 18.71Q78.27 16.40 82.22 16.36L82.25 16.39L82.31 16.45Q86.67 16.20 88.22 16.41L88.20 16.39L88.33 16.51Q92.34 16.98 92.83 19.14L92.80 19.11L92.97 19.27Q93.09 19.93 93.09 20.34L92.96 20.20L93.00 20.24Q92.98 20.97 92.78 21.62L92.77 21.61L92.79 21.62Q92.09 26.10 88.95 27.74L89.09 27.88L89.10 27.89Q92.74 28.64 93.27 34.31L93.22 34.25L93.31 34.35Q93.27 34.47 93.31 35.85L93.37 35.92L93.35 35.89Q93.39 38.79 91.68 39.93L91.71 39.96L91.67 39.92Q90.21 40.87 85.31 41.36ZM87.85 43.93L87.82 43.91L91.42 44.00L91.43 44.00Q93.24 44.06 94.87 43.29L94.86 43.27L94.93 43.34Q96.14 42.56 96.23 40.56L96.18 40.52L96.13 40.47Q96.28 39.39 95.87 37.31L95.76 37.20L95.84 37.28Q94.77 32.21 92.53 30.22L92.61 30.30L92.27 29.76L92.24 29.64L92.08 29.36L91.99 29.27Q93.79 27.85 94.77 23.41L94.66 23.29L94.79 23.43Q94.75 22.98 94.84 22.08L94.89 22.13L94.80 22.05Q94.90 21.33 94.81 20.67L94.81 20.67L94.73 20.59Q94.57 19.04 93.30 18.51L93.46 18.67L93.41 18.58L93.13 18.37L93.30 18.55Q92.89 17.65 91.63 16.79L91.74 16.91L91.63 16.76L91.74 16.86Q89.55 16.06 85.18 15.85L85.14 15.81L85.22 15.89Q83.53 15.75 82.06 15.87L82.16 15.97L82.16 15.97Q81.29 16.00 79.90 16.16L79.90 16.16L79.81 16.07Q77.68 16.43 77.44 18.19L77.61 18.36L77.62 18.36Q77.46 18.78 77.50 19.63L77.51 19.64L77.61 19.74Q77.74 20.33 78.35 22.85L78.25 22.75L78.23 22.73Q79.06 26.17 80.93 27.60L81.07 27.73L81.00 27.66L81.13 27.79Q78.08 29.10 77.51 34.65L77.45 34.59L77.57 34.72Q77.25 36.96 77.25 37.94L77.33 38.02L77.40 38.09Q77.42 39.95 78.69 40.93L78.72 40.96L78.69 40.94Q78.81 41.01 79.09 41.21L78.97 41.09L79.06 41.18Q80.27 43.74 87.90 43.99ZM87.53 32.11L87.45 32.03L87.42 32.00Q88.46 31.98 89.40 32.47L89.36 32.43L89.33 32.40Q89.81 33.54 89.77 34.11L89.67 34.01L89.79 34.12Q89.76 34.38 89.76 34.71L89.71 34.66L89.73 34.68Q89.73 37.21 87.28 38.11L87.40 38.22L87.40 38.22Q86.49 38.49 85.63 38.37L85.56 38.30L85.69 38.43Q84.50 38.54 83.27 38.05L83.22 37.99L83.26 38.04Q82.87 37.24 82.95 36.18L83.00 36.23L83.01 36.24Q83.09 34.44 84.37 33.14L84.52 33.28L84.42 33.19Q85.64 31.81 87.35 31.94ZM87.71 21.90L87.70 21.88L87.63 21.81Q88.55 21.76 89.13 21.92L89.14 21.93L89.19 22.84L89.06 22.71Q89.04 24.20 88.06 25.28L88.19 25.41L88.22 25.44Q87.23 26.51 85.77 26.31L85.68 26.23L85.76 26.30Q84.68 26.29 84.24 26.04L84.07 25.88L84.26 26.06Q84.19 25.75 84.07 25.02L84.03 24.99L84.06 25.01Q83.71 23.44 85.02 22.54L84.99 22.51L85.12 22.65Q86.24 21.89 87.75 21.93Z"/></svg>