<svg xmlns="http://www.w3.org/2000/svg" width="150" height="50" viewBox="0,0,150,50"><path fill="#333" d="M23.66 41.49L23.65 41.48L23.70 41.53Q19.31 41.76 18.25 39.27L18.18 39.19L18.13 39.15Q18.98 38.16 20.65 36.24L20.68 36.27L20.63 36.22Q21.23 38.45 24.45 38.57L24.50 38.62L24.55 38.67Q28.09 38.66 29.84 37.23L29.77 37.16L29.84 37.23Q31.30 35.47 31.22 32.58L31.31 32.66L31.31 32.67Q31.12 27.21 25.98 27.45L26.00 27.47L26.06 27.54Q22.87 27.53 21.00 28.88L21.04 28.92L20.73 28.77L20.57 28.70L20.47 28.60Q20.80 25.17 20.67 22.23L20.72 22.28L20.82 22.37Q20.68 19.55 20.31 16.00L20.16 15.85L20.28 15.96Q24.22 17.01 28.30 16.89L28.28 16.87L28.17 16.76Q32.39 16.82 36.22 15.47L36.26 15.51L35.65 17.14L35.60 17.09Q35.30 17.94 35.10 18.83L35.12 18.86L35.12 18.86Q31.65 19.83 27.49 19.83L27.58 19.93L27.52 19.86Q25.88 19.77 24.29 19.61L24.39 19.71L24.44 19.76Q24.24 20.37 23.87 25.15L23.99 25.27L23.91 25.18Q24.90 24.79 27.10 24.62L27.07 24.59L27.10 24.62Q31.10 24.87 32.65 26.66L32.64 26.65L32.66 26.67Q33.99 28.17 34.28 32.29L34.38 32.39L34.32 32.33Q34.68 36.89 33.37 39.05L33.26 38.94L33.24 38.92Q31.07 40.95 27.52 41.19L27.65 41.33L27.64 41.31Q26.46 41.28 23.61 41.44ZM30.13 43.93L30.21 44.01L30.03 43.83Q33.83 44.03 35.87 42.85L35.78 42.77L35.89 42.87Q36.88 41.17 36.88 38.92L36.84 38.89L36.92 38.96Q36.83 35.57 35.81 31.17L35.93 31.29L35.80 31.16Q35.54 29.43 34.24 27.93L34.11 27.80L34.13 27.86L34.00 27.65L33.55 27.36L33.67 27.48Q33.28 26.64 32.59 25.91L32.52 25.84L32.53 25.89L32.55 25.91Q30.86 24.06 26.91 24.06L26.95 24.11L26.69 24.13L26.67 24.11Q26.86 23.60 27.06 22.42L26.93 22.29L26.94 22.30Q32.35 22.48 36.67 20.73L36.65 20.71L36.69 20.75Q37.05 19.15 38.07 16.14L38.20 16.27L35.80 17.13L35.79 17.12Q36.24 15.93 36.77 14.71L36.83 14.77L36.76 14.71Q32.76 16.37 28.35 16.45L28.22 16.32L28.30 16.40Q23.89 16.51 19.65 15.33L19.67 15.36L19.73 15.42Q20.42 20.10 20.42 24.83L20.43 24.84L20.45 24.86Q20.43 26.89 20.31 28.93L20.31 28.92L20.31 28.92Q20.62 29.15 21.23 29.48L21.07 29.32L21.09 29.34Q21.53 29.17 22.22 28.80L22.13 28.70L22.21 28.79Q22.23 29.67 21.99 31.30L21.87 31.17L21.85 31.16Q22.44 31.50 22.89 31.75L22.79 31.65L22.86 31.72Q25.87 29.87 27.86 29.87L27.87 29.88L27.90 29.91Q29.24 29.82 30.50 30.51L30.43 30.44L30.56 30.57Q30.88 31.63 30.92 32.65L30.82 32.54L30.99 32.71Q30.92 35.34 29.82 36.52L29.91 36.61L29.93 36.63Q28.38 37.85 25.97 38.09L25.99 38.11L25.99 38.11Q25.07 38.29 24.33 38.21L24.26 38.13L24.31 38.18Q23.44 38.09 22.62 37.72L22.61 37.71L22.52 37.42L22.45 37.59L22.37 37.51Q21.51 36.98 20.94 35.55L20.91 35.52L21.02 35.63Q19.60 37.15 17.81 39.44L17.64 39.26L17.77 39.40Q18.14 40.14 19.04 41.16L19.01 41.13L18.88 41.00Q20.04 42.98 23.06 43.51L23.12 43.56L23.16 43.60Q24.47 43.90 30.22 44.02Z"/><path fill="#111" d="M82.24 41.53L82.19 41.48L82.19 41.48Q80.69 41.57 79.02 41.12L78.89 40.99L78.92 41.02Q77.63 40.06 77.47 38.30L77.53 38.37L77.47 38.31Q77.47 38.14 77.67 35.33L77.58 35.24L77.70 35.36Q78.70 35.05 80.86 34.64L81.02 34.80L80.67 35.47L80.72 35.52Q80.45 37.41 81.95 38.02L82.02 38.09L81.96 38.03Q82.81 38.39 85.06 38.39L85.12 38.45L84.98 38.31Q86.75 38.21 86.96 38.12L87.01 38.18L86.93 38.10Q87.92 37.95 88.69 37.42L88.67 37.39L88.76 37.49Q90.25 36.45 90.05 34.20L90.12 34.27L90.03 34.18Q89.91 31.66 88.06 29.99L88.01 29.94L87.91 29.85Q86.18 28.29 83.53 28.29L83.37 28.13L83.38 27.90L83.44 27.96Q83.96 28.03 84.90 27.95L84.74 27.79L84.79 27.85Q86.75 27.64 88.22 26.31L88.33 26.43L88.39 26.49Q89.85 25.16 90.02 23.16L89.89 23.03L89.92 23.07Q89.99 22.68 89.99 22.31L89.97 22.29L90.07 22.40Q90.03 20.73 88.56 19.75L88.58 19.76L88.55 19.73Q87.25 18.88 85.53 19.00L85.63 19.10L85.51 18.98Q84.18 18.87 82.87 19.32L82.82 19.27L82.90 19.35Q81.35 19.92 81.03 21.14L81.00 21.11L80.95 21.07Q80.68 21.82 80.76 22.63L80.92 22.79L80.93 22.80Q79.66 22.38 77.45 21.61L77.49 21.65L77.47 21.62Q77.27 19.87 77.31 18.97L77.30 18.97L77.39 19.06Q77.50 17.41 78.64 16.67L78.67 16.71L78.60 16.63Q80.11 15.98 81.82 15.98L81.79 15.95L81.86 16.02Q85.23 15.96 88.62 16.25L88.69 16.33L88.68 16.32Q94.01 16.67 93.68 20.71L93.79 20.82L93.76 20.78Q93.69 22.38 93.16 24.06L92.99 23.88L93.15 24.05Q92.12 27.30 89.59 28.28L89.62 28.31L89.49 28.18Q92.41 28.85 93.06 32.44L93.03 32.42L93.09 32.47Q93.26 33.62 93.34 35.78L93.36 35.80L93.28 35.72Q93.60 40.65 88.66 41.14L88.58 41.06L88.69 41.17Q87.83 41.16 82.16 41.44ZM87.72 43.82L87.83 43.94L87.75 43.86Q88.45 43.94 91.50 44.02L91.52 44.03L91.53 44.04Q93.42 44.14 95.18 43.45L95.12 43.39L95.11 43.39Q96.41 42.40 96.21 40.52L96.17 40.49L96.09 40.41Q96.07 39.08 95.75 37.21L95.59 37.06L95.78 37.24Q94.88 32.30 92.80 30.55L92.79 30.54L92.71 30.26L92.53 30.03L92.51 30.01Q94.45 28.53 95.27 23.84L95.23 23.81L95.32 23.89Q95.26 23.30 95.38 22.28L95.41 22.31L95.37 22.27Q95.59 21.60 95.51 20.86L95.41 20.76L95.54 20.89Q95.29 19.01 93.90 18.27L93.84 18.21L93.79 18.24L93.76 18.22Q93.47 17.18 92.24 16.61L92.24 16.61L92.24 16.61Q90.58 15.85 85.08 15.52L85.22 15.67L85.19 15.64Q83.24 15.40 81.53 15.40L81.67 15.55L81.67 15.55Q79.97 15.56 78.34 16.25L78.19 16.10L78.24 16.15Q76.91 16.95 76.91 18.82L76.96 18.87L76.91 18.82Q77.02 18.48 77.30 22.07L77.25 22.02L77.20 21.97Q77.57 22.10 79.33 22.75L79.34 22.76L79.44 22.86Q79.24 23.23 79.20 23.76L79.30 23.86L79.31 23.87Q79.29 24.38 79.33 24.95L79.26 24.89L79.43 25.05Q81.34 25.45 83.50 25.57L83.37 25.44L83.33 25.40Q83.27 23.27 84.46 22.37L84.48 22.39L84.45 22.37Q85.44 21.76 87.60 21.52L87.53 21.45L87.51 21.42Q88.90 21.59 89.51 21.79L89.46 21.75L89.50 21.78Q89.37 21.74 89.41 21.86L89.51 21.96L89.49 22.14L89.59 22.73L89.66 22.81Q89.66 23.00 89.62 23.17L89.52 23.07L89.49 23.03Q89.53 24.99 87.90 26.26L87.83 26.19L87.85 26.21Q86.86 27.18 84.70 27.38L84.76 27.45L84.68 27.36Q83.88 27.50 82.94 27.50L83.10 27.66L83.06 27.63Q83.04 27.93 83.21 28.67L83.24 28.70L83.16 28.62Q85.19 28.77 86.74 29.55L86.71 29.51L86.50 29.43L84.85 29.65L84.86 29.66Q84.82 29.95 84.94 30.60L85.05 30.72L85.09 30.75Q87.25 30.54 89.08 31.97L89.14 32.03L89.07 31.96Q89.46 32.51 89.78 34.26L89.72 34.20L89.73 34.21Q89.84 37.26 86.70 37.71L86.81 37.82L86.77 37.77Q84.57 38.10 83.96 38.06L83.88 37.99L83.89 37.99Q83.46 37.93 82.89 37.85L82.93 37.89L82.82 37.29L82.97 36.83L83.07 36.48L83.05 36.09L82.96 36.01Q81.96 36.11 81.11 36.31L81.15 36.36L81.25 36.46Q81.17 36.18 81.17 35.97L81.04 35.84L81.18 35.98Q81.20 35.75 81.20 35.51L81.08 35.39L81.26 35.57Q81.20 35.02 81.37 34.25L81.35 34.23L81.30 34.18Q79.29 34.41 77.29 34.78L77.37 34.86L77.30 34.79Q77.46 35.48 77.34 36.69L77.35 36.69L77.29 36.64Q77.14 37.82 77.14 38.47L77.06 38.38L77.13 38.46Q77.28 40.73 78.75 41.55L78.75 41.54L78.78 41.58Q80.32 43.97 85.38 43.77L85.30 43.69L85.28 43.67Q86.11 43.69 87.74 43.85Z"/><path d="M7 17 C58 7,77 43,129 15" stroke="#666" fill="none"/><path fill="#111" d="M56.11 29.51L56.03 29.43L56.11 29.52Q54.07 29.48 52.77 30.90L52.85 30.99L52.79 30.93Q51.50 32.38 51.34 34.42L51.32 34.40L51.30 34.37Q51.01 36.58 52.32 37.66L52.36 37.70L52.40 37.73Q53.75 38.86 56.03 38.78L55.91 38.66L56.07 38.82Q58.41 38.51 59.43 37.49L59.58 37.64L59.57 37.63Q60.67 36.08 60.55 34.12L60.42 33.99L60.46 34.03Q60.28 31.97 59.12 30.69L59.30 30.87L59.23 30.80Q58.06 29.51 56.10 29.51ZM56.11 19.44L55.97 19.30L56.10 19.43Q54.53 19.25 53.10 19.78L53.18 19.86L53.12 19.80Q51.73 20.65 51.97 22.65L52.05 22.72L52.03 22.70Q52.51 26.65 56.10 26.65L56.08 26.63L56.16 26.71Q57.79 26.88 58.85 25.65L58.90 25.70L58.76 25.56Q59.86 24.37 59.90 22.70L59.85 22.65L59.99 22.79Q59.99 20.84 59.22 20.18L59.21 20.17L59.17 20.14Q57.34 19.21 55.96 19.29ZM55.71 41.35L55.77 41.41L52.54 41.45L52.50 41.40Q50.90 41.44 49.47 40.50L49.34 40.37L49.48 40.51Q47.92 39.19 48.08 36.13L48.07 36.12L48.17 36.22Q48.55 28.77 52.42 27.70L52.51 27.80L52.54 27.82Q50.09 26.85 48.67 21.09L48.58 21.01L48.71 21.14Q48.33 19.62 48.41 18.76L48.31 18.66L48.25 18.60Q48.72 16.46 52.68 16.42L52.63 16.37L52.56 16.30Q57.16 16.29 58.71 16.49L58.69 16.47L58.68 16.47Q62.90 17.14 63.39 19.30L63.40 19.31L63.33 19.24Q63.35 19.79 63.35 20.19L63.48 20.33L63.52 20.36Q63.39 20.97 63.18 21.62L63.30 21.73L63.27 21.70Q62.62 26.24 59.48 27.87L59.39 27.78L59.36 27.75Q63.23 28.72 63.76 34.39L63.80 34.43L63.80 34.43Q63.71 34.50 63.75 35.89L63.73 35.87L63.82 35.96Q63.79 38.78 62.07 39.93L62.03 39.89L62.15 40.00Q60.73 40.99 55.83 41.48ZM58.24 43.93L58.13 43.81L61.70 43.88L61.79 43.96Q63.56 43.98 65.19 43.21L65.23 43.25L65.27 43.28Q66.44 42.45 66.52 40.45L66.48 40.41L66.56 40.50Q66.61 39.33 66.20 37.25L66.22 37.27L66.15 37.19Q65.25 32.30 63.01 30.30L62.97 30.26L62.69 29.78L62.54 29.55L62.42 29.30L62.41 29.30Q64.06 27.72 65.04 23.27L65.10 23.33L65.17 23.41Q65.09 22.91 65.17 22.01L65.29 22.14L65.12 21.97Q65.23 21.26 65.15 20.61L65.27 20.73L65.30 20.76Q64.98 19.06 63.72 18.53L63.84 18.65L63.84 18.60L63.72 18.57L63.67 18.52Q63.30 17.66 62.04 16.81L62.13 16.89L62.04 16.76L62.05 16.77Q59.95 16.07 55.59 15.86L55.58 15.85L55.62 15.89Q53.98 15.80 52.51 15.93L52.49 15.90L52.58 16.00Q51.56 15.87 50.17 16.03L50.23 16.09L50.16 16.02Q48.13 16.48 47.88 18.23L47.83 18.18L47.97 18.32Q47.92 18.84 47.97 19.70L47.88 19.61L47.85 19.58Q48.00 20.18 48.61 22.71L48.59 22.69L48.58 22.68Q49.58 26.29 51.46 27.72L51.40 27.66L51.52 27.79L51.50 27.76Q48.42 29.04 47.85 34.59L47.89 34.63L47.99 34.73Q47.76 37.07 47.76 38.05L47.76 38.06L47.72 38.01Q47.77 39.90 49.03 40.88L49.03 40.88L49.12 40.96Q49.17 40.97 49.45 41.17L49.50 41.22L49.53 41.25Q50.67 43.73 58.29 43.98ZM57.81 31.99L57.81 31.99L57.86 32.04Q58.89 32.01 59.83 32.50L59.78 32.45L59.79 32.46Q60.23 33.55 60.18 34.12L60.16 34.09L60.11 34.04Q60.08 34.31 60.08 34.63L60.18 34.73L60.22 34.77Q60.16 37.24 57.72 38.14L57.64 38.07L57.66 38.08Q56.79 38.39 55.93 38.27L55.94 38.28L56.00 38.34Q54.81 38.46 53.59 37.97L53.53 37.90L53.58 37.96Q53.28 37.25 53.36 36.19L53.40 36.23L53.35 36.18Q53.59 34.54 54.88 33.24L54.76 33.13L54.79 33.15Q56.11 31.89 57.83 32.01ZM58.12 21.90L57.98 21.76L58.00 21.78Q58.88 21.68 59.45 21.84L59.48 21.87L59.60 22.85L59.51 22.76Q59.50 24.26 58.52 25.34L58.57 25.39L58.63 25.45Q57.52 26.40 56.05 26.19L56.17 26.31L56.18 26.32Q54.95 26.16 54.50 25.91L54.52 25.93L54.53 25.94Q54.56 25.72 54.44 24.99L54.38 24.94L54.50 25.06Q54.12 23.45 55.43 22.55L55.40 22.52L55.48 22.60Q56.51 21.76 58.02 21.80Z"/><path fill="#111" d="M111.75 41.43L111.73 41.41L111.68 41.37Q110.27 41.55 108.60 41.10L108.50 41.00L108.57 41.07Q107.18 40.00 107.01 38.25L107.10 38.34L107.15 38.38Q107.15 38.23 107.36 35.41L107.24 35.30L107.22 35.28Q108.31 35.06 110.47 34.65L110.54 34.72L110.25 35.45L110.38 35.58Q109.96 37.32 111.47 37.93L111.57 38.03L111.63 38.10Q112.41 38.39 114.66 38.39L114.66 38.39L114.63 38.36Q116.38 38.23 116.58 38.15L116.62 38.19L116.60 38.17Q117.59 38.02 118.36 37.49L118.30 37.42L118.29 37.41Q119.82 36.41 119.61 34.17L119.72 34.27L119.57 34.12Q119.50 31.65 117.65 29.98L117.59 29.92L117.56 29.89Q115.70 28.21 113.05 28.21L113.12 28.29L113.02 27.94L112.97 27.89Q113.52 27.99 114.46 27.91L114.40 27.85L114.47 27.92Q116.53 27.82 118.00 26.50L117.85 26.35L117.86 26.36Q119.41 25.11 119.57 23.12L119.52 23.06L119.55 23.09Q119.70 22.80 119.70 22.43L119.67 22.39L119.60 22.33Q119.67 20.77 118.21 19.79L118.18 19.76L118.25 19.84Q116.95 18.98 115.23 19.10L115.23 19.10L115.15 19.02Q113.73 18.82 112.43 19.27L112.36 19.20L112.40 19.25Q110.87 19.83 110.54 21.06L110.57 21.08L110.53 21.05Q110.42 21.95 110.50 22.77L110.53 22.80L110.54 22.81Q109.29 22.42 107.09 21.64L107.20 21.75L107.24 21.79Q106.94 19.94 106.98 19.04L106.87 18.93L106.85 18.92Q107.11 17.42 108.25 16.69L108.13 16.56L108.16 16.60Q109.75 16.02 111.46 16.02L111.48 16.04L111.35 15.91Q114.81 15.94 118.19 16.23L118.17 16.20L118.28 16.32Q123.68 16.74 123.36 20.78L123.24 20.66L123.39 20.81Q123.27 22.36 122.74 24.03L122.63 23.93L122.78 24.08Q121.79 27.37 119.26 28.35L119.24 28.33L119.09 28.18Q122.05 28.89 122.70 32.48L122.73 32.51L122.66 32.44Q122.80 33.56 122.88 35.72L122.92 35.76L123.01 35.85Q123.18 40.63 118.25 41.12L118.13 41.00L118.13 41.01Q117.51 41.24 111.84 41.53ZM117.28 43.78L117.25 43.75L117.26 43.76Q118.02 43.91 121.08 43.99L121.08 44.00L121.12 44.03Q122.87 43.99 124.62 43.30L124.72 43.40L124.72 43.39Q125.89 42.28 125.69 40.41L125.75 40.47L125.69 40.40Q125.66 39.07 125.33 37.20L125.37 37.23L125.37 37.23Q124.48 32.30 122.40 30.55L122.38 30.53L122.27 30.21L122.14 30.05L122.12 30.03Q124.01 28.49 124.82 23.80L124.97 23.94L124.81 23.78Q124.98 23.43 125.11 22.41L124.99 22.29L124.96 22.26Q125.21 21.61 125.13 20.88L125.01 20.76L125.05 20.80Q124.79 18.91 123.40 18.18L123.50 18.27L123.40 18.26L123.45 18.31Q123.04 17.16 121.82 16.59L121.85 16.62L121.88 16.65Q120.21 15.88 114.70 15.55L114.80 15.65L114.67 15.52Q112.97 15.53 111.26 15.53L111.28 15.56L111.15 15.43Q109.44 15.43 107.81 16.12L107.88 16.19L107.93 16.24Q106.52 16.96 106.52 18.83L106.65 18.96L106.52 18.83Q106.65 18.51 106.93 22.10L106.94 22.11L106.95 22.12Q107.23 22.15 108.98 22.80L109.02 22.84L108.89 22.71Q108.86 23.25 108.82 23.78L108.86 23.82L108.89 23.85Q108.82 24.31 108.86 24.88L108.98 25.00L108.94 24.96Q110.81 25.32 112.97 25.44L112.93 25.40L112.94 25.41Q112.95 23.35 114.14 22.45L114.17 22.49L114.09 22.40Q114.94 21.66 117.10 21.41L117.22 21.54L117.24 21.55Q118.43 21.52 119.04 21.73L118.97 21.65L119.09 21.78Q119.10 21.86 119.14 21.98L119.09 21.94L119.19 22.24L119.16 22.70L119.30 22.84Q119.18 22.93 119.14 23.09L119.18 23.13L119.08 23.03Q119.10 24.97 117.47 26.23L117.40 26.16L117.48 26.24Q116.57 27.29 114.40 27.49L114.41 27.50L114.42 27.50Q113.62 27.64 112.68 27.64L112.63 27.59L112.51 27.48Q112.74 28.03 112.90 28.76L112.74 28.60L112.83 28.68Q114.64 28.63 116.19 29.40L116.29 29.50L116.05 29.38L114.48 29.68L114.48 29.69Q114.49 30.03 114.62 30.68L114.69 30.76L114.57 30.63Q116.90 30.60 118.74 32.03L118.79 32.08L118.69 31.97Q118.97 32.42 119.29 34.17L119.27 34.15L119.32 34.20Q119.50 37.32 116.36 37.77L116.26 37.67L116.42 37.83Q114.11 38.04 113.49 38.00L113.42 37.93L113.50 38.01Q113.03 37.90 112.46 37.82L112.37 37.74L112.43 37.30L112.58 36.84L112.69 36.50L112.59 36.04L112.68 36.13Q111.57 36.12 110.72 36.33L110.71 36.31L110.83 36.44Q110.82 36.22 110.82 36.01L110.66 35.86L110.78 35.98Q110.68 35.64 110.68 35.39L110.67 35.38L110.78 35.49Q110.82 35.04 110.99 34.27L110.89 34.18L110.88 34.17Q108.90 34.43 106.90 34.79L106.94 34.83L106.93 34.83Q106.89 35.31 106.77 36.51L106.76 36.51L106.88 36.62Q106.81 37.89 106.81 38.54L106.72 38.45L106.73 38.45Q106.77 40.62 108.24 41.44L108.27 41.46L108.19 41.38Q109.93 43.98 114.98 43.77L114.98 43.77L114.89 43.68Q115.62 43.59 117.25 43.76Z"/></svg>