<svg xmlns="http://www.w3.org/2000/svg" width="150" height="50" viewBox="0,0,150,50"><path fill="#222" d="M26.43 29.44L26.34 29.35L26.32 29.33Q24.50 29.35 23.18 30.88L23.06 30.76L23.05 30.75Q21.79 32.34 21.58 34.38L21.50 34.29L21.67 34.46Q21.32 36.57 22.48 37.61L22.51 37.63L22.46 37.58Q23.74 38.74 25.99 38.62L25.91 38.55L25.89 38.52Q28.18 38.41 29.36 37.67L29.24 37.54L29.32 37.63Q30.63 36.53 30.63 34.86L30.59 34.82L30.50 34.73Q30.66 34.48 30.58 34.07L30.57 34.06L30.51 34.01Q30.61 32.23 29.43 30.79L29.47 30.83L29.28 30.64Q28.19 29.28 26.40 29.41ZM26.02 41.38L26.00 41.36L25.88 41.24Q21.29 41.34 19.78 40.53L19.65 40.40L19.66 40.41Q18.57 39.61 18.37 37.77L18.42 37.82L18.41 37.82Q18.31 37.02 18.35 36.24L18.41 36.31L18.42 36.31Q18.66 35.37 18.66 34.88L18.60 34.82L18.55 34.77Q19.05 31.72 19.21 30.99L19.22 31.00L19.18 30.95Q19.80 29.01 20.70 27.50L20.68 27.48L20.67 27.47Q23.48 22.74 29.84 15.92L29.87 15.95L29.79 15.87Q32.71 15.61 35.08 14.75L34.95 14.62L35.14 14.81Q27.76 22.77 24.33 27.30L24.21 27.18L24.35 27.32Q25.35 26.72 26.74 26.72L26.66 26.64L26.72 26.71Q30.18 26.62 31.81 28.70L31.95 28.84L31.99 28.88Q33.42 30.63 33.78 34.43L33.76 34.40L33.70 34.35Q33.73 35.07 33.73 35.72L33.78 35.76L33.78 35.77Q33.68 39.02 31.32 40.16L31.47 40.31L31.32 40.16Q30.07 40.86 25.91 41.27ZM28.44 43.93L28.40 43.89L28.35 43.84Q29.86 43.92 31.98 44.00L31.91 43.93L31.99 44.01Q33.60 43.95 35.27 43.17L35.26 43.16L35.41 43.32Q36.58 42.44 36.58 40.52L36.43 40.38L36.45 40.39Q36.53 39.94 36.35 38.88L36.26 38.80L36.39 38.93Q36.09 37.75 36.09 37.26L36.24 37.41L36.16 37.33Q35.11 32.16 33.40 30.12L33.44 30.17L33.48 30.21Q33.32 30.00 33.15 29.76L33.23 29.83L32.84 29.52L32.84 29.56L32.83 29.55Q32.49 29.05 31.84 28.03L31.79 27.99L31.88 28.08Q30.77 26.92 28.65 26.43L28.82 26.61L28.74 26.53Q29.99 24.76 33.17 20.80L33.25 20.88L37.74 15.17L37.66 15.10Q36.06 16.11 33.49 16.92L33.49 16.92L33.43 16.86Q34.55 15.94 36.47 13.82L36.38 13.73L36.34 13.69Q33.81 14.87 29.65 15.48L29.68 15.51L29.71 15.55Q23.56 21.84 20.38 27.14L20.33 27.09L20.43 27.19Q18.69 29.77 18.08 36.46L18.13 36.51L18.11 36.49Q18.01 37.09 18.09 38.11L18.20 38.22L18.04 38.06Q18.14 39.95 19.33 40.93L19.32 40.93L19.32 40.93Q19.72 41.08 19.68 41.12L19.69 41.13L19.84 41.29Q20.22 42.24 21.08 42.69L21.01 42.62L20.93 42.54Q22.50 43.29 24.58 43.49L24.70 43.61L24.69 43.60Q24.67 43.58 28.42 43.91ZM28.12 31.82L28.16 31.86L28.16 31.87Q28.73 31.70 29.75 32.23L29.82 32.30L29.69 32.17Q30.22 33.35 30.22 34.05L30.07 33.89L30.10 33.92Q30.41 36.03 29.39 37.09L29.34 37.04L29.40 37.10Q28.29 37.90 26.05 38.23L26.05 38.23L26.01 38.19Q24.38 38.12 23.81 37.83L23.82 37.84L23.92 37.94Q23.54 37.27 23.54 36.95L23.70 37.11L23.65 37.06Q23.31 33.45 26.45 32.07L26.45 32.07L26.62 32.24Q27.27 31.71 28.09 31.79Z"/><path d="M21 17 C73 20,57 39,137 36" stroke="#333" fill="none"/><path fill="#444" d="M115.19 29.39L115.29 29.49L115.37 29.57Q113.23 29.44 111.93 30.87L112.03 30.97L111.91 30.85Q110.63 32.30 110.46 34.34L110.58 34.46L110.41 34.29Q110.23 36.59 111.53 37.67L111.57 37.71L111.70 37.84Q112.99 38.91 115.28 38.82L115.29 38.83L115.11 38.66Q117.77 38.66 118.79 37.64L118.80 37.66L118.68 37.53Q119.72 35.93 119.60 33.97L119.61 33.98L119.76 34.13Q119.63 32.12 118.47 30.84L118.49 30.86L118.35 30.72Q117.20 29.45 115.24 29.45ZM115.31 19.45L115.14 19.27L115.22 19.35Q113.71 19.22 112.28 19.75L112.25 19.73L112.30 19.78Q110.82 20.54 111.06 22.54L111.20 22.67L111.08 22.56Q111.69 26.63 115.28 26.63L115.32 26.67L115.30 26.65Q116.85 26.74 117.91 25.51L118.00 25.60L117.99 25.59Q119.13 24.45 119.17 22.77L119.09 22.70L119.07 22.67Q119.26 20.90 118.48 20.25L118.48 20.24L118.50 20.27Q116.53 19.19 115.14 19.27ZM114.97 41.41L114.86 41.31L111.76 41.46L111.62 41.33Q110.09 41.43 108.67 40.49L108.72 40.55L108.56 40.39Q107.24 39.31 107.40 36.25L107.28 36.13L107.30 36.15Q107.83 28.85 111.70 27.79L111.74 27.83L111.69 27.77Q109.18 26.73 107.75 20.98L107.78 21.01L107.81 21.04Q107.38 19.47 107.46 18.61L107.53 18.68L107.54 18.68Q107.93 16.47 111.89 16.43L111.91 16.45L111.84 16.38Q116.24 16.17 117.79 16.38L117.90 16.48L117.94 16.52Q122.08 17.12 122.57 19.28L122.42 19.13L122.55 19.26Q122.53 19.77 122.53 20.18L122.72 20.37L122.56 20.21Q122.66 21.04 122.46 21.69L122.34 21.58L122.41 21.65Q121.85 26.26 118.71 27.90L118.72 27.91L118.71 27.90Q122.37 28.67 122.90 34.34L122.88 34.31L122.96 34.40Q123.00 34.60 123.04 35.98L122.99 35.94L122.92 35.87Q123.03 38.83 121.32 39.97L121.34 40.00L121.40 40.06Q119.78 40.84 114.89 41.33ZM117.46 43.94L117.48 43.96L120.97 43.95L121.04 44.02Q122.78 44.01 124.42 43.23L124.45 43.26L124.43 43.24Q125.65 42.47 125.73 40.47L125.70 40.43L125.79 40.52Q125.72 39.23 125.31 37.15L125.47 37.31L125.38 37.22Q124.42 32.26 122.17 30.26L122.14 30.23L121.99 29.88L121.85 29.66L121.53 29.22L121.53 29.21Q123.42 27.88 124.40 23.44L124.37 23.41L124.33 23.37Q124.43 23.05 124.51 22.16L124.32 21.97L124.47 22.12Q124.41 21.24 124.33 20.59L124.44 20.70L124.40 20.66Q124.27 19.14 123.00 18.61L123.03 18.64L123.02 18.59L122.91 18.56L122.91 18.56Q122.47 17.63 121.21 16.78L121.27 16.83L121.31 16.84L121.35 16.88Q119.28 16.19 114.91 15.99L114.90 15.97L114.78 15.86Q113.13 15.76 111.66 15.88L111.77 15.99L111.63 15.84Q110.76 15.87 109.37 16.03L109.39 16.05L109.44 16.11Q107.38 16.53 107.14 18.29L107.11 18.26L107.16 18.31Q107.07 18.79 107.11 19.65L107.12 19.65L107.18 19.72Q107.34 20.32 107.95 22.85L107.76 22.66L107.91 22.81Q108.79 26.31 110.67 27.73L110.53 27.60L110.67 27.73L110.64 27.70Q107.74 29.17 107.17 34.72L107.15 34.69L107.05 34.59Q106.96 37.08 106.96 38.05L106.96 38.05L107.02 38.11Q107.08 40.00 108.34 40.98L108.17 40.81L108.28 40.92Q108.40 41.01 108.69 41.21L108.75 41.27L108.76 41.28Q109.87 43.74 117.50 43.98ZM117.10 32.09L117.00 31.98L117.01 32.00Q117.94 31.86 118.88 32.35L118.93 32.40L118.90 32.37Q119.36 33.48 119.32 34.05L119.33 34.07L119.24 33.98Q119.26 34.29 119.26 34.61L119.28 34.63L119.43 34.78Q119.34 37.22 116.90 38.12L116.99 38.22L116.82 38.04Q116.15 38.55 115.29 38.43L115.19 38.33L115.19 38.33Q114.02 38.46 112.79 37.97L112.88 38.06L112.70 37.87Q112.55 37.32 112.63 36.26L112.50 36.13L112.57 36.20Q112.80 34.55 114.08 33.25L114.11 33.27L114.05 33.21Q115.29 31.87 117.01 31.99ZM117.25 21.83L117.21 21.79L117.30 21.88Q118.06 21.66 118.63 21.82L118.75 21.94L118.68 22.73L118.61 22.66Q118.78 24.34 117.80 25.42L117.78 25.40L117.73 25.35Q116.65 26.33 115.19 26.13L115.27 26.22L115.22 26.16Q114.18 26.19 113.73 25.94L113.72 25.93L113.85 26.05Q113.65 25.62 113.53 24.88L113.56 24.91L113.56 24.91Q113.23 23.35 114.53 22.46L114.67 22.59L114.54 22.46Q115.82 21.87 117.33 21.92Z"/><path fill="#111" d="M82.06 41.35L82.14 41.42L82.21 41.50Q80.55 41.43 78.88 40.98L79.03 41.13L78.92 41.02Q77.70 40.13 77.54 38.37L77.49 38.33L77.54 38.38Q77.45 38.13 77.66 35.31L77.66 35.32L77.72 35.38Q78.79 35.14 80.95 34.73L80.83 34.61L80.78 35.58L80.74 35.54Q80.38 37.34 81.89 37.95L82.03 38.09L82.01 38.07Q82.77 38.35 85.02 38.35L84.96 38.29L84.96 38.30Q86.67 38.13 86.88 38.05L86.88 38.05L86.93 38.10Q88.01 38.04 88.78 37.51L88.66 37.39L88.69 37.41Q90.32 36.52 90.12 34.27L90.02 34.17L89.98 34.13Q89.83 31.58 87.97 29.90L87.92 29.85L87.87 29.80Q86.08 28.19 83.43 28.19L83.40 28.16L83.42 27.94L83.38 27.90Q83.87 27.94 84.80 27.86L84.87 27.92L84.73 27.78Q86.82 27.71 88.28 26.38L88.26 26.36L88.30 26.39Q89.85 25.15 90.01 23.16L89.96 23.10L89.92 23.07Q90.12 22.81 90.12 22.44L90.00 22.32L90.07 22.40Q90.01 20.70 88.54 19.72L88.49 19.67L88.52 19.70Q87.23 18.86 85.51 18.98L85.51 18.98L85.62 19.09Q84.18 18.87 82.88 19.32L82.92 19.36L82.90 19.35Q81.29 19.86 80.97 21.08L81.01 21.13L80.97 21.09Q80.68 21.81 80.76 22.63L80.88 22.74L80.94 22.81Q79.79 22.51 77.58 21.74L77.58 21.73L77.57 21.72Q77.26 19.87 77.30 18.97L77.37 19.04L77.42 19.09Q77.45 17.36 78.59 16.63L78.56 16.60L78.53 16.57Q80.08 15.96 81.80 15.96L81.83 15.99L81.84 16.00Q85.25 15.98 88.64 16.27L88.54 16.18L88.64 16.27Q94.00 16.66 93.67 20.69L93.68 20.71L93.65 20.67Q93.66 22.35 93.13 24.03L93.13 24.03L93.14 24.04Q92.06 27.24 89.53 28.22L89.51 28.20L89.63 28.32Q92.47 28.91 93.12 32.50L93.03 32.41L93.09 32.47Q93.30 33.66 93.38 35.82L93.37 35.81L93.41 35.85Q93.54 40.59 88.61 41.08L88.54 41.01L88.51 40.98Q87.77 41.10 82.10 41.38ZM87.78 43.89L87.83 43.93L87.82 43.92Q88.48 43.97 91.54 44.06L91.48 43.99L91.42 43.93Q93.39 44.11 95.14 43.42L95.01 43.28L95.05 43.32Q96.35 42.34 96.14 40.46L96.19 40.50L96.22 40.54Q96.03 39.04 95.71 37.17L95.77 37.24L95.70 37.17Q94.86 32.28 92.78 30.53L92.82 30.57L92.70 30.25L92.63 30.14L92.51 30.02Q94.49 28.57 95.31 23.88L95.25 23.82L95.20 23.78Q95.26 23.30 95.38 22.28L95.52 22.42L95.39 22.29Q95.48 21.48 95.40 20.75L95.40 20.75L95.53 20.88Q95.23 18.95 93.84 18.22L93.99 18.36L93.84 18.29L93.78 18.23Q93.55 17.27 92.33 16.70L92.36 16.73L92.29 16.66Q90.57 15.84 85.07 15.52L85.16 15.61L85.21 15.66Q83.25 15.41 81.54 15.41L81.58 15.46L81.66 15.53Q79.83 15.42 78.20 16.11L78.30 16.21L78.25 16.16Q76.91 16.95 76.91 18.82L76.90 18.81L76.89 18.80Q76.96 18.43 77.25 22.01L77.34 22.11L77.21 21.98Q77.68 22.20 79.44 22.86L79.34 22.76L79.41 22.83Q79.31 23.30 79.27 23.83L79.26 23.82L79.27 23.83Q79.33 24.42 79.37 24.99L79.24 24.86L79.38 25.00Q81.25 25.37 83.41 25.49L83.50 25.57L83.32 25.39Q83.30 23.29 84.48 22.40L84.52 22.43L84.60 22.52Q85.44 21.77 87.61 21.52L87.60 21.52L87.63 21.54Q88.72 21.42 89.34 21.62L89.46 21.75L89.38 21.66Q89.54 21.90 89.58 22.02L89.57 22.01L89.48 22.13L89.56 22.70L89.59 22.73Q89.56 22.91 89.52 23.07L89.58 23.13L89.50 23.05Q89.59 25.06 87.96 26.32L87.93 26.29L87.78 26.14Q86.95 27.27 84.79 27.48L84.66 27.35L84.76 27.44Q84.03 27.66 83.09 27.66L83.08 27.65L82.99 27.55Q83.08 27.96 83.24 28.70L83.27 28.73L83.17 28.63Q85.19 28.77 86.74 29.54L86.58 29.39L86.54 29.47L84.92 29.72L84.86 29.67Q84.91 30.04 85.03 30.70L84.91 30.57L85.06 30.72Q87.38 30.68 89.22 32.11L89.07 31.96L89.17 32.06Q89.28 32.33 89.61 34.09L89.73 34.21L89.63 34.11Q89.85 37.27 86.71 37.72L86.81 37.82L86.85 37.86Q84.60 38.13 83.99 38.09L83.82 37.92L83.94 38.05Q83.39 37.86 82.82 37.78L82.87 37.83L82.90 37.37L82.98 36.84L83.10 36.51L83.10 36.15L83.00 36.04Q82.13 36.27 81.27 36.48L81.12 36.33L81.10 36.30Q81.10 36.10 81.10 35.90L81.08 35.88L81.16 35.96Q81.16 35.72 81.16 35.47L81.23 35.54L81.26 35.57Q81.17 34.99 81.33 34.21L81.29 34.18L81.41 34.30Q79.37 34.50 77.38 34.87L77.48 34.97L77.42 34.91Q77.40 35.43 77.28 36.63L77.24 36.59L77.21 36.56Q77.14 37.82 77.14 38.47L77.20 38.53L77.04 38.37Q77.31 40.76 78.78 41.57L78.73 41.53L78.61 41.40Q80.24 43.90 85.30 43.69L85.27 43.66L85.40 43.78Q86.09 43.66 87.72 43.83Z"/><path fill="#222" d="M53.25 41.48L53.16 41.39L53.22 41.46Q48.97 41.82 47.91 39.33L47.83 39.25L47.84 39.25Q48.72 38.30 50.40 36.39L50.40 36.39L50.21 36.20Q50.90 38.52 54.12 38.64L54.08 38.60L54.08 38.60Q57.74 38.71 59.49 37.28L59.42 37.21L59.50 37.29Q60.96 35.53 60.88 32.63L60.89 32.64L60.84 32.59Q60.70 27.19 55.56 27.44L55.51 27.39L55.49 27.37Q52.63 27.69 50.75 29.04L50.59 28.87L50.34 28.78L50.01 28.53L50.01 28.53Q50.39 25.17 50.27 22.23L50.29 22.25L50.34 22.30Q50.25 19.51 49.88 15.96L49.90 15.98L49.83 15.92Q53.83 17.02 57.91 16.90L57.88 16.87L57.88 16.87Q61.85 16.67 65.68 15.33L65.67 15.32L65.13 17.02L65.10 16.99Q64.89 17.93 64.69 18.82L64.63 18.77L64.70 18.84Q61.32 19.91 57.16 19.91L57.22 19.96L57.04 19.78Q55.56 19.86 53.97 19.69L53.99 19.71L53.97 19.69Q53.95 20.48 53.58 25.26L53.48 25.16L53.46 25.14Q54.49 24.77 56.69 24.61L56.69 24.61L56.63 24.55Q60.64 24.80 62.19 26.60L62.13 26.54L62.18 26.59Q63.59 28.17 63.88 32.29L63.97 32.38L63.84 32.25Q64.19 36.80 62.88 38.96L62.97 39.05L62.92 39.00Q60.71 40.99 57.16 41.23L57.18 41.26L57.14 41.21Q56.15 41.36 53.29 41.53ZM59.73 43.93L59.83 44.02L59.71 43.90Q63.37 43.98 65.41 42.80L65.40 42.79L65.40 42.78Q66.56 41.25 66.56 39.01L66.48 38.93L66.47 38.92Q66.41 35.56 65.39 31.15L65.55 31.31L65.39 31.15Q65.07 29.36 63.76 27.85L63.77 27.86L63.74 27.86L63.53 27.57L63.25 27.46L63.11 27.32Q62.87 26.63 62.17 25.89L62.17 25.89L62.15 25.91L62.09 25.86Q60.60 24.19 56.64 24.19L56.65 24.20L56.39 24.23L56.21 24.05Q56.30 23.44 56.50 22.26L56.64 22.40L56.65 22.41Q61.85 22.39 66.17 20.63L66.24 20.70L66.22 20.68Q66.70 19.20 67.72 16.19L67.77 16.23L65.48 17.20L65.53 17.26Q65.82 15.92 66.35 14.69L66.50 14.85L66.48 14.83Q62.23 16.24 57.82 16.32L57.82 16.32L57.86 16.36Q53.53 16.55 49.28 15.37L49.15 15.24L49.21 15.29Q49.92 20.01 49.92 24.74L49.91 24.72L49.91 24.73Q50.02 26.88 49.90 28.92L49.95 28.96L49.80 28.82Q50.05 28.98 50.66 29.31L50.81 29.46L50.70 29.34Q51.11 29.15 51.81 28.78L51.88 28.86L51.76 28.74Q51.72 29.55 51.47 31.18L51.58 31.29L51.55 31.26Q51.99 31.45 52.44 31.70L52.50 31.77L52.37 31.63Q55.35 29.75 57.35 29.75L57.41 29.82L57.40 29.81Q58.82 29.80 60.09 30.50L60.12 30.53L60.14 30.55Q60.40 31.54 60.44 32.56L60.49 32.61L60.52 32.65Q60.53 35.35 59.43 36.53L59.50 36.59L59.57 36.66Q58.07 37.94 55.66 38.19L55.55 38.07L55.65 38.17Q54.67 38.30 53.94 38.22L53.82 38.10L53.79 38.07Q53.00 38.05 52.18 37.68L52.24 37.74L52.14 37.44L52.06 37.60L52.00 37.55Q51.10 36.97 50.53 35.54L50.53 35.55L50.60 35.61Q49.16 37.11 47.36 39.39L47.31 39.33L47.41 39.44Q47.66 40.05 48.56 41.07L48.46 40.97L48.48 41.00Q49.60 42.94 52.62 43.47L52.76 43.60L52.79 43.63Q53.98 43.80 59.73 43.92Z"/></svg>