<svg xmlns="http://www.w3.org/2000/svg" width="150" height="50" viewBox="0,0,150,50"><path fill="#222" d="M82.19 41.48L82.20 41.48L82.12 41.41Q80.67 41.55 79.00 41.10L78.99 41.09L79.02 41.12Q77.63 40.05 77.46 38.30L77.49 38.33L77.47 38.31Q77.43 38.11 77.64 35.29L77.66 35.31L77.64 35.29Q78.77 35.12 80.94 34.72L80.92 34.70L80.71 35.51L80.71 35.51Q80.51 37.47 82.01 38.08L81.87 37.93L81.98 38.05Q82.85 38.43 85.09 38.43L84.98 38.31L85.15 38.48Q86.71 38.16 86.91 38.08L86.98 38.15L86.98 38.15Q88.03 38.06 88.80 37.53L88.75 37.48L88.67 37.39Q90.16 36.36 89.96 34.11L90.10 34.26L89.95 34.10Q89.84 31.59 87.99 29.92L88.03 29.96L87.92 29.85Q86.04 28.15 83.39 28.15L83.43 28.19L83.37 27.89L83.37 27.89Q83.89 27.96 84.82 27.88L84.83 27.88L84.83 27.88Q86.86 27.75 88.33 26.43L88.30 26.39L88.34 26.44Q89.72 25.02 89.88 23.03L89.90 23.05L89.90 23.05Q89.98 22.67 89.98 22.30L89.94 22.27L90.00 22.32Q90.05 20.75 88.59 19.77L88.58 19.77L88.50 19.68Q87.22 18.85 85.50 18.97L85.57 19.03L85.59 19.06Q84.18 18.87 82.87 19.32L82.90 19.34L82.76 19.20Q81.39 19.96 81.07 21.18L81.04 21.16L80.96 21.08Q80.85 21.99 80.94 22.80L80.81 22.68L80.88 22.75Q79.66 22.39 77.46 21.61L77.58 21.73L77.58 21.74Q77.34 19.94 77.38 19.05L77.33 18.99L77.28 18.95Q77.48 17.39 78.62 16.66L78.57 16.61L78.58 16.61Q80.16 16.03 81.87 16.03L81.85 16.01L81.80 15.96Q85.29 16.03 88.68 16.31L88.63 16.27L88.66 16.29Q94.00 16.66 93.68 20.70L93.77 20.79L93.64 20.67Q93.59 22.29 93.06 23.96L93.17 24.06L93.13 24.03Q92.05 27.23 89.52 28.21L89.58 28.27L89.59 28.27Q92.42 28.86 93.07 32.45L93.06 32.44L93.13 32.51Q93.33 33.69 93.41 35.85L93.46 35.90L93.39 35.83Q93.53 40.58 88.60 41.07L88.56 41.04L88.63 41.11Q87.87 41.21 82.20 41.49ZM87.73 43.84L87.72 43.82L87.80 43.91Q88.39 43.88 91.44 43.96L91.35 43.87L91.35 43.87Q93.29 44.01 95.04 43.31L95.00 43.27L95.02 43.30Q96.40 42.39 96.20 40.51L96.04 40.36L96.13 40.45Q96.04 39.05 95.71 37.17L95.78 37.24L95.60 37.06Q94.97 32.39 92.89 30.64L92.74 30.49L92.65 30.20L92.50 30.01L92.53 30.04Q94.39 28.47 95.20 23.78L95.32 23.89L95.26 23.83Q95.36 23.40 95.48 22.38L95.52 22.42L95.55 22.45Q95.54 21.54 95.45 20.80L95.46 20.81L95.35 20.70Q95.22 18.94 93.83 18.20L93.90 18.27L93.87 18.32L93.86 18.32Q93.41 17.13 92.18 16.55L92.24 16.61L92.17 16.54Q90.65 15.92 85.14 15.59L85.22 15.67L85.21 15.66Q83.37 15.53 81.66 15.53L81.61 15.48L81.71 15.58Q79.87 15.46 78.24 16.15L78.36 16.27L78.19 16.11Q76.89 16.93 76.89 18.80L76.91 18.82L77.03 18.94Q76.92 18.38 77.21 21.97L77.26 22.03L77.25 22.02Q77.63 22.15 79.38 22.80L79.37 22.78L79.35 22.77Q79.32 23.31 79.28 23.84L79.27 23.83L79.31 23.87Q79.22 24.31 79.26 24.88L79.29 24.91L79.26 24.88Q81.22 25.33 83.38 25.45L83.32 25.40L83.34 25.42Q83.42 23.41 84.60 22.51L84.47 22.38L84.47 22.38Q85.38 21.70 87.54 21.45L87.57 21.49L87.66 21.58Q88.85 21.54 89.46 21.75L89.50 21.78L89.50 21.78Q89.53 21.90 89.58 22.02L89.41 21.86L89.50 22.16L89.61 22.75L89.69 22.83Q89.57 22.91 89.53 23.07L89.58 23.13L89.50 23.05Q89.51 24.98 87.88 26.25L87.79 26.15L87.95 26.32Q86.87 27.19 84.71 27.39L84.67 27.36L84.79 27.47Q83.90 27.52 82.96 27.52L83.09 27.65L82.95 27.51Q83.14 28.03 83.30 28.76L83.12 28.58L83.22 28.68Q85.05 28.64 86.60 29.41L86.64 29.45L86.44 29.37L84.83 29.64L84.88 29.69Q84.92 30.06 85.05 30.71L84.98 30.65L84.94 30.60Q87.31 30.61 89.15 32.04L89.20 32.09L89.03 31.92Q89.40 32.45 89.72 34.20L89.64 34.12L89.64 34.12Q89.90 37.32 86.76 37.76L86.75 37.75L86.80 37.80Q84.45 37.98 83.84 37.94L83.88 37.99L83.91 38.02Q83.39 37.86 82.82 37.78L82.81 37.78L82.94 37.41L83.00 36.86L83.02 36.44L83.01 36.06L83.08 36.12Q81.95 36.09 81.09 36.30L81.23 36.44L81.07 36.28Q81.18 36.19 81.18 35.98L81.17 35.97L81.12 35.91Q81.26 35.82 81.26 35.57L81.09 35.40L81.26 35.57Q81.23 35.05 81.39 34.28L81.35 34.23L81.43 34.31Q79.45 34.58 77.45 34.94L77.36 34.86L77.37 34.86Q77.40 35.42 77.28 36.63L77.33 36.68L77.17 36.51Q77.12 37.79 77.12 38.44L77.15 38.47L77.15 38.47Q77.19 40.63 78.66 41.45L78.60 41.39L78.64 41.43Q80.23 43.88 85.28 43.67L85.32 43.71L85.35 43.74Q86.16 43.73 87.79 43.89Z"/><path fill="#222" d="M119.28 27.23L119.29 27.23L119.30 27.25Q120.26 27.35 121.77 27.18L121.71 27.13L121.76 27.18Q121.78 27.93 121.78 28.62L121.72 28.57L121.78 29.97L121.74 29.93Q120.83 29.92 119.93 30.00L120.01 30.08L119.90 29.97Q118.93 29.93 118.03 29.89L118.02 29.89L118.21 30.07Q114.99 36.52 111.32 41.45L111.37 41.51L111.48 41.61Q108.65 42.17 107.26 42.82L107.34 42.90L107.21 42.77Q111.75 36.79 115.01 30.06L114.89 29.93L112.11 29.97L112.06 29.92Q112.17 28.60 112.05 27.17L112.13 27.25L112.04 27.16Q114.02 27.27 116.22 27.27L116.27 27.32L118.23 23.28L118.33 23.38Q119.45 21.40 120.76 19.69L120.71 19.64L120.64 19.57Q119.04 19.81 117.33 19.81L117.32 19.80L117.34 19.82Q110.83 19.83 106.79 17.47L106.83 17.51L106.08 15.62L106.08 15.62Q105.72 14.73 105.32 13.79L105.22 13.70L105.33 13.81Q109.90 16.54 116.02 16.79L115.98 16.75L116.12 16.89Q121.53 17.04 127.04 14.92L127.11 14.99L126.99 14.87Q126.83 15.36 126.30 16.30L126.22 16.21L126.37 16.37Q122.50 21.48 119.44 27.39ZM128.05 17.81L128.00 17.75L129.06 15.59L129.06 15.59Q128.01 16.09 126.22 16.87L126.19 16.84L126.38 16.50L126.40 16.52Q126.64 16.47 126.76 16.35L126.71 16.30L126.80 16.40Q127.18 15.63 127.96 14.20L127.83 14.08L127.96 14.20Q122.23 16.63 116.07 16.39L115.95 16.27L116.02 16.34Q109.58 16.06 104.48 12.87L104.46 12.86L104.41 12.80Q105.63 14.92 106.52 17.77L106.54 17.79L106.48 17.73Q107.72 18.48 108.57 18.80L108.46 18.69L108.50 18.73Q108.68 19.12 109.17 21.12L109.13 21.07L109.19 21.13Q112.49 22.40 118.41 22.23L118.41 22.24L118.43 22.25Q118.06 22.82 115.94 26.86L115.99 26.91L116.07 27.00Q113.76 26.88 111.64 26.68L111.69 26.73L111.61 26.66Q111.86 27.72 111.86 28.66L111.73 28.53L111.80 30.44L113.66 30.50L113.66 32.01L113.51 31.86Q109.48 39.95 106.51 43.78L106.42 43.69L106.50 43.78Q108.12 42.86 109.87 42.33L109.81 42.27L109.97 42.43Q109.15 43.32 107.68 45.16L107.74 45.22L107.73 45.20Q111.11 44.02 113.72 43.78L113.77 43.82L113.64 43.69Q116.85 39.72 120.19 32.46L120.07 32.34L123.88 32.69L123.91 32.71Q123.71 31.61 123.71 30.63L123.74 30.66L123.79 28.80L123.84 28.85Q123.54 28.84 122.95 28.88L122.89 28.82L122.86 28.79Q122.23 28.79 121.95 28.79L122.05 28.89L122.06 28.91Q122.03 28.76 122.08 28.59L121.94 28.46L122.04 28.27L122.05 28.28Q124.71 22.74 128.01 17.77Z"/><path d="M15 16 C80 29,70 28,142 41" stroke="#444" fill="none"/><path fill="#222" d="M34.90 38.76L35.00 38.87L34.89 38.76Q35.24 39.84 35.81 42.00L35.87 42.06L35.77 41.96Q31.24 40.53 26.30 40.81L26.35 40.86L26.43 40.94Q21.55 41.24 17.27 43.36L17.22 43.32L17.22 43.32Q17.39 42.50 17.43 42.59L17.51 42.67L17.46 42.62Q21.44 38.35 25.64 33.62L25.61 33.59L25.75 33.74Q30.40 28.31 31.67 23.30L31.71 23.33L31.61 23.24Q32.24 21.50 30.87 20.23L30.88 20.25L30.90 20.26Q29.44 18.91 27.53 19.07L27.54 19.08L27.53 19.07Q27.18 19.05 26.82 19.05L26.85 19.09L26.78 19.02Q25.09 18.96 23.74 19.94L23.89 20.08L23.93 20.12Q22.36 21.41 22.60 24.26L22.66 24.32L22.76 24.42Q20.82 24.03 19.51 23.54L19.42 23.44L19.49 23.51Q19.34 22.06 19.26 20.51L19.22 20.48L19.23 20.48Q19.17 18.75 19.82 17.53L19.76 17.46L19.75 17.46Q21.67 15.99 25.26 15.99L25.16 15.89L27.12 15.97L27.09 15.94Q29.62 16.06 30.63 16.18L30.50 16.05L30.57 16.12Q35.25 16.60 35.54 19.21L35.61 19.28L35.49 19.17Q35.53 19.73 35.45 20.59L35.52 20.66L35.54 20.68Q35.48 21.36 35.32 22.09L35.37 22.14L35.24 22.01Q33.67 30.88 25.55 38.22L25.56 38.23L25.42 38.09Q26.91 37.91 28.38 37.91L28.47 38.01L28.51 38.04Q31.97 38.03 35.03 38.89ZM34.32 16.49L34.37 16.54L34.37 16.53Q32.57 15.75 30.73 15.67L30.76 15.69L27.20 15.60L27.07 15.47Q22.33 15.22 19.97 16.41L20.05 16.49L20.09 16.53Q18.80 17.85 18.80 20.05L18.92 20.18L18.84 20.09Q18.94 20.92 19.26 23.94L19.28 23.96L19.25 23.92Q19.74 24.09 21.00 24.42L21.08 24.50L21.12 25.64L21.01 25.52Q20.98 26.03 21.06 26.60L21.05 26.59L21.12 26.66Q22.36 26.68 25.01 26.92L25.17 27.07L25.10 27.01Q25.03 26.57 25.03 26.21L25.05 26.22L25.14 26.31Q25.15 24.36 26.46 22.92L26.37 22.83L26.39 22.85Q27.69 21.39 29.60 21.51L29.65 21.56L29.55 21.46Q30.35 21.49 31.17 21.65L31.30 21.78L31.12 21.60Q31.32 22.09 31.41 22.54L31.42 22.56L31.49 22.63Q31.40 22.95 31.32 23.31L31.28 23.28L31.32 23.32Q30.06 28.50 25.33 33.68L25.20 33.55L25.28 33.63Q23.02 36.06 17.18 42.54L17.09 42.45L17.19 42.55Q16.92 43.38 16.55 43.99L16.55 43.99L16.70 44.14Q18.35 43.14 19.98 42.57L19.93 42.51L19.98 42.57Q19.11 43.08 18.09 44.67L18.15 44.73L18.14 44.73Q18.01 45.08 17.89 45.45L17.84 45.40L17.85 45.42Q23.15 43.28 29.02 43.49L28.95 43.42L29.05 43.52Q35.00 43.56 39.90 46.08L40.02 46.21L38.89 43.85L38.90 43.87Q38.20 42.43 37.91 41.57L37.91 41.57L38.02 41.68Q37.11 41.10 35.81 40.65L35.92 40.76L35.90 40.74Q35.64 39.87 35.23 38.40L35.25 38.42L35.32 38.49Q32.93 37.86 30.48 37.65L30.52 37.69L30.42 37.59Q35.40 32.66 37.04 23.81L37.15 23.92L37.24 20.71L37.41 20.88Q37.33 18.96 36.02 18.23L35.96 18.16L35.87 18.11L35.91 18.15Q35.88 18.09 35.80 18.09L35.69 17.98L35.70 17.99Q35.54 17.18 34.36 16.52Z"/><path fill="#444" d="M53.27 37.77L53.36 37.87L53.24 37.74Q54.46 38.72 55.97 38.56L55.92 38.50L55.96 38.54Q59.18 38.82 59.87 35.24L59.89 35.25L59.89 35.25Q60.53 31.86 60.53 28.23L60.51 28.21L60.43 25.35L60.53 25.45Q60.58 24.16 60.22 22.81L60.03 22.63L60.15 22.74Q58.78 25.17 56.66 30.27L56.73 30.34L56.74 30.35Q54.61 35.44 53.31 37.81ZM58.56 20.02L58.60 20.05L58.63 20.09Q57.34 19.17 55.91 19.17L56.04 19.29L56.03 19.28Q54.38 19.06 53.20 20.04L53.27 20.11L53.13 19.97Q52.11 21.11 51.90 22.70L51.82 22.61L51.91 22.70Q51.51 24.14 51.47 25.73L51.36 25.63L51.45 25.72Q51.51 25.77 51.51 28.83L51.35 28.67L51.40 28.72Q51.37 31.22 51.86 35.10L51.97 35.21L51.86 35.10Q53.93 30.02 58.62 20.07ZM60.23 40.17L60.40 40.34L60.27 40.20Q58.52 41.31 56.03 41.31L55.94 41.22L54.19 41.22L54.18 41.21Q50.82 41.32 49.60 39.48L49.51 39.40L49.57 39.46Q48.72 37.13 48.64 33.99L48.50 33.85L48.63 33.99Q48.51 32.03 48.43 28.32L48.42 28.32L48.54 28.43Q48.33 26.96 48.17 23.69L48.21 23.74L48.17 23.70Q48.20 21.36 48.53 19.24L48.44 19.16L48.55 19.27Q48.94 15.99 53.59 15.74L53.64 15.79L53.72 15.86Q54.40 15.69 55.83 15.73L55.95 15.86L55.91 15.82Q62.06 16.05 63.20 19.76L63.05 19.61L63.14 19.71Q63.79 21.74 63.75 23.74L63.80 23.78L63.77 23.76Q63.60 29.01 63.52 30.32L63.64 30.44L63.65 30.45Q63.42 34.51 63.10 35.89L62.96 35.75L62.99 35.78Q62.37 39.21 60.33 40.27ZM65.57 39.96L65.59 39.97L65.68 40.06Q65.96 37.12 65.92 35.20L65.74 35.03L65.65 30.08L65.84 30.28Q65.61 26.91 65.04 20.99L65.17 21.12L65.02 20.97Q64.58 19.15 63.20 18.33L63.06 18.20L63.21 18.34Q61.41 15.49 55.87 15.32L55.88 15.34L55.95 15.41Q55.01 15.37 53.59 15.41L53.53 15.35L53.62 15.44Q48.69 15.44 48.16 18.79L48.18 18.81L48.23 18.86Q47.72 21.25 47.84 23.49L47.83 23.48L47.84 23.49Q48.25 28.23 48.21 31.82L48.30 31.91L48.12 31.72Q48.10 35.70 48.22 36.80L48.37 36.95L48.35 36.93Q48.71 40.19 50.35 41.05L50.35 41.06L50.27 40.97Q51.94 43.42 56.22 43.70L56.11 43.59L56.13 43.61Q59.95 43.84 60.65 43.80L60.69 43.85L60.71 43.87Q63.80 43.73 65.02 42.02L65.11 42.10L65.03 42.03Q65.50 41.24 65.59 39.97ZM56.31 38.08L56.45 38.22L56.45 38.22Q57.08 36.56 58.22 33.67L58.26 33.71L60.03 29.12L60.13 29.22Q60.04 30.92 59.63 34.51L59.72 34.60L59.61 34.48Q58.95 37.62 56.38 38.15ZM54.21 24.93L54.36 25.07L54.34 25.05Q54.74 23.05 55.48 22.44L55.54 22.50L55.58 22.54Q55.90 21.93 57.29 21.72L57.44 21.87L57.30 21.74Q55.65 25.83 53.65 30.81L53.46 30.62L53.61 30.77Q53.65 27.91 54.38 25.09Z"/></svg>