<svg xmlns="http://www.w3.org/2000/svg" width="150" height="50" viewBox="0,0,150,50"><path fill="#444" d="M89.78 27.33L89.76 27.31L89.69 27.24Q90.63 27.32 92.14 27.16L92.21 27.22L92.08 27.10Q92.09 27.84 92.09 28.54L92.20 28.64L92.04 29.83L92.13 29.92Q91.21 29.90 90.31 29.98L90.30 29.96L90.31 29.98Q89.50 30.10 88.60 30.06L88.54 30.01L88.55 30.01Q85.37 36.50 81.70 41.44L81.79 41.52L81.86 41.59Q79.18 42.30 77.79 42.95L77.69 42.85L77.79 42.95Q82.02 36.66 85.29 29.93L85.43 30.07L82.59 30.05L82.55 30.01Q82.65 28.69 82.53 27.26L82.35 27.07L82.51 27.24Q84.51 27.36 86.72 27.36L86.75 27.40L88.69 23.34L88.80 23.45Q89.85 21.40 91.15 19.69L91.18 19.71L91.14 19.67Q89.32 19.68 87.60 19.68L87.71 19.79L87.71 19.79Q81.09 19.70 77.05 17.33L77.07 17.35L76.37 15.51L76.49 15.63Q76.17 14.78 75.76 13.84L75.75 13.82L75.65 13.73Q80.39 16.63 86.51 16.88L86.50 16.86L86.49 16.86Q91.95 17.06 97.46 14.94L97.50 14.97L97.53 15.01Q97.30 15.43 96.77 16.37L96.74 16.34L96.62 16.22Q92.78 21.35 89.72 27.27ZM98.37 17.73L98.34 17.70L99.42 15.55L99.53 15.66Q98.42 16.10 96.62 16.87L96.61 16.86L96.96 16.68L96.79 16.52Q97.02 16.46 97.14 16.33L97.19 16.38L97.11 16.30Q97.62 15.67 98.39 14.24L98.21 14.06L98.21 14.06Q92.56 16.57 86.40 16.32L86.34 16.26L86.47 16.38Q80.07 16.15 74.97 12.97L74.79 12.79L74.85 12.85Q76.01 14.90 76.91 17.76L76.94 17.79L76.82 17.67Q78.01 18.37 78.86 18.70L78.91 18.74L78.88 18.71Q79.09 19.12 79.58 21.12L79.64 21.19L79.60 21.14Q82.96 22.47 88.88 22.31L88.82 22.25L88.91 22.34Q88.52 22.89 86.40 26.92L86.50 27.03L86.39 26.91Q84.16 26.89 82.04 26.68L82.21 26.85L82.21 26.85Q82.11 27.57 82.11 28.51L82.24 28.63L82.14 30.37L84.00 30.44L83.97 31.92L83.91 31.86Q79.88 39.94 76.90 43.77L76.77 43.65L76.83 43.71Q78.51 42.86 80.27 42.33L80.36 42.42L80.21 42.27Q79.61 43.38 78.14 45.22L78.10 45.18L78.17 45.25Q81.46 43.97 84.07 43.72L84.06 43.72L84.13 43.78Q87.22 39.70 90.57 32.44L90.60 32.47L94.29 32.69L94.18 32.59Q94.09 31.60 94.09 30.62L94.23 30.75L94.06 28.67L94.07 28.68Q93.86 28.75 93.27 28.80L93.22 28.75L93.26 28.79Q92.61 28.77 92.33 28.77L92.42 28.86L92.33 28.77Q92.39 28.71 92.43 28.55L92.36 28.48L92.47 28.31L92.34 28.17Q95.10 22.73 98.40 17.76Z"/><path fill="#222" d="M60.20 27.35L60.26 27.41L60.09 27.24Q61.10 27.39 62.61 27.23L62.58 27.20L62.63 27.25Q62.59 27.94 62.59 28.64L62.55 28.60L62.47 29.86L62.59 29.98Q61.69 29.97 60.79 30.06L60.65 29.92L60.77 30.04Q59.74 29.94 58.84 29.90L58.95 30.01L58.88 29.94Q55.80 36.52 52.12 41.46L52.12 41.46L52.20 41.54Q49.46 42.18 48.07 42.83L48.03 42.79L48.20 42.96Q52.43 36.67 55.70 29.94L55.86 30.10L53.06 30.12L53.05 30.11Q52.88 28.51 52.76 27.08L52.89 27.22L52.78 27.11Q54.82 27.27 57.02 27.27L57.05 27.30L59.12 23.37L59.20 23.45Q60.24 21.39 61.55 19.68L61.39 19.52L61.39 19.52Q59.79 19.75 58.07 19.75L58.08 19.76L58.12 19.80Q51.55 19.76 47.51 17.39L47.47 17.35L46.84 15.58L46.76 15.50Q46.52 14.73 46.11 13.79L45.98 13.66L46.15 13.83Q50.62 16.46 56.74 16.71L56.89 16.86L56.78 16.75Q62.38 17.09 67.89 14.97L67.86 14.94L67.91 14.99Q67.61 15.34 67.08 16.27L67.08 16.28L67.21 16.41Q63.31 21.48 60.25 27.40ZM68.88 17.83L68.89 17.84L69.87 15.60L69.79 15.52Q68.78 16.06 66.99 16.84L66.99 16.84L67.37 16.69L67.35 16.67Q67.44 16.48 67.57 16.36L67.59 16.38L67.54 16.33Q67.93 15.58 68.70 14.15L68.69 14.13L68.72 14.17Q62.91 16.51 56.75 16.27L56.90 16.42L56.85 16.37Q50.43 16.10 45.33 12.92L45.33 12.92L45.33 12.92Q46.42 14.91 47.32 17.77L47.38 17.83L47.27 17.72Q48.52 18.48 49.38 18.81L49.38 18.81L49.40 18.83Q49.57 19.21 50.06 21.21L50.06 21.20L50.08 21.22Q53.44 22.54 59.35 22.38L59.21 22.24L59.21 22.24Q58.96 22.93 56.84 26.96L56.75 26.87L56.89 27.01Q54.62 26.95 52.50 26.74L52.53 26.77L52.49 26.73Q52.60 27.66 52.60 28.60L52.54 28.54L52.68 30.51L54.47 30.51L54.39 31.94L54.30 31.84Q50.20 39.86 47.22 43.69L47.28 43.76L47.20 43.67Q48.95 42.90 50.71 42.37L50.60 42.26L50.64 42.30Q50.02 43.39 48.55 45.23L48.56 45.24L48.48 45.16Q51.90 44.00 54.51 43.76L54.44 43.69L54.39 43.65Q57.57 39.64 60.91 32.38L60.94 32.41L64.56 32.56L64.71 32.72Q64.56 31.66 64.56 30.68L64.55 30.68L64.49 28.70L64.62 28.83Q64.33 28.83 63.74 28.87L63.60 28.73L63.76 28.89Q63.01 28.76 62.72 28.76L62.86 28.90L62.79 28.83Q62.75 28.67 62.79 28.51L62.86 28.58L62.75 28.18L62.78 28.21Q65.46 22.69 68.76 17.72Z"/><path fill="#333" d="M115.92 23.28L116.01 23.36L115.94 23.29Q112.45 23.23 110.49 22.09L110.64 22.24L110.62 22.22Q113.25 20.68 118.47 16.16L118.42 16.11L118.45 16.14Q119.27 15.97 120.65 15.32L120.53 15.20L120.64 15.31Q119.17 21.63 119.05 28.44L119.03 28.43L118.99 28.39Q118.96 35.29 120.10 41.82L120.06 41.77L120.11 41.83Q118.39 41.12 116.10 41.00L115.97 40.86L115.96 40.86Q115.98 36.55 115.98 32.18L115.83 32.04L115.80 32.01Q115.95 27.75 115.99 23.34ZM115.44 25.61L115.50 41.29L115.50 41.29Q116.81 41.30 117.83 41.50L117.83 41.50L117.92 41.59Q118.00 42.32 118.20 43.79L118.15 43.74L118.16 43.75Q121.25 44.35 123.86 46.76L123.82 46.72L123.77 46.67Q121.21 39.13 121.17 31.13L121.07 31.04L121.12 31.08Q121.06 23.11 123.02 15.36L123.04 15.39L123.01 15.36Q122.42 15.78 120.70 16.96L120.65 16.91L120.67 16.93Q120.83 16.07 121.15 14.43L121.14 14.42L121.20 14.49Q119.82 15.35 118.27 15.75L118.18 15.66L118.18 15.66Q114.31 19.67 109.70 22.12L109.60 22.01L109.63 22.04Q111.14 23.22 113.66 23.59L113.60 23.52L113.67 23.59Q112.96 24.15 111.58 25.29L111.63 25.35L111.65 25.37Q113.22 25.76 115.59 25.76L115.58 25.75Z"/><path fill="#333" d="M23.05 41.53L22.99 41.47L22.85 41.34Q21.45 41.52 19.77 41.07L19.87 41.17L19.76 41.06Q18.49 40.12 18.33 38.36L18.32 38.36L18.23 38.26Q18.30 38.17 18.51 35.36L18.42 35.27L18.46 35.32Q19.61 35.16 21.77 34.75L21.71 34.69L21.56 35.56L21.46 35.46Q21.19 37.35 22.70 37.96L22.78 38.04L22.78 38.04Q23.67 38.44 25.91 38.44L25.83 38.36L25.95 38.48Q27.56 38.21 27.76 38.13L27.82 38.19L27.72 38.09Q28.78 38.00 29.55 37.47L29.47 37.40L29.56 37.48Q31.07 36.46 30.86 34.22L30.87 34.23L30.73 34.08Q30.54 31.49 28.68 29.81L28.69 29.82L28.69 29.82Q26.87 28.19 24.22 28.19L24.17 28.14L24.22 27.94L24.20 27.92Q24.73 28.00 25.67 27.92L25.63 27.89L25.56 27.81Q27.67 27.76 29.14 26.43L29.03 26.33L29.09 26.39Q30.58 25.09 30.75 23.09L30.66 23.00L30.76 23.10Q30.87 22.77 30.87 22.40L30.83 22.35L30.72 22.25Q30.91 20.81 29.45 19.83L29.31 19.69L29.40 19.78Q28.08 18.91 26.36 19.03L26.26 18.93L26.29 18.96Q24.93 18.82 23.62 19.27L23.64 19.28L23.59 19.24Q22.12 19.89 21.79 21.11L21.70 21.02L21.82 21.14Q21.63 21.97 21.71 22.78L21.55 22.62L21.74 22.81Q20.56 22.49 18.36 21.71L18.25 21.60L18.41 21.77Q18.05 19.86 18.09 18.96L18.16 19.03L18.13 19.00Q18.32 17.44 19.47 16.70L19.39 16.63L19.33 16.56Q20.82 15.90 22.54 15.90L22.67 16.03L22.64 16.00Q26.03 15.97 29.42 16.25L29.36 16.19L29.50 16.33Q34.91 16.77 34.59 20.81L34.45 20.68L34.44 20.66Q34.39 22.28 33.85 23.95L33.90 24.00L33.84 23.94Q32.84 27.22 30.31 28.20L30.34 28.23L30.34 28.22Q33.24 28.88 33.89 32.47L33.94 32.52L33.75 32.33Q34.12 33.68 34.20 35.84L34.26 35.90L34.21 35.85Q34.38 40.63 29.45 41.12L29.32 40.99L29.45 41.12Q28.62 41.15 22.95 41.44ZM28.51 43.81L28.51 43.82L28.59 43.90Q29.13 43.83 32.19 43.91L32.23 43.94L32.23 43.95Q34.06 43.99 35.82 43.29L35.82 43.30L35.92 43.40Q37.10 42.29 36.89 40.41L36.85 40.37L36.95 40.47Q36.82 39.03 36.49 37.15L36.42 37.08L36.56 37.22Q35.66 32.29 33.58 30.53L33.74 30.69L33.42 30.17L33.43 30.13L33.47 30.18Q35.30 28.58 36.12 23.89L36.18 23.96L36.05 23.82Q36.10 23.34 36.22 22.32L36.27 22.37L36.29 22.39Q36.41 21.62 36.33 20.88L36.34 20.89L36.32 20.87Q36.13 19.05 34.74 18.31L34.71 18.28L34.54 18.19L34.64 18.30Q34.30 17.22 33.07 16.65L33.13 16.70L32.99 16.56Q31.37 15.83 25.86 15.51L25.97 15.61L26.02 15.67Q24.20 15.56 22.48 15.56L22.34 15.41L22.49 15.57Q20.67 15.45 19.03 16.15L18.99 16.11L19.16 16.27Q17.86 17.09 17.86 18.97L17.76 18.87L17.83 18.94Q17.68 18.34 17.97 21.93L18.00 21.96L18.11 22.07Q18.30 22.02 20.06 22.67L20.17 22.79L20.23 22.85Q20.20 23.39 20.16 23.92L20.15 23.91L20.12 23.88Q20.14 24.43 20.18 25.01L20.07 24.89L20.12 24.94Q22.08 25.39 24.24 25.51L24.18 25.45L24.23 25.51Q24.22 23.42 25.41 22.52L25.37 22.48L25.34 22.46Q26.19 21.71 28.35 21.47L28.47 21.59L28.33 21.45Q29.63 21.52 30.24 21.73L30.29 21.77L30.20 21.68Q30.20 21.77 30.24 21.89L30.35 22.00L30.33 22.18L30.33 22.67L30.32 22.66Q30.39 22.94 30.35 23.10L30.36 23.11L30.28 23.03Q30.23 24.90 28.60 26.16L28.57 26.13L28.61 26.17Q27.77 27.29 25.61 27.50L25.56 27.44L25.52 27.41Q24.72 27.54 23.78 27.54L23.72 27.48L23.86 27.62Q23.76 27.85 23.93 28.59L23.93 28.59L24.05 28.71Q25.92 28.70 27.47 29.48L27.54 29.54L27.41 29.54L25.60 29.61L25.63 29.64Q25.66 29.99 25.78 30.64L25.74 30.60L25.74 30.61Q28.18 30.67 30.01 32.10L30.02 32.11L29.85 31.94Q30.09 32.34 30.41 34.09L30.52 34.20L30.58 34.26Q30.60 37.22 27.46 37.67L27.52 37.72L27.55 37.76Q25.32 38.05 24.71 38.01L24.63 37.93L24.67 37.97Q24.15 37.83 23.58 37.75L23.66 37.82L23.61 37.28L23.74 36.80L23.83 36.44L23.85 36.09L23.86 36.11Q22.80 36.15 21.94 36.35L21.88 36.29L22.01 36.42Q22.01 36.22 22.01 36.01L21.95 35.95L21.97 35.97Q21.97 35.73 21.97 35.48L22.07 35.58L21.96 35.47Q22.02 35.04 22.18 34.26L22.17 34.25L22.13 34.21Q20.14 34.47 18.14 34.83L18.12 34.81L18.14 34.83Q18.10 35.32 17.98 36.53L18.15 36.70L18.04 36.59Q18.02 37.90 18.02 38.55L17.94 38.47L17.94 38.47Q18.02 40.66 19.49 41.48L19.55 41.55L19.49 41.48Q20.98 43.83 26.04 43.63L26.17 43.76L26.12 43.71Q26.95 43.72 28.58 43.89Z"/><path d="M9 10 C95 35,71 25,131 39" stroke="#666" fill="none"/></svg>