<svg xmlns="http://www.w3.org/2000/svg" width="150" height="50" viewBox="0,0,150,50"><path d="M14 11 C69 3,58 20,134 14" stroke="#666" fill="none"/><path fill="#222" d="M51.81 33.46L51.98 33.62L51.95 33.59Q55.17 33.10 58.60 33.23L58.53 33.16L58.66 33.29Q58.49 30.43 58.49 27.86L58.52 27.89L58.66 28.03Q58.56 25.28 58.77 22.55L58.76 22.54L58.72 22.50Q57.55 24.47 51.96 33.60ZM62.50 41.41L62.56 41.47L62.57 41.48Q60.77 41.15 58.85 41.07L58.78 40.99L58.75 40.97Q58.55 38.44 58.43 35.79L58.39 35.75L58.44 35.80Q52.81 35.68 47.75 37.19L47.70 37.14L47.61 37.05Q47.87 36.65 48.07 35.59L48.04 35.56L47.96 35.48Q49.90 32.12 53.73 25.39L53.74 25.39L53.75 25.40Q56.85 20.18 60.52 16.02L60.56 16.06L60.50 16.00Q61.51 15.87 63.30 15.58L63.22 15.50L63.27 15.55Q61.15 22.36 61.15 29.90L61.26 30.02L61.30 30.06Q61.26 31.61 61.34 33.20L61.31 33.16L62.77 33.37L62.75 33.35Q63.36 33.34 64.01 33.46L63.94 33.39L63.98 33.43Q64.15 34.54 64.44 36.62L64.48 36.66L64.43 36.61Q63.14 36.34 61.55 36.14L61.59 36.18L61.41 36.00Q61.74 38.25 62.48 41.39ZM64.31 33.07L64.33 33.09L64.25 33.00Q64.02 32.90 63.81 32.90L63.84 32.93L63.56 33.05L63.51 33.01Q63.27 31.29 63.27 29.78L63.34 29.85L63.43 29.94Q63.42 23.08 65.62 16.63L65.46 16.48L65.54 16.56Q64.68 16.79 63.13 17.20L63.18 17.25L63.25 17.32Q63.33 16.35 63.82 14.84L63.95 14.97L63.87 14.89Q62.55 15.36 60.35 15.60L60.23 15.48L60.23 15.49Q56.07 20.18 50.48 30.21L50.58 30.31L52.74 26.32L52.73 26.30Q52.32 27.44 52.03 28.05L51.99 28.01L47.28 37.74L47.36 37.81Q47.99 37.59 49.21 37.18L49.17 37.14L49.00 37.38L48.96 37.34Q48.81 38.04 48.48 39.39L48.59 39.49L48.63 39.53Q53.00 38.07 58.18 38.27L58.12 38.21L58.22 38.31Q58.26 39.34 58.47 41.46L58.40 41.40L58.44 41.43Q59.63 41.48 60.77 41.60L60.59 41.42L60.64 41.47Q60.82 42.22 61.11 43.69L61.15 43.73L61.19 43.77Q63.25 44.04 66.47 45.02L66.41 44.96L66.49 45.04Q65.37 42.70 64.39 39.19L64.38 39.18L66.01 39.74L65.88 39.61Q66.71 39.95 67.44 40.32L67.40 40.28L67.37 40.25Q66.48 37.52 66.31 35.72L66.32 35.73L66.39 35.80Q65.73 35.59 64.51 35.34L64.56 35.40L64.59 35.43Q64.19 33.88 64.19 32.95ZM55.76 32.92L55.62 32.78L55.80 32.96Q56.61 31.56 58.28 28.83L58.15 28.71L58.11 28.66Q58.26 29.83 58.22 30.85L58.26 30.89L58.23 30.87Q58.19 31.88 58.23 32.90L58.13 32.80L58.23 32.90Q57.59 32.83 56.98 32.83L56.93 32.79L57.05 32.90Q56.30 32.80 55.64 32.80Z"/><path fill="#222" d="M23.00 41.49L22.97 41.46L23.03 41.51Q21.36 41.44 19.69 40.99L19.86 41.16L19.72 41.02Q18.52 40.15 18.36 38.40L18.39 38.43L18.39 38.43Q18.32 38.19 18.52 35.37L18.45 35.31L18.46 35.31Q19.56 35.10 21.72 34.70L21.82 34.80L21.53 35.53L21.56 35.56Q21.26 37.42 22.77 38.03L22.78 38.04L22.80 38.07Q23.64 38.42 25.89 38.42L25.84 38.37L25.93 38.46Q27.55 38.21 27.76 38.13L27.84 38.21L27.86 38.23Q28.76 37.99 29.54 37.46L29.48 37.40L29.53 37.45Q30.97 36.37 30.77 34.12L30.88 34.23L30.88 34.23Q30.67 31.62 28.81 29.94L28.67 29.80L28.78 29.91Q26.95 28.27 24.30 28.27L24.17 28.14L24.33 28.05L24.24 27.96Q24.76 28.03 25.69 27.95L25.56 27.81L25.64 27.90Q27.66 27.75 29.13 26.43L29.01 26.31L29.08 26.38Q30.58 25.08 30.75 23.09L30.82 23.17L30.83 23.17Q30.88 22.77 30.88 22.41L30.76 22.28L30.82 22.34Q30.84 20.73 29.37 19.75L29.27 19.65L29.44 19.82Q27.98 18.82 26.27 18.94L26.37 19.04L26.33 19.00Q24.86 18.75 23.55 19.20L23.72 19.37L23.67 19.32Q22.17 19.94 21.84 21.16L21.68 21.00L21.72 21.04Q21.50 21.83 21.58 22.65L21.74 22.81L21.65 22.72Q20.60 22.52 18.39 21.75L18.31 21.67L18.24 21.60Q18.04 19.85 18.08 18.95L18.23 19.10L18.05 18.92Q18.20 17.31 19.34 16.57L19.45 16.68L19.34 16.58Q20.88 15.95 22.59 15.95L22.62 15.98L22.58 15.94Q25.96 15.89 29.34 16.18L29.48 16.32L29.37 16.20Q34.89 16.75 34.56 20.79L34.59 20.82L34.56 20.79Q34.42 22.32 33.89 23.99L33.82 23.91L33.82 23.92Q32.91 27.29 30.38 28.27L30.41 28.30L30.35 28.23Q33.18 28.82 33.83 32.41L33.78 32.36L33.85 32.43Q33.99 33.55 34.07 35.71L34.08 35.72L34.21 35.85Q34.42 40.67 29.48 41.16L29.36 41.04L29.45 41.12Q28.66 41.19 22.99 41.47ZM28.50 43.80L28.63 43.94L28.58 43.88Q29.12 43.81 32.17 43.89L32.19 43.90L32.17 43.89Q34.11 44.03 35.87 43.34L35.84 43.31L35.84 43.31Q37.21 42.39 37.00 40.52L36.96 40.47L36.85 40.37Q36.83 39.04 36.50 37.16L36.40 37.06L36.56 37.22Q35.73 32.35 33.65 30.60L33.61 30.56L33.36 30.10L33.43 30.13L33.46 30.16Q35.30 28.58 36.12 23.89L36.03 23.81L36.02 23.79Q36.15 23.39 36.27 22.37L36.35 22.45L36.29 22.39Q36.31 21.51 36.23 20.78L36.27 20.82L36.23 20.78Q36.18 19.10 34.79 18.36L34.67 18.24L34.54 18.20L34.53 18.18Q34.38 17.30 33.16 16.73L33.16 16.73L33.08 16.65Q31.39 15.86 25.88 15.53L25.95 15.60L26.01 15.66Q24.15 15.51 22.44 15.51L22.36 15.43L22.42 15.49Q20.76 15.55 19.13 16.25L19.09 16.20L19.18 16.29Q17.79 17.02 17.79 18.90L17.82 18.93L17.68 18.79Q17.74 18.41 18.03 21.99L17.97 21.94L18.07 22.04Q18.47 22.19 20.23 22.84L20.23 22.85L20.13 22.75Q20.08 23.27 20.04 23.80L20.14 23.90L20.06 23.82Q20.02 24.31 20.06 24.88L20.14 24.96L20.09 24.91Q22.05 25.37 24.21 25.49L24.14 25.41L24.22 25.49Q24.14 23.33 25.32 22.44L25.33 22.44L25.36 22.48Q26.23 21.76 28.40 21.51L28.42 21.54L28.34 21.46Q29.67 21.56 30.28 21.77L30.15 21.64L30.16 21.65Q30.20 21.76 30.24 21.89L30.36 22.01L30.29 22.14L30.39 22.73L30.49 22.83Q30.40 22.95 30.36 23.11L30.39 23.14L30.29 23.03Q30.31 24.97 28.68 26.24L28.61 26.17L28.62 26.18Q27.70 27.22 25.54 27.42L25.47 27.36L25.58 27.47Q24.78 27.60 23.84 27.60L23.73 27.49L23.82 27.58Q23.77 27.86 23.94 28.60L23.96 28.62L24.06 28.72Q25.93 28.71 27.48 29.49L27.49 29.49L27.37 29.50L25.69 29.70L25.72 29.73Q25.66 29.99 25.78 30.64L25.90 30.76L25.77 30.64Q28.11 30.60 29.94 32.03L29.95 32.04L29.99 32.08Q30.24 32.49 30.56 34.24L30.47 34.15L30.59 34.27Q30.67 37.29 27.53 37.74L27.53 37.73L27.58 37.79Q25.28 38.01 24.67 37.97L24.65 37.95L24.73 38.03Q24.30 37.98 23.73 37.90L23.60 37.76L23.68 37.35L23.69 36.75L23.88 36.49L23.91 36.15L23.78 36.02Q22.80 36.14 21.94 36.35L21.90 36.31L22.05 36.46Q21.96 36.16 21.96 35.96L21.95 35.95L21.95 35.95Q21.88 35.63 21.88 35.39L22.06 35.57L22.01 35.52Q22.07 35.10 22.24 34.32L22.21 34.29L22.22 34.30Q20.16 34.48 18.16 34.85L18.17 34.86L18.17 34.86Q18.18 35.40 18.06 36.61L18.06 36.61L17.99 36.53Q17.89 37.76 17.89 38.41L17.87 38.40L17.88 38.41Q18.09 40.73 19.55 41.55L19.57 41.56L19.40 41.39Q21.02 43.87 26.07 43.66L26.17 43.76L26.18 43.77Q26.89 43.67 28.53 43.83Z"/><path fill="#444" d="M115.37 19.27L115.33 19.24L113.69 19.39L113.66 19.36Q111.31 19.54 111.07 21.71L111.01 21.65L111.01 21.65Q110.87 22.36 110.91 23.43L111.07 23.58L111.03 23.55Q110.98 25.53 112.33 26.96L112.38 27.02L112.41 27.05Q113.65 28.37 115.69 28.20L115.71 28.23L115.81 28.32Q118.00 28.15 118.82 27.17L118.86 27.22L118.84 27.19Q119.83 26.06 120.11 23.65L120.10 23.64L120.11 23.65Q120.44 21.29 119.09 20.39L119.11 20.41L119.14 20.44Q118.28 19.66 115.42 19.33ZM121.80 29.13L121.74 29.07L120.35 31.52L120.54 31.71Q117.54 36.75 113.51 41.11L113.45 41.06L113.56 41.17Q111.81 41.34 108.92 42.19L108.95 42.23L108.79 42.06Q114.47 35.30 117.86 30.17L117.87 30.18L117.92 30.23Q116.81 30.92 115.06 31.00L115.09 31.03L115.14 31.09Q111.88 31.21 110.25 29.09L110.32 29.16L110.20 29.03Q109.01 27.44 107.83 22.55L107.70 22.41L107.74 22.46Q107.71 21.94 107.55 20.94L107.53 20.92L107.56 20.95Q107.44 19.99 107.44 19.50L107.45 19.52L107.34 19.41Q107.45 17.60 108.59 16.95L108.49 16.85L108.60 16.96Q109.88 16.12 111.88 16.12L111.85 16.08L111.88 16.12Q115.34 16.14 115.34 16.14L115.29 16.10L115.20 16.01Q117.56 16.08 118.90 16.29L119.01 16.39L118.89 16.27Q121.25 16.63 122.22 17.16L122.15 17.08L122.19 17.12Q123.66 17.94 123.86 19.81L123.85 19.80L123.88 19.84Q123.95 20.15 123.75 23.01L123.79 23.04L123.76 23.02Q123.37 25.32 123.13 26.22L123.10 26.20L123.08 26.17Q122.71 27.72 121.89 29.23ZM123.94 31.80L123.80 31.66L123.86 31.72Q124.97 29.41 125.54 24.80L125.53 24.78L125.53 24.79Q125.72 22.33 125.68 21.39L125.84 21.55L125.72 21.43Q125.73 19.49 124.47 18.51L124.48 18.52L124.15 18.39L124.18 18.42Q123.80 17.51 122.82 16.82L122.80 16.80L122.75 16.75Q120.35 15.73 115.21 15.57L115.28 15.64L115.19 15.55Q114.22 15.60 111.61 15.60L111.72 15.71L111.66 15.65Q109.71 15.58 108.12 16.31L108.15 16.34L108.17 16.36Q106.95 17.22 107.03 19.17L107.12 19.26L107.02 19.17Q107.32 20.24 107.52 22.40L107.45 22.33L107.39 22.27Q108.02 25.06 108.30 25.96L108.30 25.95L108.33 25.99Q108.94 27.98 109.96 29.37L110.08 29.49L109.96 29.37Q110.29 29.78 110.69 30.18L110.69 30.18L110.78 30.27Q110.90 30.59 111.59 31.57L111.60 31.58L111.71 31.69Q113.23 33.09 115.31 33.29L115.40 33.38L115.42 33.40Q113.40 36.28 111.73 38.31L111.58 38.17L107.78 42.94L107.83 42.98Q110.21 42.14 111.96 41.77L111.82 41.63L111.91 41.72Q111.05 42.61 109.38 44.45L109.51 44.58L109.34 44.41Q112.75 43.54 116.09 43.50L116.16 43.57L116.11 43.51Q118.47 40.61 123.12 32.86L123.27 33.01L123.22 33.04L123.28 33.10Q123.47 32.24 123.84 31.71ZM117.46 21.86L117.35 21.75L117.47 21.87Q118.06 21.68 118.55 21.80L118.53 21.78L118.52 21.77Q119.23 21.91 119.63 22.03L119.66 22.06L119.75 22.15Q119.84 22.53 119.93 22.98L119.78 22.83L119.96 23.02Q119.91 23.33 119.79 23.74L119.91 23.85L119.89 23.84Q119.70 25.53 118.44 26.71L118.59 26.86L118.53 26.80Q117.45 27.84 115.69 27.80L115.70 27.81L115.70 27.80Q115.23 27.79 113.60 27.46L113.77 27.63L113.57 27.43Q113.36 26.53 113.36 25.76L113.36 25.75L113.46 25.86Q113.37 25.56 113.37 25.31L113.36 25.30L113.36 25.31Q113.41 22.99 115.86 22.13L115.71 21.98L115.71 21.98Q116.45 21.75 117.35 21.75Z"/><path fill="#111" d="M85.59 29.39L85.65 29.46L85.77 29.57Q83.64 29.44 82.33 30.87L82.35 30.89L82.46 31.00Q81.12 32.39 80.95 34.43L80.98 34.46L80.94 34.42Q80.79 36.75 82.10 37.84L82.07 37.80L82.01 37.75Q83.34 38.85 85.62 38.77L85.58 38.73L85.60 38.75Q88.06 38.56 89.08 37.54L89.02 37.48L89.18 37.64Q90.13 35.93 90.00 33.97L90.08 34.05L90.07 34.04Q89.98 32.08 88.82 30.79L88.81 30.78L88.70 30.68Q87.64 29.48 85.68 29.48ZM85.58 19.32L85.70 19.43L85.60 19.34Q84.16 19.28 82.74 19.81L82.79 19.87L82.67 19.74Q81.38 20.70 81.62 22.70L81.57 22.64L81.59 22.67Q82.17 26.71 85.76 26.71L85.61 26.56L85.63 26.58Q87.34 26.83 88.40 25.60L88.48 25.68L88.44 25.64Q89.54 24.45 89.58 22.78L89.42 22.62L89.44 22.64Q89.61 20.86 88.84 20.20L88.91 20.27L88.91 20.27Q87.00 19.27 85.62 19.35ZM85.35 41.39L85.38 41.42L82.10 41.41L82.06 41.37Q80.37 41.31 78.94 40.37L79.00 40.43L78.96 40.39Q77.61 39.29 77.78 36.23L77.69 36.14L77.65 36.10Q78.20 28.82 82.08 27.76L82.05 27.73L82.01 27.70Q79.61 26.76 78.18 21.01L78.25 21.07L78.15 20.98Q77.77 19.46 77.85 18.60L77.88 18.63L77.91 18.66Q78.33 16.47 82.29 16.43L82.24 16.38L82.14 16.28Q86.73 16.26 88.28 16.46L88.24 16.43L88.37 16.55Q92.47 17.11 92.96 19.27L92.92 19.23L92.91 19.22Q93.02 19.86 93.02 20.27L92.98 20.22L92.95 20.20Q93.10 21.09 92.90 21.74L92.88 21.71L92.80 21.64Q92.23 26.24 89.09 27.88L88.95 27.74L88.93 27.72Q92.82 28.72 93.35 34.39L93.37 34.40L93.38 34.41Q93.22 34.41 93.26 35.80L93.42 35.96L93.43 35.97Q93.38 38.78 91.67 39.92L91.67 39.92L91.79 40.05Q90.18 40.84 85.29 41.33ZM87.79 43.88L87.80 43.89L91.33 43.90L91.39 43.96Q93.18 44.01 94.81 43.23L94.78 43.20L94.88 43.30Q96.04 42.45 96.12 40.46L96.10 40.44L96.12 40.45Q96.30 39.41 95.89 37.33L95.73 37.17L95.77 37.21Q94.87 32.31 92.63 30.31L92.62 30.31L92.29 29.77L92.18 29.58L91.98 29.26L92.04 29.32Q93.72 27.78 94.70 23.33L94.78 23.42L94.71 23.34Q94.69 22.91 94.77 22.01L94.75 22.00L94.76 22.01Q94.83 21.26 94.75 20.61L94.80 20.66L94.83 20.69Q94.67 19.15 93.41 18.62L93.42 18.63L93.51 18.68L93.21 18.46L93.21 18.46Q93.01 17.77 91.75 16.91L91.65 16.82L91.75 16.87L91.64 16.77Q89.60 16.11 85.23 15.91L85.20 15.88L85.24 15.92Q83.53 15.75 82.06 15.87L82.02 15.84L82.10 15.92Q81.18 15.89 79.79 16.05L79.90 16.16L79.90 16.16Q77.74 16.49 77.50 18.25L77.59 18.33L77.48 18.22Q77.42 18.73 77.46 19.59L77.44 19.58L77.51 19.64Q77.70 20.28 78.31 22.81L78.16 22.66L78.20 22.70Q79.15 26.26 81.03 27.69L80.91 27.57L81.02 27.68L81.06 27.72Q78.12 29.14 77.55 34.69L77.45 34.59L77.58 34.72Q77.38 37.09 77.38 38.07L77.28 37.98L77.26 37.96Q77.35 39.87 78.61 40.85L78.58 40.82L78.62 40.86Q78.75 40.95 79.03 41.15L79.05 41.17L79.15 41.27Q80.21 43.67 87.83 43.92ZM87.41 32.00L87.43 32.01L87.35 31.94Q88.33 31.85 89.27 32.34L89.27 32.35L89.38 32.45Q89.73 33.45 89.69 34.03L89.70 34.04L89.81 34.15Q89.68 34.30 89.68 34.63L89.67 34.62L89.76 34.71Q89.74 37.21 87.29 38.11L87.32 38.14L87.40 38.22Q86.52 38.52 85.66 38.40L85.50 38.24L85.50 38.24Q84.43 38.47 83.20 37.98L83.16 37.94L83.17 37.95Q82.98 37.35 83.06 36.29L83.00 36.23L82.94 36.17Q83.09 34.45 84.38 33.14L84.35 33.11L84.36 33.12Q85.63 31.81 87.35 31.93ZM87.66 21.84L87.74 21.92L87.66 21.84Q88.48 21.69 89.06 21.85L89.09 21.89L89.17 22.82L89.05 22.70Q89.10 24.26 88.12 25.34L88.18 25.40L88.19 25.41Q87.17 26.45 85.70 26.25L85.66 26.21L85.65 26.20Q84.57 26.18 84.12 25.93L84.12 25.93L84.25 26.06Q84.22 25.79 84.10 25.05L84.06 25.01L84.09 25.04Q83.76 23.49 85.07 22.59L84.94 22.46L85.05 22.57Q86.15 21.80 87.66 21.84Z"/></svg>