<svg xmlns="http://www.w3.org/2000/svg" width="150" height="50" viewbox="0,0,150,50"><path d="M5 44 C58 25,69 14,138 31" stroke="#e5c566" fill="none"/><path fill="#e689e6" d="M26.39 22.80L26.22 22.62L26.40 22.80Q21.69 22.67 19.08 21.15L19.12 21.18L19.09 21.15Q22.70 19.21 29.66 13.18L29.68 13.20L29.70 13.22Q30.78 12.99 32.62 12.12L32.61 12.11L32.57 12.07Q30.71 20.59 30.55 29.67L30.41 29.53L30.47 29.60Q30.38 38.75 31.90 47.45L31.95 47.50L31.79 47.34Q29.42 46.32 26.37 46.16L26.42 46.21L26.42 46.21Q26.22 40.25 26.22 34.43L26.19 34.40L26.20 34.41Q26.34 28.67 26.39 22.80ZM25.70 25.86L25.68 46.67L25.79 46.78Q27.49 46.74 28.85 47.01L28.84 47.00L28.78 46.94Q29.07 48.10 29.34 50.06L29.16 49.88L29.21 49.92Q33.25 50.65 36.73 53.86L36.77 53.89L36.72 53.84Q33.23 43.72 33.17 33.06L33.17 33.05L33.16 33.05Q33.11 22.44 35.72 12.11L35.77 12.16L35.76 12.15Q34.91 12.66 32.63 14.24L32.76 14.37L32.64 14.25Q32.99 13.24 33.42 11.06L33.46 11.10L33.39 11.04Q31.44 12.08 29.38 12.62L29.39 12.64L29.49 12.74Q24.04 17.78 17.89 21.04L17.79 20.94L17.97 21.12Q19.92 22.64 23.29 23.12L23.21 23.04L23.22 23.05Q22.41 23.93 20.56 25.45L20.52 25.41L20.42 25.31Q22.58 25.89 25.73 25.89L25.86 26.02Z"/><path fill="#eac861" d="M61.51 48.30L61.34 48.13L57.22 48.09L57.13 48.00Q53.68 47.82 52.54 47.65L52.54 47.65L52.52 47.63Q49.94 47.17 48.25 45.92L48.23 45.90L48.22 45.89Q46.47 43.98 46.15 39.19L46.00 39.05L46.10 39.15Q46.04 38.44 45.94 36.70L46.02 36.78L45.98 36.74Q45.99 36.15 45.88 34.57L45.84 34.54L45.90 34.60Q45.70 33.25 45.75 32.22L45.87 32.34L45.78 32.25Q46.16 29.58 47.63 28.49L47.55 28.41L47.57 28.44Q50.28 26.74 57.19 26.41L57.23 26.46L57.26 26.49Q60.11 26.29 61.25 26.29L61.25 26.29L61.24 26.28Q63.36 26.28 65.32 26.72L65.38 26.77L65.28 26.67Q64.61 28.62 63.85 31.23L63.85 31.23L63.79 31.16Q63.10 31.29 62.39 31.24L62.38 31.23L62.31 31.16Q62.10 31.05 61.34 30.89L61.45 31.00L59.99 30.58L60.04 30.62Q58.54 30.27 57.67 30.32L57.70 30.35L57.77 30.42Q50.95 30.46 50.08 34.48L50.10 34.50L50.09 34.49Q49.65 36.06 49.76 37.42L49.83 37.49L49.72 37.39Q50.06 41.20 51.82 42.75L51.82 42.74L51.72 42.65Q53.56 44.27 57.26 44.32L57.22 44.28L57.29 44.36Q59.33 44.33 60.36 43.89L60.35 43.88L61.84 43.20L61.96 43.32Q62.70 42.97 63.52 42.86L63.45 42.79L63.38 42.73Q63.67 45.24 64.22 47.09L64.32 47.20L64.34 47.21Q63.89 47.64 61.34 48.13ZM65.97 52.33L66.10 52.46L65.98 52.34Q66.69 52.56 67.89 52.67L67.72 52.50L67.74 52.52Q68.82 52.73 69.31 51.91L69.23 51.84L69.21 51.81Q67.38 48.74 66.68 45.75L66.80 45.86L66.79 45.86Q66.19 45.69 65.53 45.69L65.53 45.69L65.61 45.77Q64.95 45.70 64.40 45.98L64.47 46.04L64.39 45.96Q63.91 44.17 63.69 42.16L63.75 42.23L63.86 42.34Q62.84 42.08 61.10 42.89L61.16 42.95L61.14 42.93Q59.50 43.84 58.79 43.84L58.64 43.69L58.79 43.84Q58.15 43.91 57.28 43.86L57.26 43.84L57.12 43.69Q55.81 43.64 52.99 42.82L52.96 42.80L53.01 42.85Q52.56 41.85 52.61 40.22L52.54 40.15L52.58 40.19Q52.89 34.19 59.96 33.43L60.04 33.51L59.96 33.42Q60.92 33.41 62.88 33.90L62.95 33.98L62.83 33.85Q64.82 34.38 65.86 34.32L65.95 34.41L65.98 34.45Q66.52 31.18 67.50 28.57L67.41 28.48L67.48 28.55Q66.84 28.28 66.29 28.18L66.46 28.34L65.29 28.15L65.37 28.24Q65.47 27.36 66.02 26.11L66.10 26.19L66.09 26.18Q63.84 25.62 61.61 25.62L61.68 25.69L61.76 25.76Q58.25 25.68 51.99 26.22L52.11 26.34L52.04 26.27Q49.22 26.44 46.99 27.86L46.98 27.84L47.07 27.94Q45.32 29.29 45.32 32.01L45.20 31.88L45.22 31.91Q45.34 32.62 45.51 34.36L45.37 34.23L45.46 34.32Q45.48 35.70 45.42 36.57L45.56 36.70L45.40 36.54Q45.62 39.43 46.66 44.76L46.49 44.59L46.49 44.59Q47.12 45.88 47.83 46.59L47.75 46.50L48.13 46.88L48.25 46.95L48.27 46.97Q49.70 49.98 55.30 50.85L55.32 50.87L55.20 50.75Q59.86 51.60 63.67 51.98L63.56 51.88L63.56 51.87Q64.77 52.05 66.07 52.43Z"/><path fill="#ec8c8c" d="M96.02 43.51L95.97 43.46L96.04 43.52Q96.31 44.77 97.07 47.66L97.18 47.76L97.16 47.75Q91.17 45.89 84.59 46.27L84.45 46.13L84.60 46.28Q78.01 46.60 72.30 49.43L72.37 49.50L72.28 49.41Q72.54 48.36 72.60 48.47L72.68 48.55L72.69 48.56Q78.05 42.94 83.65 36.63L83.62 36.60L83.57 36.54Q89.90 29.44 91.58 22.75L91.59 22.75L91.57 22.74Q92.27 20.28 90.45 18.60L90.45 18.60L90.44 18.59Q88.54 16.83 85.98 17.04L86.09 17.15L86.15 17.21Q85.52 17.02 85.03 17.02L85.17 17.16L84.99 16.98Q82.82 16.98 81.02 18.28L81.04 18.30L81.11 18.37Q79.19 20.25 79.51 24.06L79.59 24.14L79.54 24.09Q77.02 23.64 75.28 22.99L75.29 23.00L75.30 23.01Q75.09 21.05 74.98 18.98L74.83 18.83L74.84 18.85Q74.79 16.57 75.66 14.93L75.70 14.98L75.64 14.92Q78.19 12.95 82.98 12.95L83.08 13.05L85.44 12.91L85.59 13.06Q88.76 13.02 90.12 13.18L90.13 13.20L90.17 13.24Q96.28 13.74 96.66 17.22L96.74 17.31L96.74 17.31Q96.89 18.16 96.78 19.31L96.74 19.27L96.63 19.15Q96.68 20.18 96.47 21.16L96.43 21.13L96.44 21.14Q94.01 32.63 83.19 42.42L83.22 42.45L83.27 42.50Q85.37 42.37 87.33 42.37L87.25 42.29L87.25 42.29Q91.89 42.31 95.96 43.45ZM95.13 13.68L95.13 13.68L95.09 13.64Q92.78 12.69 90.33 12.58L90.41 12.66L85.52 12.39L85.56 12.43Q79.22 12.08 76.07 13.65L76.06 13.65L76.07 13.66Q74.42 15.49 74.42 18.42L74.43 18.43L74.40 18.41Q74.59 19.57 75.02 23.60L74.99 23.56L74.95 23.52Q75.81 23.95 77.49 24.38L77.40 24.28L77.34 25.70L77.34 25.69Q77.34 26.40 77.45 27.16L77.50 27.22L77.47 27.19Q79.31 27.39 82.84 27.72L82.78 27.66L82.89 27.76Q82.81 27.20 82.81 26.71L82.64 26.53L82.67 26.56Q82.66 23.94 84.40 22.01L84.52 22.13L84.53 22.14Q86.19 20.14 88.75 20.30L88.84 20.39L88.69 20.24Q89.79 20.30 90.87 20.52L90.89 20.54L90.97 20.61Q91.15 21.18 91.26 21.78L91.22 21.74L91.12 21.64Q91.19 22.25 91.09 22.74L91.12 22.78L91.08 22.74Q89.38 29.63 83.07 36.54L82.99 36.45L83.07 36.53Q80.06 39.78 72.28 48.43L72.25 48.40L72.31 48.46Q72.02 49.64 71.53 50.45L71.52 50.44L71.52 50.44Q73.82 49.21 76.00 48.44L75.90 48.35L75.90 48.35Q74.91 49.20 73.55 51.32L73.48 51.25L73.47 51.24Q73.42 51.85 73.26 52.34L73.27 52.35L73.25 52.33Q80.13 49.31 87.96 49.59L88.04 49.66L87.92 49.54Q96.21 49.95 102.73 53.32L102.59 53.17L101.19 50.15L101.14 50.10Q100.27 48.25 99.89 47.10L99.87 47.09L99.89 47.10Q98.85 46.50 97.11 45.90L97.18 45.97L97.19 45.98Q96.86 44.83 96.31 42.87L96.34 42.90L96.42 42.98Q93.22 42.12 89.95 41.84L89.95 41.84L89.98 41.87Q96.56 35.24 98.74 23.44L98.85 23.55L99.10 19.39L99.07 19.36Q99.08 16.92 97.34 15.94L97.23 15.84L97.19 15.85L97.13 15.79Q97.22 15.83 97.11 15.83L96.99 15.70L96.99 15.71Q96.75 14.59 95.17 13.72Z"/><path fill="#5cdaba" d="M122.40 47.71L122.41 47.72L122.40 47.71Q120.55 45.32 118.70 40.91L118.67 40.88L115.72 33.63L115.82 33.73Q113.38 39.29 112.51 41.14L112.53 41.15L112.50 41.13Q110.49 45.37 108.20 48.09L108.30 48.18L108.33 48.21Q107.60 48.03 106.51 48.19L106.60 48.28L106.63 48.30Q106.66 37.73 98.34 29.25L98.19 29.10L98.26 29.17Q95.69 26.49 92.81 24.37L92.89 24.45L92.89 24.45Q95.58 25.30 98.25 25.73L98.14 25.62L98.18 25.66Q106.91 32.81 108.97 41.73L108.94 41.70L108.90 41.66Q110.26 39.10 111.94 34.53L111.94 34.53L111.93 34.52Q113.83 29.13 114.64 27.28L114.59 27.23L116.64 27.26L116.66 27.28Q117.83 29.65 119.52 34.33L119.51 34.32L119.66 34.48Q121.36 39.49 122.28 41.50L122.46 41.68L122.37 41.59Q124.98 32.62 132.81 26.09L132.72 25.99L132.76 26.03Q134.47 25.89 138.38 25.08L138.52 25.22L138.51 25.20Q126.11 33.74 124.42 47.99L124.36 47.93L123.39 47.72L123.42 47.75Q122.95 47.71 122.46 47.77ZM126.81 51.36L129.77 51.65L129.73 51.61Q129.13 49.27 129.13 47.10L129.30 47.26L129.19 47.16Q129.14 42.48 131.15 37.86L131.26 37.97L131.15 37.86Q134.11 31.52 139.99 27.12L139.90 27.03L139.86 26.99Q138.27 27.52 135.60 28.01L135.60 28.00L135.45 27.86Q138.31 25.55 140.16 24.25L140.16 24.24L136.56 24.89L136.60 24.93Q134.81 25.21 132.91 25.42L133.04 25.55L132.91 25.42Q125.49 31.44 122.72 38.62L122.83 38.73L122.82 38.72Q121.78 35.51 119.82 29.41L119.96 29.55L119.92 29.51Q119.41 29.49 119.03 29.49L119.18 29.64L118.40 29.62L118.27 29.49Q118.27 29.22 117.13 26.72L116.99 26.58L114.19 26.72L114.03 26.56Q112.72 30.63 109.73 38.68L109.73 38.69L109.68 38.63Q107.76 33.34 103.35 28.66L103.49 28.80L103.36 28.67Q103.00 28.69 102.57 28.64L102.54 28.61L101.90 28.62L101.87 28.60Q100.59 27.37 98.04 25.08L97.98 25.03L98.05 25.10Q93.46 24.10 91.07 23.39L91.18 23.51L91.13 23.45Q106.54 34.19 106.00 48.93L105.97 48.90L106.00 48.93Q106.13 48.79 106.65 48.73L106.78 48.86L106.80 48.89Q107.15 48.67 107.43 48.67L107.56 48.80L107.48 48.72Q107.51 48.54 107.78 51.53L107.73 51.48L110.57 51.32L110.61 51.36Q114.29 47.32 117.50 39.11L117.56 39.17L117.50 39.11Q119.55 44.54 122.22 48.34L122.30 48.42L122.26 48.38Q122.70 48.34 123.08 48.37L123.03 48.31L123.15 48.43Q123.36 48.29 123.74 48.29L123.82 48.37L126.68 51.23Z"/></svg>