<svg xmlns="http://www.w3.org/2000/svg" width="150" height="50" viewbox="0,0,150,50"><path fill="#e54ce5" d="M90.69 33.33L90.85 33.50L90.69 33.33Q90.97 31.44 89.80 30.13L89.74 30.08L89.67 30.00Q88.57 28.76 86.50 28.82L86.43 28.74L86.47 28.78Q83.10 28.84 81.90 31.89L82.05 32.04L82.04 32.02Q81.67 33.18 81.62 34.16L81.60 34.15L81.56 34.10Q81.19 40.96 79.88 47.16L79.99 47.27L80.01 47.29Q77.56 47.99 74.89 49.41L74.81 49.33L74.89 49.40Q78.10 39.40 77.72 28.96L77.81 29.05L77.83 29.06Q77.38 18.51 73.74 8.77L73.63 8.66L73.63 8.66Q76.21 10.58 79.09 11.56L79.00 11.47L79.18 11.65Q81.23 19.90 81.50 28.28L81.46 28.24L81.53 28.30Q83.45 25.28 87.32 25.39L87.24 25.32L87.35 25.42Q94.58 25.53 94.74 33.20L94.72 33.18L94.71 33.16Q94.83 41.23 96.79 47.87L96.93 48.01L96.78 47.86Q94.19 46.74 91.69 46.47L91.63 46.40L91.80 46.57Q90.86 41.72 90.70 33.35ZM91.13 46.83L91.32 47.02L91.31 47.01Q92.67 47.07 94.25 47.45L94.38 47.58L94.23 47.43Q94.41 47.76 95.17 50.59L95.09 50.51L95.15 50.58Q99.44 51.98 102.32 54.05L102.29 54.02L102.25 53.98Q98.33 45.66 97.57 36.63L97.61 36.66L97.60 36.65Q97.12 31.34 95.11 29.11L95.18 29.18L95.20 29.20Q95.11 29.00 94.18 28.34L94.30 28.46L94.14 28.30Q93.81 27.59 92.89 26.50L92.88 26.50L93.07 26.58L93.05 26.56Q91.72 25.22 87.26 24.84L87.22 24.81L87.30 24.89Q86.35 24.97 84.34 25.46L84.25 25.37L84.23 25.35Q83.94 18.43 83.45 14.84L83.39 14.77L83.41 14.79Q82.30 14.61 80.18 14.18L80.23 14.23L80.32 14.32Q79.96 13.14 79.58 11.02L79.70 11.14L79.67 11.11Q75.47 9.74 72.80 7.51L72.70 7.40L72.72 7.43Q77.01 17.70 77.39 28.85L77.38 28.84L77.24 28.70Q77.78 39.95 74.13 50.44L74.19 50.50L74.08 50.39Q75.30 49.43 76.93 48.72L77.07 48.86L75.96 52.06L75.95 52.04Q80.36 50.09 83.19 49.81L83.27 49.89L83.33 49.96Q84.02 42.11 84.29 36.45L84.27 36.43L84.35 36.52Q84.60 33.99 87.37 32.41L87.24 32.28L87.39 32.42Q87.92 31.87 88.69 31.93L88.68 31.92L88.81 32.05Q88.99 32.02 89.48 32.07L89.49 32.08L90.23 32.33L90.10 32.20Q90.16 32.81 90.32 33.46L90.38 33.51L90.33 33.47Q90.50 42.01 91.20 46.90Z"/><path fill="#7552df" d="M54.97 30.91L55.06 31.01L55.13 31.07Q52.47 31.08 50.73 32.98L50.71 32.96L50.63 32.88Q48.93 34.82 48.71 37.54L48.68 37.51L48.58 37.41Q48.40 40.55 50.14 41.99L50.21 42.06L50.16 42.01Q51.98 43.53 55.03 43.43L54.84 43.24L54.87 43.27Q58.34 43.21 59.70 41.85L59.68 41.82L59.58 41.72Q61.00 39.61 60.83 36.99L60.88 37.04L60.85 37.01Q60.74 34.40 59.19 32.69L59.22 32.71L59.17 32.67Q57.70 31.03 55.09 31.03ZM54.93 17.44L54.94 17.45L55.07 17.58Q52.93 17.29 51.03 18.00L50.99 17.96L51.15 18.12Q49.18 19.14 49.50 21.80L49.49 21.79L49.63 21.93Q50.21 27.13 55.00 27.13L55.08 27.22L55.02 27.15Q57.17 27.35 58.59 25.72L58.77 25.90L58.63 25.76Q60.06 24.14 60.11 21.91L60.18 21.98L60.15 21.95Q60.32 19.52 59.29 18.65L59.22 18.57L59.26 18.62Q56.75 17.30 54.90 17.41ZM54.66 46.91L54.58 46.84L50.32 46.93L50.16 46.77Q48.02 46.81 46.12 45.56L46.10 45.54L46.23 45.67Q44.19 43.96 44.41 39.88L44.49 39.96L44.37 39.84Q45.05 30.08 50.22 28.67L50.28 28.72L50.21 28.66Q47.03 27.43 45.13 19.77L45.11 19.75L45.04 19.68Q44.62 17.73 44.72 16.59L44.68 16.55L44.72 16.58Q45.21 13.59 50.49 13.54L50.50 13.55L50.38 13.43Q56.50 13.40 58.56 13.68L58.58 13.70L58.54 13.66Q63.97 14.35 64.62 17.23L64.76 17.37L64.63 17.24Q64.77 18.09 64.77 18.63L64.90 18.76L64.85 18.71Q64.77 19.61 64.50 20.48L64.59 20.58L64.52 20.50Q63.64 26.53 59.46 28.71L59.54 28.79L59.47 28.72Q64.46 29.86 65.17 37.42L65.23 37.47L65.23 37.47Q65.11 37.57 65.17 39.42L65.34 39.60L65.36 39.61Q65.28 43.34 62.99 44.87L63.16 45.03L63.11 44.98Q61.16 46.24 54.64 46.90ZM57.90 50.21L57.94 50.25L62.57 50.20L62.58 50.21Q65.11 50.41 67.29 49.38L67.30 49.39L67.37 49.46Q69.00 48.43 69.11 45.76L69.04 45.69L68.98 45.63Q69.12 44.13 68.57 41.36L68.50 41.28L68.51 41.30Q67.18 34.64 64.19 31.98L64.20 31.98L63.88 31.40L63.68 31.08L63.38 30.62L63.43 30.67Q65.90 28.84 67.20 22.92L67.10 22.81L67.06 22.77Q67.04 22.20 67.14 21.01L67.31 21.17L67.28 21.14Q67.30 20.07 67.19 19.20L67.20 19.22L67.17 19.19Q67.02 17.19 65.34 16.48L65.26 16.40L65.30 16.39L65.03 16.23L65.14 16.34Q64.71 15.26 63.03 14.11L62.94 14.03L63.12 14.15L63.15 14.19Q60.27 13.16 54.45 12.88L54.44 12.87L54.37 12.80Q52.15 12.64 50.19 12.81L50.26 12.88L50.28 12.90Q49.12 12.94 47.27 13.16L47.28 13.16L47.16 13.04Q44.48 13.68 44.15 16.02L44.06 15.93L44.25 16.11Q44.12 16.75 44.17 17.89L44.11 17.82L44.14 17.86Q44.27 18.58 45.08 21.95L45.09 21.96L45.20 22.07Q46.26 26.61 48.76 28.51L48.80 28.55L48.89 28.64L48.91 28.66Q45.01 30.58 44.25 37.97L44.22 37.95L44.16 37.89Q43.95 41.11 43.95 42.41L43.95 42.41L43.98 42.44Q43.97 44.87 45.66 46.18L45.66 46.19L45.69 46.21Q45.81 46.28 46.19 46.55L46.24 46.60L46.19 46.55Q47.78 49.94 57.95 50.26ZM57.43 34.40L57.32 34.30L57.32 34.29Q58.68 34.24 59.93 34.89L59.98 34.95L59.91 34.87Q60.57 36.41 60.52 37.17L60.41 37.06L60.38 37.03Q60.54 37.57 60.54 38.01L60.42 37.89L60.47 37.94Q60.48 41.31 57.21 42.51L57.28 42.58L57.31 42.61Q56.12 43.00 54.98 42.83L54.87 42.73L54.95 42.80Q53.33 42.92 51.69 42.27L51.66 42.23L51.64 42.21Q51.31 41.34 51.42 39.93L51.38 39.88L51.36 39.87Q51.76 37.77 53.48 36.03L53.44 35.99L53.31 35.86Q55.02 34.11 57.30 34.28ZM57.78 20.89L57.76 20.87L57.61 20.72Q58.81 20.61 59.57 20.83L59.56 20.82L59.58 21.98L59.59 21.99Q59.70 24.11 58.39 25.55L58.30 25.46L58.36 25.52Q56.94 26.85 54.98 26.57L55.04 26.63L55.04 26.63Q53.53 26.53 52.93 26.21L53.07 26.35L53.02 26.30Q53.07 26.02 52.90 25.04L52.86 25.00L52.80 24.94Q52.49 23.00 54.23 21.80L54.19 21.76L54.27 21.83Q55.60 20.67 57.62 20.72Z"/><path fill="#bc8fe9" d="M114.21 30.95L114.14 30.88L114.15 30.89Q111.51 30.92 109.77 32.82L109.79 32.84L109.91 32.96Q108.04 34.74 107.83 37.46L107.97 37.60L107.91 37.54Q107.52 40.47 109.26 41.91L109.32 41.97L109.29 41.94Q111.10 43.45 114.14 43.34L114.20 43.40L114.19 43.39Q117.43 43.09 118.78 41.73L118.87 41.81L118.85 41.79Q120.18 39.59 120.02 36.98L120.01 36.97L120.21 37.17Q119.99 34.45 118.44 32.74L118.49 32.78L118.44 32.73Q116.80 30.93 114.19 30.93ZM114.27 17.58L114.18 17.49L114.15 17.46Q112.18 17.34 110.28 18.05L110.19 17.95L110.28 18.05Q108.50 19.26 108.83 21.92L108.66 21.76L108.74 21.84Q109.42 27.14 114.21 27.14L114.27 27.21L114.29 27.22Q116.49 27.47 117.90 25.84L117.97 25.90L117.95 25.89Q119.37 24.26 119.43 22.03L119.28 21.88L119.39 21.99Q119.42 19.42 118.39 18.55L118.46 18.61L118.33 18.48Q116.08 17.43 114.23 17.54ZM113.75 46.81L113.80 46.86L109.39 46.80L109.37 46.78Q107.37 46.95 105.46 45.70L105.44 45.68L105.46 45.70Q103.33 43.90 103.55 39.82L103.68 39.94L103.68 39.94Q104.26 30.08 109.42 28.67L109.38 28.62L109.49 28.73Q106.23 27.43 104.33 19.77L104.22 19.66L104.25 19.69Q103.82 17.73 103.93 16.59L104.00 16.66L103.83 16.50Q104.35 13.53 109.62 13.48L109.69 13.54L109.59 13.45Q115.56 13.27 117.62 13.54L117.70 13.61L117.64 13.55Q123.14 14.32 123.79 17.20L123.95 17.36L123.96 17.37Q123.97 18.09 123.97 18.63L124.05 18.71L124.02 18.68Q124.07 19.71 123.80 20.58L123.69 20.47L123.71 20.49Q122.82 26.51 118.63 28.69L118.78 28.83L118.69 28.75Q123.65 29.84 124.36 37.40L124.42 37.47L124.47 37.52Q124.45 37.71 124.50 39.56L124.45 39.50L124.48 39.54Q124.53 43.40 122.25 44.92L122.24 44.91L122.37 45.04Q120.31 46.19 113.79 46.84ZM117.06 50.17L116.97 50.08L121.79 50.22L121.81 50.25Q124.23 50.33 126.41 49.30L126.53 49.42L126.47 49.36Q128.04 48.26 128.15 45.60L128.19 45.64L128.14 45.59Q128.19 44.01 127.64 41.23L127.64 41.23L127.65 41.24Q126.48 34.74 123.49 32.07L123.42 32.00L123.10 31.41L122.89 31.09L122.58 30.62L122.66 30.70Q125.06 28.80 126.36 22.87L126.31 22.82L126.35 22.86Q126.31 22.28 126.42 21.08L126.33 20.99L126.49 21.15Q126.55 20.12 126.44 19.25L126.34 19.15L126.44 19.26Q126.25 17.21 124.56 16.50L124.53 16.47L124.64 16.52L124.33 16.33L124.32 16.32Q124.01 15.36 122.33 14.22L122.16 14.04L122.28 14.12L122.28 14.11Q119.37 13.05 113.55 12.78L113.68 12.91L113.67 12.90Q111.39 12.68 109.43 12.85L109.45 12.87L109.40 12.82Q108.23 12.84 106.38 13.06L106.36 13.05L106.49 13.17Q103.61 13.61 103.28 15.94L103.34 16.00L103.29 15.95Q103.26 16.68 103.31 17.82L103.36 17.88L103.28 17.79Q103.45 18.56 104.26 21.93L104.40 22.07L104.24 21.91Q105.50 26.65 108.01 28.55L107.98 28.53L108.18 28.73L108.14 28.69Q104.16 30.52 103.39 37.92L103.44 37.97L103.27 37.79Q103.19 41.14 103.19 42.45L103.15 42.41L103.04 42.30Q103.15 44.86 104.84 46.16L104.82 46.14L104.86 46.19Q105.02 46.29 105.40 46.56L105.44 46.60L105.43 46.59Q106.82 49.78 116.99 50.10ZM116.49 34.26L116.52 34.30L116.63 34.40Q117.79 34.15 119.04 34.81L119.17 34.93L119.06 34.82Q119.65 36.28 119.59 37.04L119.57 37.02L119.62 37.07Q119.70 37.53 119.70 37.96L119.61 37.88L119.73 38.00Q119.59 41.22 116.32 42.42L116.39 42.49L116.36 42.46Q115.20 42.87 114.06 42.71L114.13 42.79L114.16 42.81Q112.61 43.00 110.97 42.35L110.95 42.32L110.98 42.35Q110.57 41.40 110.68 39.99L110.69 40.00L110.66 39.96Q110.83 37.63 112.54 35.89L112.67 36.02L112.50 35.85Q114.28 34.17 116.56 34.34ZM116.95 20.86L116.90 20.81L116.83 20.73Q118.08 20.69 118.85 20.91L118.84 20.90L118.80 22.00L118.78 21.98Q118.78 23.99 117.47 25.43L117.48 25.44L117.56 25.52Q116.30 27.00 114.34 26.73L114.31 26.70L114.32 26.71Q112.90 26.71 112.30 26.38L112.22 26.30L112.19 26.27Q112.22 25.98 112.06 25.00L112.08 25.02L111.92 24.85Q111.66 22.96 113.40 21.77L113.45 21.82L113.29 21.66Q114.97 20.84 116.98 20.89Z"/><path d="M2 31 C83 42,74 26,144 7" stroke="#9f85ef" fill="none"/><path fill="#e45277" d="M25.50 17.32L25.58 17.39L23.36 17.57L23.35 17.55Q20.17 17.75 19.85 20.63L19.83 20.62L19.76 20.55Q19.62 21.54 19.67 22.96L19.63 22.92L19.60 22.89Q19.69 25.70 21.49 27.60L21.62 27.73L21.59 27.71Q23.36 29.59 26.08 29.37L26.12 29.41L26.13 29.42Q29.07 29.20 30.16 27.90L30.04 27.78L30.14 27.88Q31.56 26.48 31.95 23.27L31.98 23.30L32.02 23.34Q32.38 20.11 30.58 18.91L30.61 18.94L30.58 18.91Q29.24 17.67 25.43 17.24ZM34.08 30.46L34.12 30.49L32.34 33.84L32.36 33.85Q28.42 40.63 23.04 46.45L23.06 46.47L22.98 46.38Q20.78 46.74 16.92 47.88L16.91 47.87L16.97 47.94Q24.40 38.78 28.92 31.93L29.05 32.06L28.93 31.94Q27.52 32.92 25.18 33.03L25.13 32.98L25.29 33.15Q20.91 33.28 18.73 30.45L18.80 30.52L18.79 30.50Q16.98 28.15 15.40 21.62L15.35 21.57L15.39 21.62Q15.34 20.91 15.12 19.58L15.23 19.68L15.21 19.67Q14.87 18.21 14.87 17.56L15.07 17.76L14.92 17.61Q15.01 15.14 16.53 14.27L16.51 14.25L16.56 14.30Q18.27 13.18 20.93 13.18L20.98 13.22L20.91 13.16Q25.45 13.13 25.45 13.13L25.48 13.15L25.38 13.06Q28.60 13.23 30.39 13.50L30.30 13.41L30.30 13.41Q33.39 13.84 34.70 14.55L34.71 14.56L34.75 14.59Q36.63 15.60 36.90 18.11L36.94 18.15L36.97 18.17Q37.02 18.56 36.75 22.36L36.75 22.36L36.68 22.29Q36.07 25.27 35.74 26.46L35.73 26.45L35.88 26.60Q35.32 28.60 34.23 30.61ZM36.86 33.95L36.82 33.90L36.83 33.91Q38.39 30.90 39.15 24.76L39.15 24.76L39.13 24.74Q39.39 21.47 39.34 20.21L39.46 20.34L39.49 20.37Q39.29 17.55 37.60 16.25L37.70 16.35L37.25 16.17L37.24 16.16Q36.92 15.13 35.61 14.21L35.61 14.20L35.51 14.11Q32.17 12.61 25.32 12.39L25.42 12.50L25.42 12.50Q24.04 12.48 20.56 12.48L20.49 12.41L20.50 12.42Q18.00 12.42 15.88 13.40L16.04 13.56L15.89 13.41Q14.32 14.61 14.43 17.22L14.49 17.28L14.47 17.26Q14.78 18.61 15.06 21.50L15.02 21.46L14.95 21.39Q15.75 25.08 16.13 26.27L16.14 26.28L16.19 26.33Q16.95 28.94 18.31 30.79L18.45 30.92L18.41 30.89Q18.70 31.28 19.24 31.83L19.25 31.84L19.42 32.00Q19.74 32.60 20.67 33.91L20.61 33.84L20.68 33.92Q22.71 35.79 25.49 36.06L25.47 36.05L25.50 36.07Q22.86 39.95 20.63 42.67L20.64 42.69L15.33 48.80L15.41 48.88Q18.58 47.75 20.92 47.26L20.90 47.24L20.92 47.27Q19.96 48.65 17.73 51.09L17.73 51.09L17.63 50.99Q21.96 49.61 26.42 49.56L26.59 49.73L26.41 49.55Q29.80 45.92 36.00 35.59L36.09 35.67L35.98 35.67L36.08 35.78Q36.32 34.60 36.81 33.89ZM28.39 20.86L28.25 20.72L28.39 20.86Q29.23 20.66 29.88 20.82L29.79 20.73L29.82 20.76Q30.84 21.02 31.38 21.18L31.25 21.05L31.26 21.06Q31.54 21.71 31.64 22.31L31.50 22.17L31.50 22.17Q31.70 22.86 31.54 23.41L31.59 23.45L31.57 23.44Q31.46 25.83 29.77 27.40L29.72 27.35L29.78 27.41Q28.40 28.86 26.07 28.81L25.98 28.72L26.11 28.85Q25.53 28.87 23.36 28.44L23.34 28.43L23.34 28.42Q22.92 27.08 22.92 26.04L22.90 26.02L23.01 26.14Q22.78 25.63 22.78 25.31L22.92 25.44L22.93 25.46Q22.90 22.27 26.16 21.13L26.16 21.12L26.05 21.02Q27.16 20.82 28.36 20.82Z"/></svg>