<svg xmlns="http://www.w3.org/2000/svg" width="150" height="50" viewbox="0,0,150,50"><path fill="#e87777" d="M109.49 46.87L109.57 46.95L109.56 46.94Q107.61 47.11 105.38 46.52L105.36 46.50L105.35 46.49Q103.65 45.22 103.44 42.88L103.40 42.85L103.40 42.85Q103.28 42.51 103.55 38.76L103.54 38.74L103.55 38.76Q104.96 38.42 107.84 37.88L107.85 37.89L107.64 39.04L107.54 38.94Q107.17 41.45 109.18 42.27L109.29 42.38L109.22 42.30Q110.48 42.91 113.47 42.91L113.32 42.76L113.49 42.93Q115.66 42.60 115.93 42.49L115.97 42.53L115.90 42.46Q117.31 42.35 118.35 41.64L118.38 41.68L118.19 41.49Q120.36 40.28 120.08 37.29L119.97 37.18L120.00 37.21Q119.86 33.86 117.38 31.63L117.32 31.56L117.30 31.54Q114.78 29.27 111.25 29.27L111.22 29.24L111.31 29.01L111.31 29.00Q111.75 28.85 113.00 28.74L113.00 28.73L113.04 28.78Q115.73 28.58 117.69 26.81L117.75 26.87L117.69 26.81Q119.67 25.07 119.88 22.40L119.92 22.44L119.98 22.50Q120.10 22.03 120.10 21.54L119.99 21.42L120.04 21.47Q120.12 19.38 118.16 18.07L118.02 17.93L118.14 18.05Q116.24 16.75 113.96 16.92L114.11 17.07L114.13 17.08Q112.19 16.77 110.44 17.37L110.44 17.37L110.47 17.40Q108.29 18.05 107.86 19.68L107.98 19.80L107.95 19.77Q107.78 20.96 107.89 22.05L107.78 21.94L107.84 22.00Q106.33 21.63 103.39 20.60L103.36 20.56L103.31 20.51Q103.03 18.16 103.08 16.97L103.14 17.03L103.21 17.10Q103.20 14.75 104.72 13.77L104.87 13.91L104.87 13.92Q106.77 12.93 109.05 12.93L109.11 12.99L109.10 12.98Q113.62 12.93 118.13 13.31L118.18 13.36L118.04 13.22Q125.41 13.95 124.97 19.34L124.93 19.30L125.01 19.37Q124.87 21.47 124.17 23.70L124.19 23.72L124.16 23.69Q122.76 28.00 119.38 29.30L119.33 29.25L119.34 29.25Q123.20 30.12 124.07 34.91L124.12 34.96L124.12 34.97Q124.47 36.61 124.58 39.50L124.51 39.43L124.56 39.48Q124.64 45.71 118.06 46.36L118.22 46.52L118.17 46.47Q117.14 46.58 109.58 46.96ZM117.02 50.16L116.97 50.11L116.93 50.07Q117.92 50.25 122.00 50.36L121.86 50.21L122.01 50.36Q124.36 50.32 126.70 49.40L126.78 49.47L126.71 49.41Q128.48 48.13 128.20 45.63L128.25 45.67L128.14 45.57Q127.93 43.61 127.49 41.11L127.60 41.22L127.50 41.11Q126.57 34.80 123.79 32.46L123.72 32.39L123.44 31.84L123.42 31.76L123.49 31.83Q125.87 29.64 126.96 23.39L127.14 23.57L126.98 23.42Q127.13 22.85 127.29 21.49L127.28 21.48L127.17 21.37Q127.46 20.47 127.36 19.49L127.18 19.31L127.26 19.40Q127.03 16.99 125.19 16.01L125.15 15.98L125.03 15.97L125.15 16.08Q124.67 14.63 123.04 13.87L123.05 13.88L123.01 13.84Q120.89 12.92 113.55 12.48L113.57 12.50L113.56 12.49Q111.11 12.32 108.82 12.32L108.83 12.33L108.81 12.31Q106.45 12.23 104.27 13.15L104.29 13.18L104.36 13.25Q102.60 14.31 102.60 16.81L102.58 16.79L102.64 16.86Q102.58 16.20 102.97 20.99L102.99 21.02L102.91 20.93Q103.42 21.11 105.76 21.98L105.68 21.91L105.84 22.06Q105.78 22.77 105.72 23.47L105.68 23.43L105.79 23.54Q105.72 24.17 105.77 24.93L105.77 24.93L105.84 25.00Q108.40 25.55 111.28 25.71L111.19 25.62L111.13 25.56Q111.13 22.78 112.70 21.59L112.61 21.50L112.75 21.64Q113.92 20.68 116.80 20.36L116.75 20.31L116.67 20.23Q118.42 20.35 119.24 20.62L119.28 20.66L119.30 20.68Q119.17 20.66 119.23 20.83L119.25 20.84L119.31 21.18L119.50 22.02L119.40 21.92Q119.43 22.22 119.37 22.44L119.51 22.58L119.45 22.52Q119.31 24.93 117.14 26.62L117.08 26.56L117.08 26.56Q115.89 27.98 113.01 28.26L112.92 28.16L112.98 28.23Q111.98 28.48 110.73 28.48L110.61 28.36L110.62 28.37Q110.83 29.01 111.04 29.99L110.94 29.89L110.98 29.93Q113.50 29.94 115.57 30.98L115.60 31.02L115.44 31.01L113.05 31.13L113.11 31.18Q113.08 31.59 113.24 32.46L113.26 32.47L113.41 32.63Q116.32 32.39 118.77 34.29L118.76 34.28L118.79 34.31Q119.23 34.96 119.66 37.30L119.68 37.32L119.69 37.33Q119.78 41.33 115.59 41.93L115.74 42.09L115.65 41.99Q112.78 42.49 111.97 42.44L111.86 42.34L111.85 42.33Q111.13 42.09 110.37 41.98L110.51 42.13L110.42 41.39L110.72 40.86L110.72 40.27L110.79 39.86L110.80 39.86Q109.37 39.90 108.22 40.17L108.18 40.13L108.20 40.14Q108.17 39.84 108.17 39.57L108.13 39.53L108.26 39.66Q108.28 39.36 108.28 39.03L108.32 39.07L108.31 39.06Q108.25 38.34 108.47 37.31L108.58 37.43L108.47 37.31Q105.80 37.63 103.14 38.12L103.11 38.10L103.15 38.14Q103.15 38.85 102.99 40.45L103.01 40.47L103.03 40.49Q102.93 42.16 102.93 43.03L102.83 42.93L102.82 42.93Q102.91 45.84 104.87 46.92L104.89 46.95L104.89 46.95Q107.00 50.21 113.75 49.93L113.74 49.92L113.69 49.88Q114.90 50.00 117.07 50.21Z"/><path d="M15 8 C74 28,96 4,146 37" stroke="#7bb2e9" fill="none"/><path fill="#85e9d0" d="M84.70 17.31L84.70 17.32L82.48 17.48L82.57 17.58Q79.21 17.59 78.89 20.47L79.04 20.62L79.00 20.58Q78.77 21.50 78.82 22.91L79.00 23.08L78.97 23.06Q78.96 25.76 80.75 27.66L80.67 27.59L80.73 27.64Q82.51 29.54 85.23 29.32L85.26 29.35L85.19 29.28Q88.12 29.05 89.21 27.75L89.31 27.85L89.32 27.86Q90.73 26.44 91.11 23.23L91.27 23.39L91.22 23.34Q91.64 20.18 89.85 18.98L89.77 18.90L89.79 18.92Q88.62 17.85 84.81 17.42ZM93.28 30.46L93.34 30.52L91.56 33.86L91.49 33.78Q87.58 40.59 82.20 46.40L82.25 46.46L82.23 46.44Q79.95 46.71 76.09 47.86L76.14 47.91L76.00 47.77Q83.61 38.79 88.12 31.93L88.22 32.03L88.11 31.93Q86.78 32.98 84.44 33.09L84.49 33.15L84.35 33.01Q80.15 33.32 77.98 30.49L78.00 30.52L77.93 30.44Q76.20 28.17 74.62 21.65L74.51 21.54L74.66 21.68Q74.53 20.90 74.31 19.57L74.43 19.69L74.42 19.68Q74.24 18.39 74.24 17.73L74.23 17.72L74.19 17.68Q74.16 15.09 75.68 14.22L75.64 14.18L75.79 14.33Q77.38 13.09 80.04 13.09L80.17 13.22L80.19 13.24Q84.75 13.23 84.75 13.23L84.76 13.23L84.65 13.13Q87.71 13.14 89.50 13.41L89.52 13.43L89.62 13.53Q92.58 13.82 93.88 14.53L93.95 14.59L93.88 14.52Q95.94 15.71 96.21 18.21L96.07 18.08L96.24 18.24Q96.14 18.47 95.87 22.28L95.84 22.25L95.78 22.19Q95.32 25.32 95.00 26.52L95.02 26.55L94.95 26.47Q94.40 28.48 93.31 30.49ZM96.15 34.03L96.10 33.98L96.09 33.98Q97.59 30.90 98.35 24.76L98.33 24.74L98.25 24.66Q98.63 21.51 98.58 20.26L98.58 20.26L98.56 20.24Q98.51 17.58 96.83 16.28L96.85 16.30L96.47 16.19L96.39 16.11Q96.11 15.12 94.81 14.20L94.67 14.06L94.83 14.22Q91.42 12.66 84.57 12.45L84.61 12.49L84.66 12.54Q83.23 12.46 79.75 12.46L79.80 12.52L79.77 12.49Q77.30 12.52 75.17 13.50L75.08 13.40L75.16 13.48Q73.51 14.60 73.61 17.21L73.66 17.26L73.70 17.30Q73.84 18.47 74.11 21.35L74.18 21.42L74.14 21.38Q75.05 25.17 75.43 26.37L75.47 26.41L75.47 26.41Q76.28 29.06 77.64 30.91L77.64 30.91L77.61 30.88Q77.93 31.32 78.48 31.86L78.46 31.85L78.50 31.89Q78.98 32.63 79.90 33.94L79.75 33.79L79.76 33.80Q81.92 35.79 84.69 36.06L84.71 36.08L84.75 36.12Q81.98 39.88 79.75 42.60L79.83 42.68L74.64 48.90L74.54 48.81Q77.90 47.87 80.24 47.38L80.15 47.29L80.09 47.24Q79.01 48.49 76.78 50.94L76.88 51.04L76.90 51.06Q81.18 49.63 85.64 49.58L85.75 49.69L85.63 49.57Q89.00 45.92 95.20 35.58L95.30 35.68L95.14 35.64L95.12 35.61Q95.57 34.65 96.06 33.94ZM87.42 20.68L87.40 20.66L87.44 20.70Q88.39 20.62 89.05 20.79L88.94 20.68L88.95 20.69Q89.96 20.94 90.50 21.10L90.45 21.05L90.47 21.07Q90.72 21.70 90.83 22.29L90.75 22.22L90.83 22.30Q90.96 22.92 90.80 23.47L90.61 23.28L90.68 23.35Q90.65 25.81 88.96 27.39L88.96 27.39L89.02 27.44Q87.58 28.83 85.24 28.78L85.34 28.89L85.36 28.90Q84.63 28.77 82.46 28.34L82.41 28.29L82.49 28.37Q82.13 27.09 82.13 26.06L82.17 26.10L82.14 26.06Q82.12 25.77 82.12 25.44L81.99 25.31L82.01 25.34Q82.09 22.26 85.36 21.12L85.40 21.16L85.29 21.05Q86.28 20.74 87.48 20.74Z"/><path fill="#d9b548" d="M28.33 28.98L28.19 28.83L28.25 28.90Q23.22 28.76 21.64 33.55L21.73 33.64L21.70 33.61Q21.05 35.02 20.89 36.54L21.00 36.66L20.94 36.60Q20.60 39.47 22.02 41.37L22.07 41.43L22.07 41.42Q24.06 43.20 27.60 43.25L27.47 43.13L27.56 43.22Q30.09 43.19 32.10 41.56L32.03 41.49L32.17 41.63Q34.10 39.91 34.10 37.35L34.24 37.49L34.23 37.49Q34.09 36.86 33.98 36.31L34.01 36.34L34.03 36.37Q33.69 29.01 28.25 28.90ZM28.19 46.78L28.02 46.62L28.12 46.71Q22.66 47.02 20.10 44.14L20.17 44.21L20.19 44.22Q19.69 45.52 19.04 47.48L19.06 47.50L19.21 47.65Q16.30 48.60 14.51 49.42L14.59 49.50L14.41 49.32Q17.58 40.85 17.58 31.55L17.64 31.61L17.73 31.70Q17.76 19.88 12.86 8.67L12.76 8.57L12.77 8.57Q16.02 10.41 17.92 11.06L17.94 11.08L17.93 11.07Q20.99 20.61 21.21 28.93L21.27 28.99L21.26 28.98Q23.40 25.25 28.73 25.30L28.58 25.15L28.66 25.23Q33.35 25.35 35.47 28.01L35.39 27.94L35.44 27.99Q37.90 31.09 38.12 36.21L38.21 36.31L38.22 36.31Q38.25 37.92 38.14 40.20L38.22 40.28L38.26 40.32Q38.20 42.38 36.95 44.02L36.85 43.92L36.84 43.90Q34.37 46.38 28.17 46.77ZM35.88 50.23L35.99 50.34L35.88 50.24Q38.02 50.25 40.14 49.27L40.26 49.39L40.31 49.44Q41.72 47.43 41.78 44.65L41.93 44.81L41.93 44.81Q41.93 44.11 41.72 42.42L41.63 42.33L41.73 42.43Q41.63 41.46 41.47 40.16L41.37 40.06L41.33 40.02Q40.18 33.22 37.95 30.28L37.90 30.22L37.97 30.29Q37.93 30.21 36.79 28.96L36.84 29.00L36.90 29.06Q36.39 28.50 35.63 27.36L35.68 27.41L35.67 27.40Q33.40 24.64 28.62 24.70L28.62 24.70L28.70 24.78Q25.67 24.74 23.87 25.61L23.97 25.71L23.88 25.62Q23.33 19.09 22.46 14.52L22.57 14.63L22.50 14.55Q21.54 14.41 19.42 13.87L19.46 13.91L19.50 13.95Q19.18 12.75 18.52 10.69L18.52 10.69L18.59 10.76Q15.02 9.52 11.81 7.29L11.92 7.40L11.75 7.23Q17.32 19.11 17.32 31.68L17.28 31.63L17.32 31.67Q17.17 41.47 13.63 50.34L13.71 50.42L13.76 50.46Q14.63 49.87 16.54 49.05L16.50 49.01L16.64 49.16Q16.24 50.17 15.37 52.34L15.42 52.40L15.33 52.31Q18.11 50.96 22.08 50.20L22.22 50.33L22.75 47.71L22.71 47.67Q26.04 50.12 35.93 50.29ZM30.59 32.21L30.46 32.08L30.51 32.14Q32.07 32.23 32.83 32.77L32.84 32.79L32.73 32.67Q33.22 33.43 33.54 36.31L33.53 36.30L33.62 36.39Q33.84 39.00 32.05 40.88L32.01 40.84L32.03 40.86Q30.21 42.71 27.43 42.55L27.49 42.60L27.43 42.54Q26.15 42.79 24.03 42.08L24.13 42.18L23.98 42.04Q23.75 41.42 23.75 40.66L23.72 40.63L23.77 40.68Q23.81 36.31 26.04 34.03L25.89 33.88L25.92 33.96L25.90 33.95Q28.09 32.11 30.59 32.21Z"/><path fill="#bc8aef" d="M50.53 36.84L50.65 36.95L50.48 36.78Q50.38 40.92 48.69 47.56L48.63 47.50L48.66 47.53Q46.16 48.35 43.88 49.49L43.75 49.36L43.74 49.35Q47.51 39.37 47.13 28.76L47.09 28.72L47.18 28.81Q46.65 18.11 42.25 8.48L42.25 8.49L42.27 8.51Q45.19 10.44 47.85 11.26L47.78 11.19L47.83 11.24Q50.92 21.24 50.92 30.76L50.84 30.67L50.96 30.79Q50.97 32.87 50.86 34.99L50.80 34.93L50.85 34.97Q52.31 33.07 59.76 26.00L59.80 26.04L59.87 26.10Q61.38 26.04 62.80 25.93L62.82 25.95L65.73 25.66L65.88 25.80Q61.39 30.13 55.25 35.51L55.15 35.42L55.19 35.46Q60.06 39.45 69.30 47.78L69.17 47.64L69.19 47.67Q65.35 46.43 61.11 46.16L61.04 46.09L61.15 46.20Q57.51 43.16 50.55 36.86ZM64.71 49.98L64.69 49.96L64.61 49.88Q71.34 51.07 75.80 53.84L75.92 53.96L75.85 53.89Q74.14 52.02 70.39 48.59L70.52 48.72L70.54 48.74Q70.77 48.76 71.15 48.92L71.26 49.03L71.17 48.94Q68.26 46.13 65.05 43.41L65.03 43.39L58.57 37.69L58.72 37.84Q65.74 31.75 69.22 27.62L69.16 27.56L69.15 27.55Q67.47 27.72 63.94 28.10L63.93 28.09L63.85 28.02Q66.13 25.95 67.11 24.76L67.21 24.85L67.11 24.75Q63.27 25.59 59.73 25.59L59.71 25.56L59.71 25.57Q57.76 27.47 53.84 31.28L53.72 31.16L53.79 31.23Q53.72 22.89 52.30 14.57L52.36 14.63L52.25 14.52Q51.31 14.33 49.19 13.95L49.20 13.97L49.12 13.89Q48.97 12.92 48.32 10.80L48.24 10.72L48.36 10.84Q44.51 9.60 41.30 7.37L41.43 7.50L41.38 7.46Q46.21 17.13 46.70 28.71L46.77 28.78L46.72 28.72Q47.28 40.11 42.98 50.44L42.86 50.32L43.01 50.47Q43.89 49.94 45.80 49.01L45.74 48.95L45.88 49.10Q45.46 50.20 44.53 52.26L44.67 52.40L44.65 52.38Q48.54 50.67 51.59 50.13L51.56 50.10L51.57 50.11Q52.38 46.51 53.09 40.42L53.24 40.58L53.10 40.43Q56.99 43.84 64.77 50.04Z"/></svg>