<svg xmlns="http://www.w3.org/2000/svg" width="150" height="50" viewbox="0,0,150,50"><path d="M17 44 C60 45,56 25,143 12" stroke="#977ee0" fill="none"/><path fill="#bf63dd" d="M21.63 46.94L21.63 46.94L21.72 47.03Q15.80 47.26 14.39 43.94L14.48 44.03L14.44 44.00Q15.58 42.68 17.81 40.13L17.72 40.04L17.67 39.99Q18.37 42.87 22.67 43.03L22.84 43.20L22.82 43.18Q27.58 43.21 29.92 41.31L30.01 41.40L29.94 41.33Q31.85 38.94 31.74 35.08L31.88 35.22L31.75 35.09Q31.56 27.88 24.70 28.21L24.82 28.33L24.84 28.34Q20.68 28.42 18.17 30.22L18.23 30.27L17.75 30.01L17.38 29.74L17.49 29.86Q18.00 25.37 17.84 21.45L17.80 21.41L17.85 21.46Q17.61 17.63 17.12 12.90L17.15 12.93L17.20 12.98Q22.37 14.29 27.81 14.12L27.76 14.08L27.77 14.08Q33.23 14.00 38.34 12.20L38.37 12.23L37.54 14.39L37.47 14.32Q37.06 15.44 36.79 16.64L36.78 16.63L36.80 16.65Q32.45 18.23 26.91 18.23L26.85 18.17L26.87 18.19Q24.73 18.12 22.61 17.90L22.62 17.92L22.69 17.98Q22.52 18.90 22.04 25.27L22.01 25.24L21.95 25.18Q23.20 24.58 26.13 24.36L26.19 24.42L26.09 24.31Q31.48 24.71 33.55 27.10L33.51 27.06L33.51 27.06Q35.59 29.36 35.97 34.85L35.98 34.86L35.96 34.84Q36.36 40.84 34.62 43.72L34.57 43.67L34.55 43.66Q31.67 46.37 26.94 46.70L27.03 46.79L26.91 46.68Q25.38 46.67 21.58 46.89ZM30.33 50.26L30.40 50.32L30.34 50.27Q35.12 50.26 37.83 48.68L38.00 48.84L37.93 48.77Q39.37 46.63 39.37 43.64L39.31 43.58L39.41 43.67Q39.42 39.28 38.06 33.41L37.97 33.32L37.92 33.27Q37.42 30.80 35.68 28.79L35.78 28.89L35.73 28.90L35.48 28.54L34.86 28.14L34.85 28.13Q34.40 27.08 33.47 26.10L33.52 26.15L33.61 26.29L33.67 26.35Q31.40 23.86 26.13 23.86L26.18 23.92L25.71 23.83L25.78 23.90Q25.75 22.95 26.03 21.37L26.22 21.56L26.20 21.54Q33.32 21.70 39.08 19.37L39.00 19.28L38.95 19.23Q39.53 17.20 40.89 13.17L41.03 13.32L38.04 14.68L38.05 14.69Q38.61 13.07 39.31 11.44L39.14 11.26L39.19 11.31Q33.83 13.51 27.96 13.62L27.77 13.43L27.92 13.59Q22.05 13.75 16.40 12.18L16.38 12.16L16.24 12.02Q17.33 18.44 17.33 24.75L17.39 24.81L17.22 24.64Q17.29 27.43 17.13 30.15L17.07 30.10L17.24 30.26Q17.48 30.39 18.29 30.82L18.28 30.81L18.36 30.89Q18.75 30.47 19.68 29.98L19.76 30.06L19.81 30.11Q19.73 31.17 19.40 33.35L19.34 33.29L19.36 33.30Q19.97 33.59 20.57 33.92L20.59 33.94L20.49 33.83Q24.46 31.33 27.12 31.33L27.26 31.47L27.13 31.34Q29.18 31.48 30.86 32.41L30.79 32.34L30.73 32.28Q31.32 33.84 31.37 35.20L31.36 35.19L31.43 35.26Q31.41 38.83 29.94 40.41L30.00 40.47L30.07 40.54Q28.07 42.24 24.86 42.56L24.86 42.55L24.81 42.51Q23.54 42.71 22.56 42.60L22.41 42.45L22.56 42.59Q21.28 42.35 20.19 41.86L20.24 41.91L20.14 41.54L20.02 41.75L20.00 41.72Q18.85 41.01 18.09 39.10L18.03 39.04L18.02 39.03Q16.14 41.07 13.75 44.12L13.80 44.17L13.68 44.05Q14.24 45.09 15.43 46.45L15.33 46.35L15.40 46.42Q16.94 49.04 20.96 49.75L20.91 49.70L20.94 49.74Q22.59 50.02 30.26 50.18Z"/><path fill="#bc8eeb" d="M83.57 28.71L83.69 28.83L83.56 28.71Q80.41 28.76 78.58 30.91L78.61 30.94L78.65 30.97Q76.79 33.09 76.63 36.35L76.63 36.35L76.66 36.38Q76.51 40.20 77.70 41.56L77.64 41.49L77.75 41.60Q79.19 43.26 82.51 43.04L82.51 43.05L82.61 43.15Q89.10 42.56 89.64 38.27L89.72 38.34L89.66 38.29Q89.79 37.11 89.79 35.97L89.86 36.04L89.83 36.01Q89.85 33.20 88.22 31.03L88.13 30.94L88.23 31.03Q86.37 28.68 83.59 28.74ZM90.56 43.21L90.56 43.21L90.55 43.20Q88.42 46.24 82.17 46.57L82.21 46.61L82.11 46.51Q76.20 46.80 73.86 45.22L73.80 45.16L73.88 45.24Q72.56 43.97 72.34 41.53L72.34 41.52L72.36 41.54Q72.23 39.89 72.50 37.22L72.43 37.16L72.53 37.25Q73.19 31.06 74.93 28.45L74.94 28.46L74.98 28.51Q77.34 24.99 82.83 25.04L82.87 25.08L82.74 24.95Q86.47 25.14 89.73 28.46L89.72 28.44L89.57 28.30Q89.76 20.01 92.05 10.71L92.08 10.75L92.08 10.74Q94.81 10.15 97.47 8.95L97.57 9.06L97.56 9.05Q93.78 18.43 93.40 28.43L93.30 28.33L93.38 28.41Q92.89 38.58 95.94 47.99L95.94 47.99L95.97 48.03Q93.68 47.20 91.23 46.66L91.29 46.71L91.31 46.74Q90.70 44.71 90.48 43.13ZM94.79 50.92L94.96 51.09L94.77 50.90Q97.84 51.80 101.48 53.97L101.50 53.99L101.41 53.89Q96.24 43.94 96.02 32.08L95.97 32.03L95.97 32.04Q95.70 20.23 100.10 9.68L100.18 9.76L100.23 9.81Q99.27 10.48 97.21 11.41L97.25 11.45L97.14 11.34Q97.68 9.77 98.56 8.02L98.46 7.93L98.46 7.93Q95.09 9.51 91.61 10.32L91.69 10.41L91.59 10.31Q89.56 18.61 89.18 27.31L89.22 27.35L89.25 27.38Q86.32 24.56 82.73 24.40L82.84 24.51L82.86 24.53Q77.88 24.28 75.16 27.27L75.14 27.24L75.14 27.25Q72.80 30.73 72.20 37.42L72.11 37.33L72.15 37.37Q71.78 41.29 71.78 41.89L71.80 41.91L71.81 41.92Q71.77 44.27 73.40 45.80L73.41 45.80L73.40 45.79Q73.72 46.11 73.99 46.22L74.13 46.36L74.73 47.24L74.83 47.33Q76.18 49.22 80.42 49.60L80.38 49.56L80.35 49.54Q83.59 49.83 85.54 49.94L85.50 49.89L85.61 50.00Q91.55 50.24 94.00 48.34L94.04 48.38L93.86 48.20Q94.23 49.38 94.88 51.01ZM85.97 32.10L85.84 31.97L85.80 31.93Q87.41 32.07 88.61 32.78L88.63 32.79L88.62 32.79Q89.23 34.54 89.34 36.00L89.34 36.01L89.42 36.09Q89.77 42.04 82.59 42.53L82.72 42.65L82.71 42.65Q81.28 42.52 79.70 42.14L79.83 42.27L79.73 42.18Q79.51 41.41 79.40 40.65L79.44 40.68L79.32 40.57Q79.39 39.77 79.45 38.90L79.40 38.85L79.32 38.77Q79.84 33.96 83.59 32.55L83.65 32.60L83.55 32.50Q84.84 31.89 85.82 31.94Z"/><path fill="#7f7fef" d="M125.54 43.42L125.47 43.35L125.50 43.38Q126.05 44.91 126.81 47.79L126.79 47.77L126.75 47.74Q120.70 45.82 114.12 46.20L114.03 46.11L114.12 46.19Q107.59 46.58 101.88 49.40L101.87 49.40L101.84 49.36Q102.17 48.39 102.23 48.50L102.25 48.53L102.21 48.48Q107.63 42.92 113.24 36.61L113.17 36.55L113.18 36.56Q119.47 29.41 121.16 22.72L121.18 22.75L121.20 22.77Q121.94 20.35 120.11 18.67L119.96 18.51L119.95 18.50Q118.14 16.82 115.58 17.04L115.63 17.09L115.57 17.03Q115.15 17.04 114.66 17.04L114.58 16.96L114.76 17.15Q112.40 16.96 110.61 18.27L110.77 18.43L110.62 18.28Q108.86 20.33 109.19 24.14L109.10 24.05L109.08 24.03Q106.61 23.63 104.87 22.97L104.86 22.96L104.90 23.01Q104.59 20.95 104.48 18.88L104.43 18.84L104.41 18.82Q104.37 16.54 105.24 14.91L105.35 15.03L105.27 14.94Q107.89 13.05 112.68 13.05L112.54 12.91L115.09 12.96L115.10 12.97Q118.46 13.13 119.82 13.29L119.74 13.21L119.66 13.13Q125.95 13.81 126.33 17.29L126.38 17.35L126.26 17.22Q126.35 18.02 126.24 19.16L126.40 19.32L126.31 19.23Q126.23 20.13 126.01 21.11L125.96 21.06L125.94 21.04Q123.79 32.81 112.97 42.60L112.81 42.44L112.91 42.54Q114.90 42.30 116.86 42.30L116.79 42.23L116.79 42.23Q121.39 42.21 125.47 43.36ZM124.64 13.59L124.82 13.78L124.73 13.68Q122.53 12.84 120.08 12.73L120.04 12.69L115.05 12.32L115.06 12.33Q108.79 12.04 105.63 13.62L105.51 13.49L105.52 13.51Q104.07 15.53 104.07 18.47L104.13 18.53L104.13 18.53Q104.07 19.45 104.50 23.48L104.48 23.45L104.48 23.45Q105.38 23.92 107.07 24.35L107.00 24.29L107.00 25.75L107.10 25.86Q107.02 26.48 107.13 27.24L107.03 27.15L107.03 27.14Q108.95 27.43 112.48 27.76L112.36 27.63L112.44 27.71Q112.32 27.11 112.32 26.62L112.42 26.72L112.29 26.59Q112.37 24.06 114.11 22.13L114.09 22.10L114.04 22.05Q115.88 20.22 118.43 20.38L118.42 20.37L118.38 20.33Q119.42 20.34 120.51 20.56L120.56 20.60L120.55 20.60Q120.63 21.06 120.74 21.66L120.76 21.68L120.80 21.72Q120.91 22.37 120.80 22.86L120.69 22.75L120.70 22.76Q118.88 29.53 112.57 36.43L112.57 36.44L112.57 36.44Q109.55 39.67 101.77 48.32L101.80 48.34L101.75 48.29Q101.49 49.50 101.00 50.32L101.06 50.38L101.17 50.49Q103.29 49.08 105.47 48.32L105.54 48.38L105.54 48.38Q104.55 49.25 103.19 51.37L103.21 51.38L103.16 51.34Q102.93 51.76 102.76 52.25L102.80 52.28L102.84 52.32Q109.84 49.42 117.67 49.69L117.61 49.63L117.67 49.69Q125.73 49.87 132.25 53.24L132.20 53.18L130.81 50.16L130.91 50.26Q129.83 48.21 129.45 47.07L129.53 47.14L129.55 47.16Q128.40 46.45 126.66 45.85L126.76 45.95L126.76 45.95Q126.44 44.82 125.90 42.86L125.96 42.92L125.96 42.92Q122.93 42.23 119.67 41.96L119.62 41.91L119.63 41.92Q126.32 35.39 128.49 23.59L128.34 23.44L128.77 19.46L128.65 19.34Q128.62 16.86 126.88 15.88L126.90 15.91L126.79 15.85L126.73 15.79Q126.74 15.75 126.63 15.75L126.61 15.72L126.62 15.73Q126.24 14.48 124.66 13.61Z"/><path fill="#88a0e6" d="M61.50 48.29L61.34 48.13L57.16 48.03L57.06 47.93Q53.69 47.82 52.55 47.66L52.48 47.59L52.61 47.72Q49.88 47.11 48.19 45.86L48.26 45.93L48.28 45.95Q46.46 43.96 46.13 39.18L46.08 39.13L45.99 39.04Q46.11 38.51 46.00 36.77L45.92 36.69L45.97 36.74Q45.92 36.08 45.81 34.51L45.74 34.43L45.88 34.58Q45.70 33.26 45.76 32.22L45.84 32.31L45.85 32.32Q46.13 29.55 47.60 28.46L47.65 28.52L47.62 28.48Q50.30 26.76 57.21 26.43L57.34 26.56L57.30 26.53Q60.04 26.23 61.19 26.23L61.33 26.37L61.33 26.37Q63.48 26.40 65.44 26.83L65.39 26.79L65.34 26.73Q64.49 28.49 63.73 31.10L63.67 31.05L63.71 31.08Q63.09 31.28 62.38 31.23L62.32 31.16L62.26 31.11Q62.17 31.12 61.41 30.96L61.35 30.91L60.04 30.62L60.09 30.68Q58.51 30.24 57.64 30.29L57.76 30.42L57.66 30.32Q50.89 30.40 50.02 34.42L50.11 34.51L50.00 34.40Q49.69 36.10 49.80 37.46L49.88 37.54L49.73 37.39Q50.04 41.18 51.80 42.73L51.75 42.68L51.86 42.78Q53.52 44.22 57.21 44.28L57.29 44.35L57.27 44.33Q59.44 44.44 60.47 44.00L60.35 43.88L61.84 43.19L61.92 43.27Q62.67 42.94 63.49 42.83L63.42 42.76L63.42 42.76Q63.72 45.29 64.26 47.14L64.21 47.09L64.37 47.25Q63.90 47.65 61.35 48.14ZM65.97 52.33L66.10 52.45L66.12 52.48Q66.54 52.41 67.74 52.52L67.70 52.48L67.76 52.54Q68.78 52.69 69.27 51.87L69.26 51.87L69.19 51.79Q67.38 48.74 66.68 45.75L66.74 45.81L66.84 45.91Q66.36 45.86 65.71 45.86L65.61 45.77L65.60 45.76Q65.03 45.79 64.49 46.06L64.48 46.05L64.41 45.98Q63.92 44.18 63.70 42.17L63.83 42.30L63.74 42.21Q62.92 42.15 61.18 42.97L61.24 43.03L61.16 42.95Q59.38 43.73 58.68 43.73L58.63 43.68L58.78 43.83Q57.97 43.73 57.10 43.67L57.13 43.71L57.16 43.73Q55.83 43.65 53.00 42.84L53.05 42.89L53.05 42.89Q52.59 41.88 52.64 40.25L52.52 40.13L52.53 40.13Q52.82 34.12 59.89 33.36L59.91 33.37L59.95 33.42Q60.91 33.40 62.87 33.89L62.84 33.86L62.85 33.87Q64.86 34.42 65.90 34.36L65.92 34.39L65.86 34.33Q66.58 31.24 67.56 28.63L67.56 28.63L67.49 28.56Q66.83 28.28 66.29 28.17L66.37 28.25L65.31 28.17L65.31 28.18Q65.54 27.43 66.09 26.17L66.17 26.26L66.16 26.25Q63.86 25.64 61.63 25.64L61.74 25.74L61.68 25.68Q58.18 25.61 51.93 26.16L52.11 26.34L52.00 26.23Q49.18 26.40 46.95 27.82L47.02 27.88L47.10 27.96Q45.18 29.14 45.18 31.86L45.32 32.01L45.37 32.05Q45.30 32.59 45.47 34.33L45.44 34.29L45.52 34.38Q45.60 35.82 45.54 36.69L45.57 36.71L45.55 36.69Q45.59 39.40 46.63 44.73L46.59 44.69L46.63 44.73Q47.21 45.97 47.92 46.68L47.81 46.57L48.18 46.94L48.28 46.98L48.12 46.82Q49.72 50.00 55.32 50.87L55.25 50.80L55.24 50.79Q59.81 51.55 63.62 51.93L63.70 52.01L63.62 51.94Q64.77 52.05 66.08 52.43Z"/></svg>