<svg xmlns="http://www.w3.org/2000/svg" width="150" height="50" viewBox="0,0,150,50"><path fill="#111" d="M86.30 23.25L86.31 23.26L86.34 23.30Q82.81 23.19 80.85 22.05L80.85 22.05L80.94 22.14Q83.69 20.72 88.91 16.20L88.90 16.18L88.80 16.09Q89.57 15.88 90.96 15.22L90.95 15.22L91.00 15.27Q89.55 21.61 89.42 28.42L89.39 28.38L89.49 28.49Q89.40 35.33 90.54 41.86L90.55 41.86L90.44 41.75Q88.73 41.06 86.45 40.94L86.50 40.99L86.51 41.00Q86.20 36.37 86.20 32.00L86.19 32.00L86.26 32.07Q86.32 27.72 86.36 23.32ZM86.01 25.78L85.92 41.31L86.01 41.40Q87.24 41.32 88.26 41.53L88.34 41.61L88.20 41.47Q88.33 42.25 88.53 43.72L88.63 43.81L88.53 43.72Q91.65 44.35 94.26 46.75L94.17 46.67L94.13 46.63Q91.52 39.04 91.48 31.05L91.49 31.05L91.51 31.07Q91.40 23.05 93.36 15.30L93.34 15.28L93.49 15.43Q92.92 15.88 91.20 17.06L91.19 17.05L91.08 16.94Q91.37 16.21 91.70 14.58L91.60 14.49L91.66 14.54Q90.11 15.24 88.56 15.65L88.73 15.81L88.73 15.81Q84.59 19.55 79.98 21.99L80.04 22.05L80.11 22.12Q81.59 23.27 84.11 23.64L83.98 23.51L84.08 23.60Q83.37 24.16 81.99 25.31L81.98 25.30L81.87 25.19Q83.48 25.62 85.85 25.62L86.02 25.79Z"/><path fill="#222" d="M52.56 41.45L52.53 41.42L52.57 41.46Q51.06 41.54 49.39 41.09L49.42 41.12L49.43 41.13Q48.03 40.06 47.87 38.31L48.00 38.44L48.00 38.43Q47.79 38.06 48.00 35.25L48.04 35.29L48.12 35.38Q49.09 35.03 51.25 34.63L51.34 34.72L51.20 35.60L51.21 35.61Q50.81 37.37 52.32 37.98L52.26 37.93L52.30 37.96Q53.23 38.41 55.48 38.41L55.40 38.33L55.45 38.38Q57.26 38.31 57.46 38.23L57.29 38.06L57.34 38.11Q58.34 37.96 59.11 37.43L59.09 37.41L59.17 37.49Q60.69 36.49 60.49 34.24L60.51 34.26L60.42 34.17Q60.27 31.62 58.41 29.95L58.27 29.80L58.35 29.88Q56.48 28.20 53.83 28.20L53.91 28.27L53.82 27.95L53.94 28.06Q54.24 27.91 55.17 27.83L55.30 27.95L55.29 27.94Q57.25 27.74 58.72 26.42L58.68 26.38L58.77 26.47Q60.09 24.99 60.25 22.99L60.32 23.06L60.41 23.15Q60.33 22.62 60.33 22.26L60.47 22.39L60.52 22.44Q60.52 20.81 59.05 19.83L58.89 19.67L58.86 19.64Q57.73 18.96 56.02 19.09L56.02 19.09L55.90 18.96Q54.62 18.91 53.32 19.36L53.29 19.34L53.33 19.37Q51.67 19.83 51.34 21.06L51.29 21.00L51.38 21.10Q51.26 21.99 51.34 22.81L51.15 22.62L51.20 22.67Q50.12 22.44 47.91 21.67L47.90 21.65L48.03 21.79Q47.66 19.86 47.70 18.97L47.66 18.92L47.65 18.92Q47.84 17.35 48.98 16.61L48.97 16.61L48.96 16.59Q50.45 15.92 52.16 15.92L52.14 15.90L52.32 16.08Q55.55 15.88 58.93 16.17L59.08 16.31L59.01 16.25Q64.39 16.65 64.07 20.69L64.11 20.73L64.10 20.72Q63.96 22.26 63.43 23.93L63.54 24.04L63.39 23.89Q62.49 27.27 59.96 28.25L59.92 28.21L59.94 28.23Q62.81 28.86 63.46 32.45L63.41 32.39L63.53 32.51Q63.75 33.71 63.83 35.87L63.78 35.82L63.76 35.80Q63.90 40.55 58.96 41.04L59.00 41.07L58.92 40.99Q58.19 41.13 52.53 41.41ZM58.04 43.75L58.21 43.92L58.17 43.88Q58.87 43.96 61.93 44.04L61.81 43.93L61.86 43.97Q63.73 44.05 65.48 43.36L65.40 43.27L65.40 43.28Q66.72 42.31 66.52 40.43L66.54 40.46L66.56 40.48Q66.32 38.93 65.99 37.06L66.04 37.10L66.05 37.11Q65.32 32.35 63.24 30.59L63.18 30.53L63.02 30.17L63.07 30.17L63.08 30.19Q64.97 28.64 65.78 23.95L65.59 23.76L65.67 23.84Q65.80 23.44 65.92 22.42L65.75 22.25L65.82 22.32Q65.93 21.53 65.85 20.80L65.79 20.74L65.85 20.80Q65.71 19.03 64.32 18.29L64.32 18.29L64.29 18.34L64.12 18.18Q63.84 17.16 62.61 16.59L62.66 16.63L62.63 16.60Q60.96 15.83 55.45 15.50L55.46 15.51L55.54 15.59Q53.83 15.59 52.12 15.59L52.08 15.56L52.11 15.58Q50.28 15.47 48.65 16.17L48.73 16.24L48.72 16.23Q47.32 16.95 47.32 18.83L47.35 18.86L47.37 18.88Q47.45 18.51 47.74 22.10L47.57 21.94L47.75 22.12Q48.08 22.20 49.84 22.86L49.76 22.78L49.64 22.66Q49.73 23.32 49.69 23.85L49.69 23.85L49.70 23.86Q49.71 24.40 49.75 24.97L49.67 24.89L49.77 24.99Q51.62 25.33 53.78 25.45L53.72 25.39L53.84 25.51Q53.73 23.32 54.91 22.42L54.85 22.36L54.97 22.49Q55.73 21.66 57.89 21.41L57.95 21.46L57.97 21.49Q59.27 21.56 59.88 21.76L59.79 21.67L59.79 21.68Q59.83 21.80 59.88 21.92L59.82 21.87L59.87 22.12L60.00 22.74L59.97 22.71Q60.09 23.04 60.05 23.20L59.92 23.07L59.89 23.04Q59.83 24.89 58.20 26.16L58.31 26.27L58.31 26.27Q57.20 27.12 55.04 27.33L55.10 27.38L55.03 27.32Q54.30 27.52 53.36 27.52L53.40 27.56L53.43 27.59Q53.41 27.90 53.58 28.63L53.67 28.72L53.52 28.58Q55.48 28.66 57.03 29.44L57.04 29.45L56.92 29.45L55.28 29.68L55.17 29.58Q55.30 30.03 55.42 30.69L55.49 30.76L55.42 30.68Q57.74 30.63 59.57 32.06L59.46 31.95L59.46 31.95Q59.74 32.39 60.06 34.14L60.18 34.26L60.05 34.13Q60.35 37.36 57.21 37.81L57.14 37.75L57.06 37.67Q54.82 37.96 54.21 37.92L54.39 38.10L54.36 38.07Q53.85 37.92 53.28 37.84L53.22 37.78L53.26 37.34L53.28 36.74L53.32 36.34L53.52 36.17L53.54 36.19Q52.35 36.10 51.49 36.30L51.53 36.34L51.63 36.43Q51.56 36.16 51.56 35.96L51.60 36.00L51.59 35.99Q51.64 35.80 51.64 35.56L51.52 35.43L51.58 35.49Q51.66 35.08 51.82 34.31L51.83 34.31L51.86 34.35Q49.81 34.54 47.81 34.90L47.87 34.97L47.77 34.86Q47.80 35.42 47.67 36.62L47.56 36.51L47.56 36.51Q47.62 37.89 47.62 38.54L47.54 38.47L47.52 38.44Q47.57 40.62 49.04 41.44L49.07 41.46L49.12 41.51Q50.74 43.99 55.80 43.79L55.79 43.78L55.72 43.70Q56.60 43.78 58.24 43.94Z"/><path fill="#222" d="M26.33 29.34L26.46 29.46L26.47 29.47Q24.49 29.33 23.16 30.86L23.11 30.81L23.11 30.81Q21.82 32.37 21.61 34.41L21.63 34.42L21.51 34.30Q21.35 36.59 22.51 37.63L22.54 37.66L22.47 37.59Q23.76 38.75 26.00 38.63L25.92 38.55L25.90 38.53Q28.17 38.40 29.36 37.67L29.41 37.72L29.43 37.74Q30.63 36.54 30.63 34.86L30.59 34.82L30.58 34.81Q30.66 34.48 30.57 34.07L30.54 34.03L30.52 34.02Q30.52 32.14 29.33 30.69L29.45 30.81L29.34 30.70Q28.22 29.31 26.43 29.44ZM26.01 41.38L25.92 41.28L25.90 41.27Q21.23 41.29 19.72 40.47L19.76 40.51L19.81 40.56Q18.68 39.71 18.47 37.88L18.42 37.82L18.50 37.90Q18.40 37.11 18.44 36.34L18.44 36.33L18.47 36.36Q18.47 35.18 18.47 34.69L18.50 34.72L18.61 34.83Q18.97 31.65 19.14 30.91L19.24 31.02L19.23 31.01Q19.73 28.94 20.63 27.43L20.51 27.32L20.59 27.39Q23.54 22.79 29.90 15.98L29.90 15.98L29.83 15.91Q32.75 15.65 35.12 14.80L35.03 14.70L35.07 14.75Q27.63 22.64 24.21 27.17L24.20 27.17L24.19 27.16Q25.32 26.70 26.71 26.70L26.65 26.64L26.65 26.64Q30.24 26.68 31.87 28.76L32.00 28.89L32.00 28.89Q33.29 30.51 33.66 34.30L33.60 34.24L33.79 34.43Q33.71 35.05 33.71 35.70L33.78 35.76L33.80 35.79Q33.84 39.17 31.47 40.31L31.41 40.25L31.35 40.19Q30.15 40.95 25.99 41.36ZM28.40 43.89L28.36 43.85L28.49 43.98Q29.70 43.76 31.82 43.84L32.00 44.02L31.91 43.94Q33.71 44.06 35.38 43.28L35.39 43.29L35.37 43.27Q36.45 42.31 36.45 40.40L36.46 40.40L36.48 40.43Q36.58 40.00 36.40 38.94L36.35 38.88L36.42 38.96Q36.20 37.86 36.20 37.37L36.11 37.28L36.05 37.22Q35.24 32.29 33.53 30.25L33.55 30.27L33.53 30.26Q33.47 30.16 33.31 29.91L33.27 29.88L32.86 29.55L32.83 29.56L32.92 29.65Q32.55 29.12 31.90 28.10L31.88 28.07L31.78 27.97Q30.84 26.99 28.72 26.50L28.77 26.55L28.70 26.49Q29.93 24.70 33.11 20.74L33.28 20.91L37.66 15.09L37.74 15.18Q36.06 16.11 33.49 16.92L33.54 16.97L33.49 16.92Q34.56 15.95 36.48 13.83L36.42 13.77L36.30 13.65Q33.82 14.88 29.66 15.49L29.59 15.42L29.64 15.47Q23.60 21.87 20.42 27.18L20.30 27.06L20.37 27.13Q18.69 29.77 18.08 36.46L18.16 36.54L18.08 36.47Q18.01 37.09 18.09 38.11L18.11 38.13L18.10 38.12Q18.17 39.98 19.35 40.96L19.38 40.98L19.36 40.96Q19.78 41.14 19.74 41.18L19.75 41.19L19.77 41.22Q20.06 42.07 20.92 42.52L21.02 42.63L20.97 42.58Q22.48 43.27 24.56 43.47L24.60 43.51L24.61 43.53Q24.55 43.46 28.30 43.79ZM28.24 31.94L28.15 31.85L28.12 31.82Q28.72 31.69 29.74 32.22L29.83 32.31L29.84 32.31Q30.10 33.23 30.10 33.93L30.14 33.97L30.21 34.03Q30.40 36.02 29.38 37.08L29.41 37.11L29.38 37.07Q28.15 37.76 25.91 38.09L25.87 38.05L25.91 38.09Q24.33 38.06 23.76 37.78L23.73 37.75L23.77 37.79Q23.63 37.36 23.63 37.04L23.71 37.12L23.71 37.11Q23.30 33.45 26.44 32.06L26.48 32.09L26.48 32.10Q27.34 31.77 28.15 31.85Z"/><path d="M14 20 C90 16,64 42,146 16" stroke="#444" fill="none"/><path fill="#111" d="M111.81 41.49L111.75 41.43L111.77 41.46Q110.20 41.48 108.53 41.03L108.52 41.03L108.57 41.07Q107.29 40.11 107.12 38.36L107.15 38.38L107.15 38.39Q107.03 38.11 107.24 35.29L107.30 35.36L107.34 35.39Q108.40 35.15 110.57 34.75L110.59 34.77L110.24 35.44L110.38 35.58Q110.06 37.42 111.57 38.03L111.62 38.08L111.55 38.02Q112.35 38.32 114.59 38.32L114.71 38.44L114.69 38.42Q116.31 38.17 116.52 38.09L116.55 38.12L116.48 38.05Q117.48 37.91 118.25 37.38L118.24 37.36L118.22 37.34Q119.90 36.49 119.69 34.25L119.58 34.14L119.54 34.09Q119.37 31.52 117.51 29.84L117.63 29.96L117.56 29.89Q115.73 28.25 113.08 28.25L113.12 28.28L112.99 27.91L113.10 28.02Q113.50 27.97 114.43 27.89L114.40 27.85L114.34 27.79Q116.46 27.75 117.93 26.43L117.99 26.49L117.86 26.36Q119.35 25.05 119.51 23.05L119.54 23.08L119.62 23.16Q119.72 22.81 119.72 22.44L119.69 22.41L119.69 22.42Q119.66 20.75 118.19 19.77L118.22 19.80L118.16 19.75Q116.88 18.91 115.17 19.03L115.12 18.98L115.20 19.07Q113.73 18.82 112.42 19.27L112.45 19.29L112.43 19.28Q110.86 19.83 110.54 21.05L110.56 21.07L110.52 21.04Q110.34 21.87 110.42 22.69L110.42 22.69L110.36 22.63Q109.29 22.41 107.08 21.64L107.15 21.70L107.21 21.76Q106.92 19.93 106.96 19.03L106.93 18.99L106.94 19.01Q107.03 17.34 108.17 16.60L108.28 16.71L108.13 16.57Q109.70 15.97 111.41 15.97L111.41 15.97L111.51 16.07Q114.75 15.89 118.14 16.17L118.25 16.28L118.17 16.21Q123.66 16.72 123.34 20.76L123.27 20.69L123.20 20.62Q123.17 22.27 122.64 23.94L122.65 23.95L122.61 23.91Q121.66 27.24 119.13 28.22L119.11 28.20L119.16 28.25Q121.95 28.80 122.60 32.39L122.65 32.43L122.63 32.41Q122.96 33.72 123.04 35.88L123.02 35.86L122.92 35.76Q123.05 40.50 118.12 40.99L118.15 41.03L118.24 41.12Q117.47 41.20 111.80 41.49ZM117.24 43.75L117.37 43.87L117.43 43.93Q118.08 43.97 121.14 44.05L121.07 43.98L121.10 44.02Q122.87 43.99 124.63 43.30L124.76 43.44L124.73 43.40Q125.90 42.29 125.70 40.41L125.65 40.37L125.77 40.49Q125.58 39.00 125.26 37.12L125.39 37.25L125.39 37.25Q124.45 32.28 122.37 30.52L122.37 30.52L122.15 30.10L122.16 30.07L122.14 30.04Q123.99 28.47 124.81 23.78L124.93 23.90L124.79 23.76Q124.90 23.34 125.02 22.32L125.03 22.33L125.12 22.42Q125.17 21.57 125.09 20.84L124.98 20.73L125.09 20.84Q124.79 18.91 123.40 18.17L123.57 18.34L123.51 18.36L123.38 18.23Q123.06 17.18 121.84 16.61L121.86 16.63L121.93 16.70Q120.18 15.85 114.67 15.52L114.76 15.61L114.68 15.53Q112.88 15.44 111.16 15.44L111.31 15.59L111.32 15.59Q109.46 15.44 107.83 16.14L107.93 16.25L107.84 16.15Q106.57 17.01 106.57 18.88L106.55 18.86L106.52 18.83Q106.50 18.36 106.78 21.95L106.78 21.95L106.76 21.92Q107.13 22.06 108.89 22.71L108.98 22.80L108.94 22.76Q109.01 23.40 108.96 23.93L108.91 23.87L108.93 23.90Q108.98 24.47 109.02 25.04L108.98 25.01L108.92 24.94Q110.77 25.28 112.93 25.40L113.07 25.54L112.94 25.41Q112.99 23.39 114.18 22.49L114.03 22.34L114.10 22.42Q114.97 21.69 117.13 21.45L117.13 21.45L117.25 21.57Q118.40 21.49 119.01 21.70L119.10 21.79L119.00 21.69Q119.11 21.87 119.15 22.00L119.19 22.03L119.01 22.06L119.17 22.71L119.20 22.74Q119.20 22.95 119.16 23.11L119.08 23.02L119.19 23.13Q119.02 24.89 117.39 26.15L117.43 26.19L117.36 26.12Q116.52 27.24 114.36 27.45L114.40 27.49L114.26 27.34Q113.55 27.57 112.61 27.57L112.53 27.49L112.63 27.59Q112.75 28.04 112.91 28.77L112.86 28.72L112.87 28.73Q114.74 28.72 116.29 29.49L116.24 29.44L116.03 29.36L114.50 29.71L114.46 29.66Q114.40 29.94 114.53 30.59L114.55 30.61L114.53 30.59Q116.96 30.66 118.80 32.09L118.66 31.95L118.65 31.94Q118.95 32.40 119.28 34.16L119.20 34.08L119.21 34.09Q119.46 37.28 116.32 37.73L116.40 37.80L116.35 37.75Q114.17 38.11 113.56 38.07L113.47 37.97L113.48 37.98Q113.09 37.97 112.52 37.88L112.54 37.90L112.49 37.37L112.54 36.80L112.68 36.49L112.59 36.04L112.71 36.16Q111.68 36.23 110.82 36.43L110.74 36.35L110.75 36.36Q110.76 36.16 110.76 35.96L110.82 36.02L110.79 35.99Q110.71 35.67 110.71 35.42L110.70 35.41L110.87 35.58Q110.81 35.03 110.97 34.25L110.89 34.17L111.06 34.34Q109.01 34.54 107.01 34.90L106.97 34.86L107.02 34.91Q106.96 35.38 106.84 36.58L106.89 36.64L106.81 36.56Q106.78 37.86 106.78 38.51L106.74 38.47L106.76 38.49Q106.88 40.73 108.35 41.55L108.22 41.42L108.35 41.55Q109.88 43.93 114.94 43.72L114.84 43.63L114.89 43.68Q115.61 43.58 117.24 43.75Z"/></svg>