<svg xmlns="http://www.w3.org/2000/svg" width="150" height="50" viewBox="0,0,150,50"><path fill="#222" d="M52.46 41.34L52.48 41.37L52.54 41.43Q51.06 41.53 49.38 41.08L49.36 41.06L49.30 41.00Q48.15 40.17 47.98 38.42L47.90 38.34L47.83 38.27Q47.79 38.06 47.99 35.25L48.06 35.32L48.08 35.33Q49.25 35.20 51.41 34.79L51.24 34.62L51.17 35.56L51.22 35.62Q50.78 37.34 52.29 37.95L52.32 37.98L52.39 38.06Q53.19 38.36 55.43 38.36L55.54 38.47L55.43 38.36Q57.06 38.12 57.26 38.03L57.32 38.09L57.46 38.23Q58.38 38.01 59.15 37.48L59.07 37.39L59.10 37.42Q60.65 36.44 60.44 34.20L60.44 34.19L60.33 34.08Q60.28 31.63 58.42 29.95L58.41 29.94L58.34 29.87Q56.43 28.14 53.78 28.14L53.80 28.16L53.87 27.99L53.89 28.01Q54.36 28.03 55.30 27.95L55.30 27.95L55.18 27.83Q57.31 27.81 58.78 26.48L58.78 26.48L58.73 26.42Q60.22 25.12 60.38 23.12L60.43 23.17L60.44 23.18Q60.34 22.63 60.34 22.27L60.34 22.27L60.43 22.35Q60.42 20.71 58.95 19.73L59.04 19.82L58.87 19.66Q57.59 18.82 55.88 18.95L55.97 19.04L55.93 19.00Q54.56 18.85 53.25 19.30L53.26 19.31L53.21 19.25Q51.62 19.78 51.29 21.01L51.31 21.03L51.43 21.15Q51.25 21.98 51.33 22.80L51.31 22.78L51.17 22.64Q50.12 22.45 47.92 21.67L47.99 21.74L47.91 21.67Q47.68 19.88 47.72 18.98L47.64 18.90L47.75 19.02Q47.80 17.31 48.94 16.57L48.95 16.59L48.98 16.61Q50.46 15.94 52.18 15.94L52.24 16.00L52.21 15.97Q55.59 15.92 58.97 16.21L58.92 16.15L58.97 16.20Q64.48 16.74 64.16 20.78L64.17 20.79L64.14 20.77Q64.07 22.37 63.54 24.04L63.55 24.05L63.55 24.05Q62.55 27.33 60.02 28.31L59.98 28.27L60.07 28.36Q62.72 28.77 63.38 32.36L63.37 32.35L63.44 32.42Q63.64 33.60 63.72 35.76L63.79 35.83L63.73 35.77Q63.97 40.62 59.04 41.11L58.94 41.02L59.06 41.14Q58.19 41.12 52.52 41.41ZM58.16 43.87L58.20 43.90L58.08 43.79Q58.72 43.81 61.78 43.89L61.82 43.93L61.84 43.95Q63.65 43.97 65.40 43.27L65.45 43.32L65.57 43.44Q66.73 42.32 66.52 40.44L66.51 40.43L66.52 40.44Q66.49 39.10 66.17 37.23L66.13 37.19L66.18 37.24Q65.29 32.32 63.21 30.56L63.31 30.66L63.10 30.25L63.07 30.17L63.03 30.14Q64.93 28.61 65.75 23.92L65.67 23.84L65.63 23.80Q65.78 23.43 65.91 22.41L65.79 22.30L65.77 22.27Q65.95 21.55 65.87 20.82L65.89 20.84L65.77 20.72Q65.64 18.95 64.25 18.22L64.27 18.24L64.31 18.36L64.12 18.17Q63.93 17.25 62.71 16.68L62.75 16.72L62.62 16.59Q60.94 15.81 55.43 15.48L55.58 15.63L55.52 15.57Q53.83 15.59 52.11 15.59L51.94 15.41L51.98 15.45Q50.23 15.42 48.60 16.11L48.70 16.22L48.76 16.27Q47.40 17.04 47.40 18.91L47.41 18.92L47.38 18.89Q47.45 18.51 47.73 22.10L47.70 22.07L47.65 22.02Q47.90 22.02 49.65 22.67L49.82 22.84L49.70 22.72Q49.71 23.30 49.67 23.83L49.76 23.93L49.63 23.79Q49.73 24.42 49.77 24.99L49.71 24.93L49.70 24.92Q51.67 25.39 53.83 25.51L53.72 25.39L53.91 25.58Q53.73 23.32 54.91 22.42L54.90 22.42L54.93 22.44Q55.87 21.79 58.03 21.54L58.02 21.54L57.96 21.48Q59.29 21.58 59.90 21.79L59.85 21.74L59.76 21.64Q59.78 21.74 59.82 21.87L59.96 22.01L59.82 22.07L59.98 22.72L60.01 22.75Q60.05 22.99 60.01 23.16L59.89 23.04L60.06 23.21Q59.80 24.87 58.17 26.13L58.21 26.17L58.18 26.14Q57.31 27.23 55.15 27.43L55.14 27.42L55.06 27.35Q54.29 27.51 53.35 27.51L53.45 27.61L53.44 27.60Q53.44 27.93 53.60 28.66L53.61 28.67L53.57 28.63Q55.51 28.69 57.06 29.47L56.96 29.37L56.87 29.40L55.33 29.73L55.29 29.70Q55.24 29.97 55.36 30.62L55.47 30.74L55.51 30.77Q57.60 30.50 59.44 31.93L59.50 31.99L59.47 31.96Q59.85 32.50 60.18 34.26L60.04 34.12L60.01 34.09Q60.34 37.36 57.20 37.81L57.07 37.68L57.07 37.67Q54.83 37.97 54.22 37.93L54.29 38.00L54.29 38.00Q53.90 37.97 53.33 37.89L53.28 37.84L53.31 37.39L53.41 36.87L53.44 36.45L53.39 36.03L53.39 36.03Q52.51 36.26 51.65 36.46L51.63 36.44L51.47 36.28Q51.45 36.05 51.45 35.85L51.52 35.92L51.62 36.02Q51.53 35.68 51.53 35.44L51.60 35.51L51.54 35.45Q51.66 35.08 51.82 34.31L51.69 34.17L51.69 34.18Q49.82 34.55 47.82 34.91L47.70 34.80L47.69 34.78Q47.70 35.33 47.58 36.53L47.59 36.54L47.70 36.65Q47.58 37.86 47.58 38.51L47.50 38.43L47.47 38.40Q47.63 40.67 49.10 41.49L49.08 41.48L49.16 41.56Q50.71 43.96 55.77 43.76L55.71 43.70L55.82 43.81Q56.58 43.75 58.21 43.92Z"/><path fill="#333" d="M34.93 38.79L34.97 38.83L34.97 38.84Q35.39 39.98 35.96 42.15L35.81 42.00L35.87 42.06Q31.31 40.60 26.38 40.88L26.37 40.88L26.44 40.95Q21.52 41.21 17.24 43.33L17.19 43.28L17.31 43.41Q17.40 42.51 17.44 42.60L17.41 42.57L17.45 42.60Q21.57 38.48 25.77 33.75L25.62 33.61L25.74 33.73Q30.39 28.30 31.66 23.29L31.76 23.39L31.75 23.37Q32.18 21.44 30.81 20.17L30.81 20.17L30.81 20.18Q29.47 18.93 27.55 19.09L27.46 19.00L27.53 19.08Q27.12 18.99 26.75 18.99L26.88 19.12L26.84 19.08Q25.24 19.11 23.89 20.09L23.74 19.94L23.81 20.01Q22.47 21.52 22.71 24.37L22.77 24.44L22.73 24.39Q20.74 23.96 19.44 23.47L19.49 23.51L19.44 23.46Q19.23 21.95 19.15 20.40L19.11 20.36L19.20 20.45Q19.11 18.70 19.77 17.47L19.77 17.48L19.81 17.51Q21.69 16.01 25.28 16.01L25.24 15.97L27.14 15.99L27.13 15.98Q29.57 16.01 30.59 16.14L30.60 16.15L30.62 16.16Q35.34 16.69 35.62 19.30L35.52 19.19L35.59 19.26Q35.56 19.77 35.48 20.62L35.45 20.59L35.52 20.66Q35.45 21.32 35.28 22.06L35.31 22.08L35.33 22.11Q33.57 30.79 25.46 38.13L25.56 38.23L25.56 38.23Q27.01 38.02 28.48 38.02L28.44 37.97L28.47 38.01Q31.86 37.93 34.92 38.79ZM34.26 16.43L34.40 16.56L34.36 16.52Q32.71 15.89 30.87 15.81L30.78 15.72L27.17 15.58L27.10 15.50Q22.41 15.30 20.04 16.48L20.08 16.52L20.01 16.45Q18.88 17.93 18.88 20.13L18.85 20.10L18.93 20.18Q18.85 20.84 19.17 23.85L19.24 23.92L19.29 23.97Q19.71 24.06 20.97 24.39L20.97 24.38L21.09 25.60L21.04 25.55Q20.93 25.98 21.01 26.55L21.05 26.58L21.05 26.58Q22.39 26.70 25.04 26.94L25.11 27.02L25.16 27.07Q24.96 26.50 24.96 26.13L25.11 26.28L24.98 26.15Q25.03 24.24 26.33 22.79L26.32 22.78L26.40 22.87Q27.64 21.35 29.56 21.47L29.62 21.53L29.61 21.52Q30.49 21.63 31.31 21.79L31.13 21.61L31.30 21.79Q31.37 22.14 31.45 22.59L31.51 22.65L31.33 22.47Q31.48 23.02 31.40 23.39L31.40 23.40L31.39 23.38Q29.96 28.40 25.23 33.58L25.22 33.57L25.35 33.70Q22.94 35.99 17.11 42.47L17.11 42.47L17.10 42.46Q17.00 43.46 16.63 44.07L16.61 44.05L16.57 44.01Q18.39 43.17 20.02 42.60L19.91 42.50L19.95 42.53Q19.17 43.14 18.15 44.73L18.25 44.83L18.21 44.80Q18.02 45.10 17.90 45.46L17.92 45.49L17.93 45.49Q23.11 43.25 28.98 43.45L29.04 43.51L29.03 43.50Q35.10 43.66 40.00 46.18L39.89 46.08L38.82 43.79L38.84 43.81Q38.25 42.48 37.96 41.62L37.90 41.56L38.04 41.70Q37.21 41.20 35.91 40.75L35.95 40.79L35.89 40.73Q35.61 39.84 35.20 38.37L35.32 38.49L35.22 38.39Q32.87 37.79 30.42 37.59L30.45 37.61L30.50 37.67Q35.54 32.80 37.18 23.95L37.12 23.89L37.24 20.71L37.32 20.79Q37.22 18.85 35.91 18.12L35.99 18.19L35.85 18.09L35.96 18.20Q35.83 18.03 35.75 18.03L35.80 18.09L35.68 17.97Q35.49 17.13 34.31 16.48Z"/><path fill="#222" d="M112.44 41.47L112.40 41.44L112.42 41.45Q108.06 41.70 107.00 39.22L107.08 39.29L107.09 39.31Q107.82 38.20 109.49 36.28L109.56 36.35L109.41 36.20Q110.13 38.56 113.36 38.68L113.34 38.66L113.30 38.62Q116.97 38.75 118.73 37.32L118.62 37.21L118.68 37.27Q120.14 35.51 120.05 32.61L120.02 32.57L120.14 32.70Q119.96 27.25 114.82 27.49L114.83 27.51L114.74 27.42Q111.70 27.56 109.83 28.91L109.80 28.88L109.57 28.81L109.34 28.67L109.39 28.72Q109.64 25.21 109.51 22.27L109.47 22.23L109.53 22.29Q109.46 19.53 109.10 15.98L109.06 15.94L109.12 16.00Q112.98 16.97 117.06 16.85L117.05 16.84L117.07 16.86Q121.05 16.67 124.88 15.33L125.06 15.51L124.35 17.04L124.29 16.98Q123.97 17.80 123.77 18.70L123.78 18.71L123.73 18.67Q120.56 19.94 116.40 19.94L116.25 19.79L116.36 19.90Q114.74 19.83 113.15 19.67L113.27 19.79L113.08 19.60Q113.04 20.38 112.68 25.15L112.64 25.12L112.73 25.20Q113.65 24.74 115.86 24.58L115.74 24.46L115.74 24.46Q119.86 24.83 121.41 26.63L121.43 26.64L121.30 26.51Q122.79 28.16 123.07 32.28L123.08 32.29L123.19 32.40Q123.35 36.76 122.04 38.92L122.09 38.97L122.12 39.00Q119.93 41.01 116.38 41.26L116.36 41.24L116.48 41.35Q115.23 41.25 112.38 41.41ZM118.90 43.89L118.99 43.99L118.92 43.92Q122.61 44.02 124.65 42.84L124.56 42.74L124.66 42.85Q125.66 41.15 125.66 38.91L125.60 38.85L125.68 38.93Q125.67 35.61 124.65 31.21L124.67 31.23L124.73 31.29Q124.28 29.37 122.97 27.86L122.98 27.87L123.10 28.02L122.75 27.59L122.41 27.42L122.41 27.42Q122.05 26.61 121.36 25.88L121.47 25.99L121.42 25.98L121.37 25.93Q119.75 24.14 115.79 24.14L115.76 24.11L115.41 24.05L115.47 24.11Q115.68 23.63 115.89 22.45L115.84 22.40L115.74 22.30Q121.08 22.42 125.41 20.67L125.51 20.77L125.36 20.62Q125.93 19.23 126.95 16.22L127.01 16.28L124.67 17.20L124.68 17.21Q125.16 16.06 125.69 14.83L125.64 14.78L125.67 14.82Q121.55 16.36 117.15 16.44L117.10 16.40L117.15 16.45Q112.72 16.55 108.48 15.37L108.39 15.27L108.50 15.38Q109.16 20.05 109.16 24.78L109.24 24.85L109.13 24.75Q109.08 26.74 108.96 28.78L109.03 28.85L109.12 28.94Q109.43 29.16 110.04 29.49L109.99 29.44L110.02 29.47Q110.41 29.25 111.11 28.88L110.95 28.72L110.93 28.71Q110.89 29.52 110.64 31.15L110.78 31.29L110.83 31.33Q111.25 31.51 111.70 31.76L111.64 31.70L111.53 31.59Q114.55 29.76 116.55 29.76L116.58 29.78L116.52 29.73Q117.93 29.71 119.20 30.41L119.38 30.59L119.39 30.59Q119.65 31.59 119.69 32.61L119.62 32.54L119.67 32.59Q119.72 35.33 118.62 36.51L118.60 36.50L118.77 36.67Q117.26 37.94 114.86 38.18L114.74 38.06L114.77 38.09Q113.87 38.29 113.13 38.21L113.01 38.09L112.96 38.04Q112.06 37.92 111.25 37.55L111.26 37.56L111.25 37.34L111.27 37.61L111.12 37.46Q110.37 37.04 109.80 35.61L109.81 35.62L109.72 35.53Q108.39 37.13 106.59 39.42L106.56 39.39L106.59 39.42Q106.88 40.07 107.77 41.09L107.67 40.99L107.72 41.04Q108.92 43.05 111.94 43.58L111.85 43.50L111.94 43.58Q113.22 43.84 118.97 43.97Z"/><path d="M13 40 C71 38,82 22,148 45" stroke="#999" fill="none"/><path fill="#333" d="M86.33 23.28L86.24 23.19L86.24 23.20Q82.86 23.24 80.90 22.09L80.90 22.10L80.87 22.06Q83.71 20.74 88.93 16.22L88.76 16.05L88.96 16.25Q89.56 15.87 90.95 15.22L90.93 15.20L91.06 15.33Q89.50 21.56 89.37 28.37L89.39 28.39L89.46 28.45Q89.39 35.32 90.53 41.84L90.58 41.90L90.40 41.72Q88.63 40.96 86.35 40.84L86.50 40.99L86.43 40.92Q86.33 36.50 86.33 32.13L86.25 32.05L86.36 32.17Q86.26 27.66 86.30 23.26ZM85.98 25.75L85.93 41.32L85.96 41.35Q87.29 41.37 88.31 41.58L88.20 41.47L88.31 41.58Q88.23 42.16 88.44 43.62L88.45 43.64L88.60 43.78Q91.62 44.32 94.23 46.72L94.26 46.76L94.20 46.69Q91.63 39.15 91.59 31.15L91.57 31.14L91.52 31.09Q91.49 23.14 93.44 15.39L93.38 15.33L93.33 15.28Q92.80 15.77 91.09 16.95L91.14 17.00L91.02 16.88Q91.23 16.07 91.56 14.44L91.62 14.50L91.67 14.55Q90.27 15.39 88.72 15.80L88.60 15.68L88.70 15.79Q84.68 19.63 80.07 22.08L80.00 22.01L80.06 22.07Q81.59 23.28 84.12 23.64L84.13 23.65L84.04 23.56Q83.42 24.21 82.04 25.35L82.06 25.37L81.87 25.19Q83.63 25.76 85.99 25.76L85.89 25.66Z"/></svg>