<svg xmlns="http://www.w3.org/2000/svg" width="150" height="50" viewBox="0,0,150,50"><path fill="#222" d="M94.09 38.75L94.22 38.88L94.20 38.87Q94.43 39.83 95.00 41.99L95.03 42.02L95.02 42.01Q90.51 40.59 85.57 40.88L85.69 41.00L85.53 40.84Q80.65 41.14 76.37 43.26L76.38 43.27L76.35 43.25Q76.63 42.54 76.67 42.62L76.63 42.58L76.78 42.73Q80.65 38.37 84.85 33.63L84.90 33.68L84.84 33.62Q89.61 28.31 90.87 23.30L90.84 23.26L90.89 23.32Q91.36 21.43 90.00 20.16L90.00 20.16L90.02 20.18Q88.61 18.88 86.69 19.04L86.70 19.05L86.83 19.18Q86.41 19.08 86.04 19.08L86.10 19.14L86.04 19.08Q84.35 19.02 83.00 20.00L82.99 19.99L82.99 19.98Q81.61 21.46 81.85 24.31L81.92 24.38L81.80 24.26Q80.05 24.06 78.74 23.57L78.66 23.49L78.62 23.45Q78.43 21.95 78.35 20.40L78.29 20.34L78.28 20.34Q78.35 18.73 79.00 17.51L79.01 17.51L78.90 17.40Q80.78 15.90 84.37 15.90L84.50 16.03L86.39 16.04L86.34 16.00Q88.79 16.04 89.81 16.16L89.89 16.24L89.74 16.09Q94.42 16.57 94.71 19.18L94.69 19.16L94.83 19.31Q94.77 19.77 94.69 20.63L94.78 20.72L94.66 20.60Q94.65 21.33 94.49 22.06L94.58 22.15L94.62 22.19Q92.74 30.76 84.63 38.10L84.70 38.18L84.70 38.17Q86.17 37.98 87.64 37.98L87.67 38.01L87.74 38.07Q91.10 37.97 94.16 38.83ZM93.55 16.52L93.52 16.49L93.59 16.55Q91.82 15.81 89.99 15.73L89.99 15.73L86.29 15.50L86.25 15.45Q81.56 15.25 79.19 16.43L79.26 16.50L79.22 16.46Q78.07 17.92 78.07 20.12L78.14 20.20L78.05 20.10Q78.03 20.82 78.35 23.83L78.47 23.95L78.51 23.99Q78.92 24.07 80.18 24.40L80.30 24.52L80.21 25.53L80.17 25.49Q80.20 26.04 80.28 26.62L80.20 26.54L80.21 26.54Q81.61 26.73 84.26 26.97L84.28 26.98L84.30 27.01Q84.21 26.54 84.21 26.18L84.19 26.16L84.24 26.21Q84.21 24.22 85.51 22.77L85.59 22.85L85.58 22.84Q86.78 21.28 88.69 21.41L88.83 21.54L88.82 21.53Q89.56 21.50 90.38 21.66L90.42 21.71L90.36 21.64Q90.57 22.14 90.65 22.59L90.65 22.59L90.62 22.56Q90.63 22.97 90.55 23.34L90.48 23.27L90.55 23.34Q89.23 28.47 84.50 33.65L84.55 33.70L84.52 33.67Q82.14 35.98 76.30 42.46L76.45 42.61L76.41 42.57Q76.20 43.46 75.84 44.08L75.87 44.11L75.77 44.01Q77.53 43.12 79.16 42.55L79.16 42.54L79.21 42.60Q78.46 43.24 77.44 44.83L77.36 44.74L77.34 44.72Q77.32 45.20 77.20 45.56L77.16 45.52L77.16 45.52Q82.42 43.35 88.29 43.56L88.19 43.46L88.23 43.50Q94.21 43.57 99.11 46.10L99.11 46.10L98.09 43.85L98.15 43.92Q97.46 42.49 97.17 41.63L97.18 41.64L97.08 41.54Q96.35 41.14 95.05 40.69L95.05 40.70L95.02 40.66Q94.82 39.85 94.41 38.38L94.51 38.48L94.49 38.46Q92.07 37.80 89.62 37.59L89.75 37.72L89.62 37.58Q94.78 32.84 96.41 23.99L96.41 23.99L96.46 20.73L96.60 20.87Q96.40 18.83 95.09 18.10L95.23 18.23L95.04 18.09L95.01 18.05Q95.00 18.00 94.91 18.00L94.97 18.06L95.00 18.08Q94.65 17.08 93.47 16.43Z"/><path fill="#111" d="M115.30 19.20L115.38 19.29L113.73 19.43L113.58 19.28Q111.30 19.53 111.05 21.69L110.99 21.62L110.93 21.56Q110.92 22.41 110.96 23.47L110.91 23.42L110.92 23.43Q110.98 25.54 112.33 26.96L112.34 26.97L112.28 26.92Q113.74 28.45 115.78 28.29L115.66 28.17L115.69 28.20Q117.88 28.03 118.70 27.05L118.70 27.05L118.76 27.11Q119.94 26.17 120.22 23.76L120.23 23.77L120.22 23.76Q120.58 21.43 119.23 20.53L119.16 20.46L119.23 20.53Q118.16 19.54 115.30 19.21ZM121.84 29.17L121.75 29.09L120.44 31.61L120.50 31.67Q117.47 36.67 113.43 41.04L113.52 41.13L113.47 41.08Q111.74 41.26 108.84 42.12L108.83 42.11L108.92 42.20Q114.50 35.34 117.89 30.20L117.90 30.21L117.99 30.30Q116.87 30.98 115.12 31.06L115.11 31.05L115.09 31.03Q111.82 31.15 110.19 29.03L110.26 29.10L110.25 29.08Q108.94 27.37 107.76 22.48L107.75 22.47L107.71 22.43Q107.74 21.97 107.58 20.97L107.55 20.94L107.52 20.91Q107.46 20.01 107.46 19.52L107.47 19.54L107.42 19.49Q107.48 17.63 108.62 16.97L108.57 16.92L108.65 17.00Q109.93 16.16 111.92 16.16L111.96 16.20L111.78 16.01Q115.21 16.02 115.21 16.02L115.24 16.04L115.29 16.10Q117.69 16.22 119.04 16.42L119.05 16.43L119.07 16.45Q121.21 16.60 122.19 17.13L122.28 17.21L122.27 17.21Q123.78 18.06 123.98 19.94L123.90 19.85L123.87 19.82Q123.84 20.04 123.64 22.90L123.71 22.97L123.78 23.03Q123.22 25.17 122.98 26.07L122.95 26.04L123.00 26.09Q122.68 27.69 121.87 29.20ZM123.77 31.63L123.85 31.72L123.84 31.71Q124.94 29.37 125.51 24.77L125.40 24.66L125.55 24.81Q125.87 22.48 125.83 21.54L125.70 21.41L125.69 21.40Q125.61 19.37 124.35 18.39L124.47 18.50L124.02 18.26L124.13 18.37Q123.87 17.58 122.89 16.89L122.89 16.88L122.89 16.89Q120.48 15.87 115.34 15.70L115.23 15.59L115.35 15.71Q114.24 15.62 111.63 15.62L111.60 15.59L111.69 15.68Q109.74 15.61 108.15 16.34L108.09 16.28L108.09 16.28Q106.85 17.12 106.93 19.08L107.02 19.17L106.98 19.12Q107.20 20.12 107.40 22.28L107.35 22.23L107.35 22.23Q108.12 25.16 108.40 26.06L108.45 26.10L108.37 26.02Q109.07 28.11 110.09 29.50L109.93 29.34L109.90 29.31Q110.29 29.78 110.69 30.18L110.64 30.13L110.60 30.09Q111.03 30.73 111.73 31.70L111.69 31.67L111.60 31.58Q113.21 33.07 115.29 33.27L115.27 33.25L115.38 33.36Q113.24 36.12 111.57 38.15L111.73 38.31L107.81 42.97L107.71 42.87Q110.10 42.02 111.85 41.66L111.90 41.71L111.98 41.79Q111.06 42.63 109.39 44.46L109.41 44.48L109.37 44.44Q112.72 43.50 116.06 43.46L116.11 43.51L115.98 43.38Q118.65 40.79 123.30 33.05L123.24 32.98L123.16 32.98L123.23 33.05Q123.41 32.17 123.78 31.64ZM117.45 21.85L117.48 21.87L117.36 21.76Q118.06 21.68 118.55 21.81L118.47 21.72L118.60 21.85Q119.30 21.98 119.71 22.11L119.57 21.97L119.74 22.14Q119.84 22.53 119.92 22.98L119.94 22.99L119.95 23.00Q120.04 23.46 119.91 23.86L119.75 23.70L119.82 23.77Q119.75 25.57 118.49 26.76L118.49 26.76L118.46 26.73Q117.52 27.92 115.77 27.88L115.72 27.82L115.75 27.86Q115.36 27.91 113.73 27.59L113.67 27.53L113.73 27.59Q113.33 26.49 113.33 25.72L113.43 25.82L113.45 25.84Q113.39 25.57 113.39 25.33L113.42 25.37L113.35 25.29Q113.42 23.00 115.87 22.14L115.78 22.06L115.80 22.07Q116.46 21.75 117.36 21.75Z"/><path fill="#444" d="M56.18 19.28L56.24 19.35L54.55 19.46L54.53 19.43Q52.13 19.57 51.89 21.73L51.91 21.74L51.89 21.73Q51.78 22.47 51.82 23.54L51.86 23.58L51.71 23.42Q51.76 25.51 53.11 26.94L53.18 27.01L53.13 26.97Q54.56 28.48 56.60 28.31L56.54 28.26L56.54 28.25Q58.83 28.18 59.64 27.20L59.60 27.16L59.64 27.19Q60.66 26.10 60.95 23.69L60.96 23.70L61.03 23.77Q61.22 21.27 59.87 20.37L59.91 20.41L59.84 20.33Q58.97 19.55 56.12 19.22ZM62.58 29.12L62.62 29.15L61.21 31.58L61.28 31.65Q58.33 36.73 54.29 41.10L54.30 41.10L54.38 41.19Q52.59 41.32 49.70 42.17L49.58 42.05L49.68 42.15Q55.30 35.33 58.68 30.19L58.79 30.30L58.81 30.32Q57.69 31.00 55.94 31.08L55.84 30.98L55.84 30.98Q52.73 31.25 51.09 29.13L50.97 29.01L51.06 29.09Q49.79 27.41 48.60 22.52L48.48 22.40L48.62 22.53Q48.56 21.99 48.40 20.99L48.32 20.91L48.35 20.94Q48.21 19.97 48.21 19.48L48.30 19.56L48.20 19.46Q48.18 17.53 49.32 16.88L49.41 16.97L49.41 16.97Q50.76 16.19 52.76 16.19L52.66 16.09L52.66 16.09Q56.04 16.05 56.04 16.05L56.06 16.07L56.01 16.02Q58.45 16.17 59.79 16.38L59.85 16.43L59.75 16.33Q62.05 16.63 63.03 17.16L63.01 17.14L62.97 17.11Q64.42 17.90 64.62 19.78L64.63 19.78L64.77 19.93Q64.62 20.02 64.42 22.88L64.41 22.87L64.60 23.06Q64.18 25.33 63.93 26.22L63.78 26.07L63.88 26.17Q63.35 27.56 62.53 29.07ZM64.74 31.81L64.69 31.75L64.70 31.77Q65.74 29.38 66.32 24.77L66.20 24.66L66.23 24.69Q66.67 22.48 66.63 21.54L66.64 21.55L66.52 21.43Q66.58 19.54 65.32 18.56L65.18 18.42L65.01 18.45L64.89 18.33Q64.67 17.58 63.69 16.89L63.74 16.94L63.63 16.83Q61.27 15.85 56.13 15.69L56.08 15.64L56.06 15.62Q55.11 15.69 52.50 15.69L52.53 15.72L52.38 15.57Q50.56 15.63 48.97 16.36L49.04 16.43L49.00 16.40Q47.73 17.20 47.81 19.16L47.81 19.16L47.85 19.19Q48.12 20.24 48.32 22.40L48.18 22.26L48.30 22.38Q48.87 25.11 49.15 26.01L49.22 26.07L49.16 26.01Q49.72 27.96 50.74 29.35L50.71 29.32L50.76 29.37Q51.02 29.71 51.43 30.12L51.53 30.22L51.50 30.19Q51.82 30.71 52.51 31.69L52.40 31.58L52.51 31.69Q53.96 33.02 56.04 33.22L56.19 33.37L56.09 33.27Q54.19 36.27 52.52 38.31L52.49 38.28L48.63 42.99L48.64 42.99Q51.04 42.17 52.80 41.81L52.76 41.77L52.79 41.80Q51.86 42.62 50.18 44.45L50.18 44.45L50.16 44.43Q53.47 43.45 56.81 43.41L56.90 43.50L56.86 43.46Q59.45 40.79 64.10 33.04L63.92 32.86L63.97 32.99L63.92 32.94Q64.23 32.19 64.60 31.66ZM58.14 21.74L58.28 21.88L58.12 21.72Q58.83 21.65 59.32 21.78L59.42 21.88L59.37 21.83Q59.98 21.87 60.39 21.99L60.44 22.04L60.37 21.97Q60.65 22.53 60.73 22.98L60.75 23.00L60.60 22.85Q60.77 23.39 60.65 23.80L60.69 23.84L60.64 23.78Q60.53 25.56 59.27 26.74L59.34 26.81L59.35 26.82Q58.39 27.99 56.64 27.95L56.61 27.92L56.53 27.84Q56.03 27.78 54.39 27.46L54.41 27.47L54.54 27.60Q54.23 26.60 54.23 25.82L54.24 25.83L54.14 25.73Q54.13 25.51 54.13 25.27L54.24 25.38L54.24 25.38Q54.21 22.99 56.66 22.13L56.51 21.98L56.67 22.15Q57.39 21.89 58.29 21.89Z"/><path fill="#222" d="M27.18 23.34L27.05 23.20L27.08 23.24Q23.68 23.26 21.72 22.12L21.76 22.15L21.65 22.05Q24.34 20.58 29.56 16.05L29.69 16.18L29.68 16.17Q30.41 15.92 31.80 15.27L31.75 15.22L31.87 15.34Q30.39 21.65 30.27 28.46L30.27 28.46L30.37 28.56Q30.13 35.26 31.27 41.78L31.34 41.85L31.19 41.71Q29.46 40.99 27.18 40.87L27.27 40.96L27.18 40.88Q27.18 36.55 27.18 32.18L27.11 32.11L27.05 32.06Q27.14 27.74 27.18 23.33ZM26.64 25.61L26.71 41.30L26.64 41.23Q28.03 41.32 29.05 41.52L29.06 41.53L29.03 41.50Q29.14 42.26 29.34 43.73L29.31 43.69L29.25 43.63Q32.48 44.37 35.09 46.78L35.05 46.74L35.08 46.78Q32.38 39.10 32.34 31.10L32.35 31.12L32.28 31.04Q32.19 23.04 34.14 15.29L34.27 15.41L34.20 15.34Q33.62 15.79 31.91 16.97L31.82 16.88L31.88 16.94Q32.10 16.14 32.43 14.51L32.38 14.46L32.43 14.51Q31.00 15.32 29.45 15.73L29.37 15.66L29.55 15.84Q25.33 19.48 20.72 21.93L20.91 22.12L20.84 22.06Q22.23 23.11 24.76 23.48L24.92 23.64L24.76 23.48Q24.17 24.16 22.78 25.30L22.86 25.38L22.83 25.35Q24.31 25.64 26.68 25.64L26.71 25.68Z"/><path d="M9 25 C70 48,96 4,135 14" stroke="#777" fill="none"/></svg>